G04*
G04 #@! TF.GenerationSoftware,Altium Limited,Altium Designer,24.1.2 (44)*
G04*
G04 Layer_Physical_Order=2*
G04 Layer_Color=36540*
%FSLAX44Y44*%
%MOMM*%
G71*
G04*
G04 #@! TF.SameCoordinates,AB4D1F7E-5540-450B-A896-BEEC34A0DDED*
G04*
G04*
G04 #@! TF.FilePolarity,Positive*
G04*
G01*
G75*
%ADD13C,1.2700*%
%ADD21C,0.5000*%
%ADD24C,0.8000*%
%ADD25C,0.4000*%
%ADD26C,1.2000*%
%ADD27C,6.0000*%
%ADD28C,1.6000*%
%ADD29R,1.6000X1.6000*%
%ADD30C,1.6000*%
G36*
X789839Y834973D02*
X789930Y834462D01*
X787059Y830510D01*
X784808Y826092D01*
X783276Y821376D01*
X782500Y816479D01*
Y811521D01*
X783276Y806624D01*
X784808Y801908D01*
X787059Y797490D01*
X789973Y793479D01*
X793479Y789973D01*
X797490Y787059D01*
X801908Y784808D01*
X806624Y783276D01*
X811521Y782500D01*
X816479D01*
X821376Y783276D01*
X826092Y784808D01*
X830510Y787059D01*
X834462Y789930D01*
X834973Y789839D01*
X835732Y789525D01*
Y783897D01*
X835257Y783850D01*
X830695Y782466D01*
X826491Y780219D01*
X822806Y777195D01*
X819782Y773510D01*
X817535Y769306D01*
X816151Y764744D01*
X815704Y760208D01*
X815704D01*
X815732Y758954D01*
Y420000D01*
X815683D01*
X816150Y415256D01*
X817534Y410694D01*
X819781Y406490D01*
X822805Y402805D01*
X826490Y399781D01*
X830694Y397534D01*
X835256Y396150D01*
X835732Y396103D01*
Y388475D01*
X834973Y388161D01*
X834462Y388070D01*
X830510Y390941D01*
X826092Y393192D01*
X821376Y394724D01*
X816479Y395500D01*
X811521D01*
X806624Y394724D01*
X801908Y393192D01*
X797490Y390941D01*
X793479Y388027D01*
X789973Y384521D01*
X787059Y380510D01*
X784808Y376092D01*
X783276Y371376D01*
X782500Y366479D01*
Y361521D01*
X783276Y356624D01*
X784808Y351908D01*
X787059Y347490D01*
X789973Y343479D01*
X793479Y339973D01*
X797490Y337059D01*
X801908Y334808D01*
X806624Y333276D01*
X811521Y332500D01*
X816479D01*
X821376Y333276D01*
X826092Y334808D01*
X830510Y337059D01*
X834462Y339930D01*
X834973Y339839D01*
X835732Y339525D01*
X835732Y280475D01*
X834973Y280161D01*
X834462Y280070D01*
X830510Y282941D01*
X826092Y285192D01*
X821376Y286724D01*
X816479Y287500D01*
X811521D01*
X806624Y286724D01*
X801908Y285192D01*
X797490Y282941D01*
X793479Y280027D01*
X789973Y276521D01*
X787059Y272510D01*
X784808Y268092D01*
X783276Y263376D01*
X782500Y258479D01*
Y253521D01*
X783276Y248624D01*
X784808Y243908D01*
X787059Y239490D01*
X789973Y235479D01*
X793479Y231973D01*
X797490Y229059D01*
X801908Y226808D01*
X806624Y225276D01*
X811521Y224500D01*
X816479D01*
X821376Y225276D01*
X826092Y226808D01*
X830510Y229059D01*
X834462Y231930D01*
X834973Y231839D01*
X835732Y231525D01*
X835732Y60475D01*
X834973Y60161D01*
X834462Y60070D01*
X830510Y62941D01*
X826092Y65192D01*
X821376Y66724D01*
X816479Y67500D01*
X811521D01*
X806624Y66724D01*
X801908Y65192D01*
X797490Y62941D01*
X793479Y60027D01*
X789973Y56521D01*
X787059Y52510D01*
X784808Y48092D01*
X783276Y43376D01*
X782500Y38479D01*
Y33521D01*
X783276Y28624D01*
X784808Y23908D01*
X787059Y19490D01*
X789930Y15538D01*
X789839Y15027D01*
X789525Y14268D01*
X60475Y14268D01*
X60161Y15027D01*
X60070Y15538D01*
X62941Y19490D01*
X65192Y23908D01*
X66724Y28624D01*
X67500Y33521D01*
Y38479D01*
X66724Y43376D01*
X65192Y48092D01*
X62941Y52510D01*
X60027Y56521D01*
X56521Y60027D01*
X52510Y62941D01*
X48092Y65192D01*
X43376Y66724D01*
X38479Y67500D01*
X33521D01*
X28624Y66724D01*
X23908Y65192D01*
X19490Y62941D01*
X15538Y60070D01*
X15027Y60161D01*
X14268Y60475D01*
X14268Y231525D01*
X15027Y231839D01*
X15538Y231930D01*
X19490Y229059D01*
X23908Y226808D01*
X28624Y225276D01*
X33521Y224500D01*
X38479D01*
X43376Y225276D01*
X48092Y226808D01*
X52510Y229059D01*
X56521Y231973D01*
X60027Y235479D01*
X62941Y239490D01*
X65192Y243908D01*
X66724Y248624D01*
X67500Y253521D01*
Y258479D01*
X66724Y263376D01*
X65192Y268092D01*
X62941Y272510D01*
X60027Y276521D01*
X56521Y280027D01*
X52510Y282941D01*
X48092Y285192D01*
X43376Y286724D01*
X38479Y287500D01*
X33521D01*
X28624Y286724D01*
X23908Y285192D01*
X19490Y282941D01*
X15538Y280070D01*
X15027Y280161D01*
X14268Y280475D01*
Y339525D01*
X15027Y339839D01*
X15538Y339930D01*
X19490Y337059D01*
X23908Y334808D01*
X28624Y333276D01*
X33521Y332500D01*
X38479D01*
X43376Y333276D01*
X48092Y334808D01*
X52510Y337059D01*
X56521Y339973D01*
X60027Y343479D01*
X62941Y347490D01*
X65192Y351908D01*
X66724Y356624D01*
X67500Y361521D01*
Y366479D01*
X66724Y371376D01*
X65192Y376092D01*
X62941Y380510D01*
X60027Y384521D01*
X56521Y388027D01*
X52510Y390941D01*
X48092Y393192D01*
X43376Y394724D01*
X38479Y395500D01*
X33521D01*
X28624Y394724D01*
X28344Y394634D01*
X27598Y395727D01*
X30219Y398920D01*
X32466Y403124D01*
X33850Y407686D01*
X34317Y412430D01*
X34268D01*
Y766130D01*
X34317D01*
X33850Y770874D01*
X32466Y775436D01*
X30219Y779640D01*
X28225Y782070D01*
X28394Y782580D01*
X28916Y783229D01*
X33521Y782500D01*
X38479D01*
X43376Y783276D01*
X48092Y784808D01*
X52510Y787059D01*
X56521Y789973D01*
X60027Y793479D01*
X62941Y797490D01*
X65192Y801908D01*
X66724Y806624D01*
X67500Y811521D01*
Y816479D01*
X66724Y821376D01*
X65192Y826092D01*
X62941Y830510D01*
X60070Y834462D01*
X60161Y834973D01*
X60475Y835732D01*
X79734Y835732D01*
X80061Y831575D01*
X81097Y827259D01*
X82796Y823158D01*
X85115Y819373D01*
X87998Y815998D01*
X91373Y813115D01*
X95158Y810796D01*
X99259Y809097D01*
X103575Y808061D01*
X108000Y807713D01*
Y807732D01*
X742000D01*
Y807713D01*
X746425Y808061D01*
X750741Y809097D01*
X754842Y810796D01*
X758627Y813115D01*
X762002Y815998D01*
X764885Y819373D01*
X767204Y823158D01*
X768903Y827259D01*
X769939Y831575D01*
X770266Y835732D01*
X789525D01*
X789839Y834973D01*
D02*
G37*
%LPC*%
G36*
X647326Y747720D02*
X645934D01*
X644647Y747187D01*
X643663Y746203D01*
X643130Y744916D01*
Y743524D01*
X643663Y742237D01*
X644647Y741253D01*
X645934Y740720D01*
X647326D01*
X648613Y741253D01*
X649597Y742237D01*
X650130Y743524D01*
Y744916D01*
X649597Y746203D01*
X648613Y747187D01*
X647326Y747720D01*
D02*
G37*
G36*
X737296Y738830D02*
X735904D01*
X734617Y738297D01*
X733633Y737313D01*
X733100Y736026D01*
Y734634D01*
X733633Y733347D01*
X734617Y732363D01*
X735904Y731830D01*
X737296D01*
X738583Y732363D01*
X739567Y733347D01*
X740100Y734634D01*
Y736026D01*
X739567Y737313D01*
X738583Y738297D01*
X737296Y738830D01*
D02*
G37*
G36*
X630616Y731000D02*
X629224D01*
X627937Y730467D01*
X626953Y729482D01*
X626420Y728196D01*
Y726804D01*
X626953Y725517D01*
X627937Y724533D01*
X629224Y724000D01*
X630616D01*
X631903Y724533D01*
X632887Y725517D01*
X633420Y726804D01*
Y728196D01*
X632887Y729482D01*
X631903Y730467D01*
X630616Y731000D01*
D02*
G37*
G36*
X569194Y733200D02*
X567006D01*
X564985Y732363D01*
X563437Y730815D01*
X562600Y728794D01*
Y726606D01*
X563437Y724584D01*
X564985Y723037D01*
X567006Y722200D01*
X569194D01*
X571216Y723037D01*
X572763Y724584D01*
X573600Y726606D01*
Y728794D01*
X572763Y730815D01*
X571216Y732363D01*
X569194Y733200D01*
D02*
G37*
G36*
X475854D02*
X473666D01*
X471645Y732363D01*
X470097Y730815D01*
X469260Y728794D01*
Y726606D01*
X470097Y724584D01*
X471645Y723037D01*
X473666Y722200D01*
X475854D01*
X477876Y723037D01*
X479423Y724584D01*
X480260Y726606D01*
Y728794D01*
X479423Y730815D01*
X477876Y732363D01*
X475854Y733200D01*
D02*
G37*
G36*
X382514D02*
X380326D01*
X378304Y732363D01*
X376757Y730815D01*
X375920Y728794D01*
Y726606D01*
X376757Y724584D01*
X378304Y723037D01*
X380326Y722200D01*
X382514D01*
X384535Y723037D01*
X386083Y724584D01*
X386920Y726606D01*
Y728794D01*
X386083Y730815D01*
X384535Y732363D01*
X382514Y733200D01*
D02*
G37*
G36*
X289174D02*
X286986D01*
X284965Y732363D01*
X283417Y730815D01*
X282580Y728794D01*
Y726606D01*
X283417Y724584D01*
X284965Y723037D01*
X286986Y722200D01*
X289174D01*
X291196Y723037D01*
X292743Y724584D01*
X293580Y726606D01*
Y728794D01*
X292743Y730815D01*
X291196Y732363D01*
X289174Y733200D01*
D02*
G37*
G36*
X195834D02*
X193646D01*
X191625Y732363D01*
X190077Y730815D01*
X189240Y728794D01*
Y726606D01*
X190077Y724584D01*
X191625Y723037D01*
X193646Y722200D01*
X195834D01*
X197855Y723037D01*
X199403Y724584D01*
X200240Y726606D01*
Y728794D01*
X199403Y730815D01*
X197855Y732363D01*
X195834Y733200D01*
D02*
G37*
G36*
X102494D02*
X100306D01*
X98285Y732363D01*
X96737Y730815D01*
X95900Y728794D01*
Y726606D01*
X96737Y724584D01*
X98285Y723037D01*
X100306Y722200D01*
X102494D01*
X104515Y723037D01*
X106063Y724584D01*
X106900Y726606D01*
Y728794D01*
X106063Y730815D01*
X104515Y732363D01*
X102494Y733200D01*
D02*
G37*
G36*
X772856Y727400D02*
X771464D01*
X770177Y726867D01*
X769193Y725883D01*
X768660Y724596D01*
Y723204D01*
X769193Y721917D01*
X770177Y720933D01*
X771464Y720400D01*
X772856D01*
X774143Y720933D01*
X775127Y721917D01*
X775660Y723204D01*
Y724596D01*
X775127Y725883D01*
X774143Y726867D01*
X772856Y727400D01*
D02*
G37*
G36*
X622996Y726000D02*
X621604D01*
X620317Y725467D01*
X619333Y724482D01*
X618800Y723196D01*
Y721804D01*
X619333Y720517D01*
X620317Y719533D01*
X621604Y719000D01*
X622996D01*
X624283Y719533D01*
X625267Y720517D01*
X625800Y721804D01*
Y723196D01*
X625267Y724482D01*
X624283Y725467D01*
X622996Y726000D01*
D02*
G37*
G36*
X691576Y721000D02*
X690184D01*
X688897Y720467D01*
X687913Y719482D01*
X687380Y718196D01*
Y716804D01*
X687402Y716751D01*
X686430Y715779D01*
X685896Y716000D01*
X684504D01*
X683218Y715467D01*
X682233Y714482D01*
X681700Y713196D01*
Y711804D01*
X682233Y710517D01*
X683218Y709533D01*
X684504Y709000D01*
X685896D01*
X687183Y709533D01*
X688167Y710517D01*
X688700Y711804D01*
Y713196D01*
X688678Y713249D01*
X689650Y714221D01*
X690184Y714000D01*
X691576D01*
X692863Y714533D01*
X693847Y715517D01*
X694380Y716804D01*
Y718196D01*
X693847Y719482D01*
X692863Y720467D01*
X691576Y721000D01*
D02*
G37*
G36*
X630616Y718500D02*
X629224D01*
X627937Y717967D01*
X626953Y716982D01*
X626420Y715696D01*
Y714304D01*
X626953Y713017D01*
X627937Y712033D01*
X629224Y711500D01*
X630616D01*
X631903Y712033D01*
X632887Y713017D01*
X633420Y714304D01*
Y715696D01*
X632887Y716982D01*
X631903Y717967D01*
X630616Y718500D01*
D02*
G37*
G36*
X581894Y720500D02*
X579706D01*
X577685Y719663D01*
X576137Y718115D01*
X575300Y716094D01*
Y713906D01*
X576137Y711884D01*
X577685Y710337D01*
X579706Y709500D01*
X581894D01*
X583915Y710337D01*
X585463Y711884D01*
X586300Y713906D01*
Y716094D01*
X585463Y718115D01*
X583915Y719663D01*
X581894Y720500D01*
D02*
G37*
G36*
X556494D02*
X554306D01*
X552285Y719663D01*
X550737Y718115D01*
X549900Y716094D01*
Y713906D01*
X550737Y711884D01*
X552285Y710337D01*
X554306Y709500D01*
X556494D01*
X558516Y710337D01*
X560063Y711884D01*
X560900Y713906D01*
Y716094D01*
X560063Y718115D01*
X558516Y719663D01*
X556494Y720500D01*
D02*
G37*
G36*
X488554D02*
X486366D01*
X484344Y719663D01*
X482797Y718115D01*
X481960Y716094D01*
Y713906D01*
X482797Y711884D01*
X484344Y710337D01*
X486366Y709500D01*
X488554D01*
X490575Y710337D01*
X492123Y711884D01*
X492960Y713906D01*
Y716094D01*
X492123Y718115D01*
X490575Y719663D01*
X488554Y720500D01*
D02*
G37*
G36*
X463154D02*
X460966D01*
X458945Y719663D01*
X457397Y718115D01*
X456560Y716094D01*
Y713906D01*
X457397Y711884D01*
X458945Y710337D01*
X460966Y709500D01*
X463154D01*
X465176Y710337D01*
X466723Y711884D01*
X467560Y713906D01*
Y716094D01*
X466723Y718115D01*
X465176Y719663D01*
X463154Y720500D01*
D02*
G37*
G36*
X395214D02*
X393026D01*
X391004Y719663D01*
X389457Y718115D01*
X388620Y716094D01*
Y713906D01*
X389457Y711884D01*
X391004Y710337D01*
X393026Y709500D01*
X395214D01*
X397235Y710337D01*
X398783Y711884D01*
X399620Y713906D01*
Y716094D01*
X398783Y718115D01*
X397235Y719663D01*
X395214Y720500D01*
D02*
G37*
G36*
X369814D02*
X367626D01*
X365605Y719663D01*
X364057Y718115D01*
X363220Y716094D01*
Y713906D01*
X364057Y711884D01*
X365605Y710337D01*
X367626Y709500D01*
X369814D01*
X371836Y710337D01*
X373383Y711884D01*
X374220Y713906D01*
Y716094D01*
X373383Y718115D01*
X371836Y719663D01*
X369814Y720500D01*
D02*
G37*
G36*
X301874D02*
X299686D01*
X297665Y719663D01*
X296117Y718115D01*
X295280Y716094D01*
Y713906D01*
X296117Y711884D01*
X297665Y710337D01*
X299686Y709500D01*
X301874D01*
X303895Y710337D01*
X305443Y711884D01*
X306280Y713906D01*
Y716094D01*
X305443Y718115D01*
X303895Y719663D01*
X301874Y720500D01*
D02*
G37*
G36*
X276474D02*
X274286D01*
X272264Y719663D01*
X270717Y718115D01*
X269880Y716094D01*
Y713906D01*
X270717Y711884D01*
X272264Y710337D01*
X274286Y709500D01*
X276474D01*
X278496Y710337D01*
X280043Y711884D01*
X280880Y713906D01*
Y716094D01*
X280043Y718115D01*
X278496Y719663D01*
X276474Y720500D01*
D02*
G37*
G36*
X208534D02*
X206346D01*
X204324Y719663D01*
X202777Y718115D01*
X201940Y716094D01*
Y713906D01*
X202777Y711884D01*
X204324Y710337D01*
X206346Y709500D01*
X208534D01*
X210555Y710337D01*
X212103Y711884D01*
X212940Y713906D01*
Y716094D01*
X212103Y718115D01*
X210555Y719663D01*
X208534Y720500D01*
D02*
G37*
G36*
X183134D02*
X180946D01*
X178925Y719663D01*
X177377Y718115D01*
X176540Y716094D01*
Y713906D01*
X177377Y711884D01*
X178925Y710337D01*
X180946Y709500D01*
X183134D01*
X185156Y710337D01*
X186703Y711884D01*
X187540Y713906D01*
Y716094D01*
X186703Y718115D01*
X185156Y719663D01*
X183134Y720500D01*
D02*
G37*
G36*
X115194D02*
X113006D01*
X110984Y719663D01*
X109437Y718115D01*
X108600Y716094D01*
Y713906D01*
X109437Y711884D01*
X110984Y710337D01*
X113006Y709500D01*
X115194D01*
X117215Y710337D01*
X118763Y711884D01*
X119600Y713906D01*
Y716094D01*
X118763Y718115D01*
X117215Y719663D01*
X115194Y720500D01*
D02*
G37*
G36*
X89794D02*
X87606D01*
X85584Y719663D01*
X84037Y718115D01*
X83200Y716094D01*
Y713906D01*
X84037Y711884D01*
X85584Y710337D01*
X87606Y709500D01*
X89794D01*
X91816Y710337D01*
X93363Y711884D01*
X94200Y713906D01*
Y716094D01*
X93363Y718115D01*
X91816Y719663D01*
X89794Y720500D01*
D02*
G37*
G36*
X622996Y711000D02*
X621604D01*
X620317Y710467D01*
X619333Y709482D01*
X618800Y708196D01*
Y706804D01*
X619333Y705517D01*
X620317Y704533D01*
X621604Y704000D01*
X622996D01*
X624283Y704533D01*
X625267Y705517D01*
X625800Y706804D01*
Y708196D01*
X625267Y709482D01*
X624283Y710467D01*
X622996Y711000D01*
D02*
G37*
G36*
X725866Y709500D02*
X724474D01*
X723187Y708967D01*
X722203Y707982D01*
X721670Y706696D01*
Y705304D01*
X722203Y704017D01*
X723187Y703033D01*
X724474Y702500D01*
X725866D01*
X727153Y703033D01*
X728137Y704017D01*
X728670Y705304D01*
Y706696D01*
X728137Y707982D01*
X727153Y708967D01*
X725866Y709500D01*
D02*
G37*
G36*
X630616Y706000D02*
X629224D01*
X627937Y705467D01*
X626953Y704482D01*
X626420Y703196D01*
Y701804D01*
X626953Y700517D01*
X627937Y699533D01*
X629224Y699000D01*
X630616D01*
X631903Y699533D01*
X632887Y700517D01*
X633420Y701804D01*
Y703196D01*
X632887Y704482D01*
X631903Y705467D01*
X630616Y706000D01*
D02*
G37*
G36*
X569194Y707800D02*
X567006D01*
X564985Y706963D01*
X563437Y705415D01*
X562600Y703394D01*
Y701206D01*
X563437Y699184D01*
X564985Y697637D01*
X567006Y696800D01*
X569194D01*
X571216Y697637D01*
X572763Y699184D01*
X573600Y701206D01*
Y703394D01*
X572763Y705415D01*
X571216Y706963D01*
X569194Y707800D01*
D02*
G37*
G36*
X475854D02*
X473666D01*
X471645Y706963D01*
X470097Y705415D01*
X469260Y703394D01*
Y701206D01*
X470097Y699184D01*
X471645Y697637D01*
X473666Y696800D01*
X475854D01*
X477876Y697637D01*
X479423Y699184D01*
X480260Y701206D01*
Y703394D01*
X479423Y705415D01*
X477876Y706963D01*
X475854Y707800D01*
D02*
G37*
G36*
X382514D02*
X380326D01*
X378304Y706963D01*
X376757Y705415D01*
X375920Y703394D01*
Y701206D01*
X376757Y699184D01*
X378304Y697637D01*
X380326Y696800D01*
X382514D01*
X384535Y697637D01*
X386083Y699184D01*
X386920Y701206D01*
Y703394D01*
X386083Y705415D01*
X384535Y706963D01*
X382514Y707800D01*
D02*
G37*
G36*
X289174D02*
X286986D01*
X284965Y706963D01*
X283417Y705415D01*
X282580Y703394D01*
Y701206D01*
X283417Y699184D01*
X284965Y697637D01*
X286986Y696800D01*
X289174D01*
X291196Y697637D01*
X292743Y699184D01*
X293580Y701206D01*
Y703394D01*
X292743Y705415D01*
X291196Y706963D01*
X289174Y707800D01*
D02*
G37*
G36*
X195834D02*
X193646D01*
X191625Y706963D01*
X190077Y705415D01*
X189240Y703394D01*
Y701206D01*
X190077Y699184D01*
X191625Y697637D01*
X193646Y696800D01*
X195834D01*
X197855Y697637D01*
X199403Y699184D01*
X200240Y701206D01*
Y703394D01*
X199403Y705415D01*
X197855Y706963D01*
X195834Y707800D01*
D02*
G37*
G36*
X102494D02*
X100306D01*
X98285Y706963D01*
X96737Y705415D01*
X95900Y703394D01*
Y701206D01*
X96737Y699184D01*
X98285Y697637D01*
X100306Y696800D01*
X102494D01*
X104515Y697637D01*
X106063Y699184D01*
X106900Y701206D01*
Y703394D01*
X106063Y705415D01*
X104515Y706963D01*
X102494Y707800D01*
D02*
G37*
G36*
X701735Y701907D02*
X700343D01*
X699056Y701375D01*
X698072Y700390D01*
X697539Y699104D01*
Y697711D01*
X698072Y696425D01*
X699056Y695440D01*
X700343Y694907D01*
X701735D01*
X703021Y695440D01*
X704006Y696425D01*
X704539Y697711D01*
Y699104D01*
X704006Y700390D01*
X703021Y701375D01*
X701735Y701907D01*
D02*
G37*
G36*
X755076Y693580D02*
X753684D01*
X752397Y693047D01*
X751413Y692063D01*
X750880Y690776D01*
Y689384D01*
X751413Y688097D01*
X752397Y687113D01*
X753684Y686580D01*
X755076D01*
X756363Y687113D01*
X757347Y688097D01*
X757880Y689384D01*
Y690776D01*
X757347Y692063D01*
X756363Y693047D01*
X755076Y693580D01*
D02*
G37*
G36*
X667326Y690570D02*
X665934D01*
X664647Y690037D01*
X663663Y689053D01*
X663130Y687766D01*
Y686532D01*
X662754Y686044D01*
X662121Y685490D01*
X661139D01*
X660506Y686044D01*
X660130Y686532D01*
Y687766D01*
X659597Y689053D01*
X658613Y690037D01*
X657326Y690570D01*
X655934D01*
X654647Y690037D01*
X653663Y689053D01*
X653130Y687766D01*
Y686532D01*
X652754Y686044D01*
X652121Y685490D01*
X651139D01*
X650506Y686044D01*
X650130Y686532D01*
Y687766D01*
X649597Y689053D01*
X648613Y690037D01*
X647326Y690570D01*
X645934D01*
X644647Y690037D01*
X643663Y689053D01*
X643130Y687766D01*
Y686374D01*
X643663Y685087D01*
X644647Y684103D01*
X645934Y683570D01*
X647121D01*
X647754Y683016D01*
X648130Y682528D01*
Y681294D01*
X648663Y680007D01*
X649647Y679023D01*
X650934Y678490D01*
X652326D01*
X653613Y679023D01*
X654597Y680007D01*
X655130Y681294D01*
Y682528D01*
X655506Y683016D01*
X656139Y683570D01*
X657121D01*
X657754Y683016D01*
X658130Y682528D01*
Y681294D01*
X658663Y680007D01*
X659647Y679023D01*
X660934Y678490D01*
X662326D01*
X663613Y679023D01*
X664597Y680007D01*
X665130Y681294D01*
Y682528D01*
X665506Y683016D01*
X666139Y683570D01*
X667326D01*
X668613Y684103D01*
X669597Y685087D01*
X670130Y686374D01*
Y687766D01*
X669597Y689053D01*
X668613Y690037D01*
X667326Y690570D01*
D02*
G37*
G36*
X761426Y681080D02*
X760034D01*
X758747Y680547D01*
X757763Y679563D01*
X757230Y678276D01*
Y676884D01*
X757763Y675597D01*
X758747Y674613D01*
X760034Y674080D01*
X761426D01*
X762713Y674613D01*
X763697Y675597D01*
X764230Y676884D01*
Y678276D01*
X763697Y679563D01*
X762713Y680547D01*
X761426Y681080D01*
D02*
G37*
G36*
X647326Y675720D02*
X645934D01*
X644647Y675187D01*
X643663Y674203D01*
X643130Y672916D01*
Y671524D01*
X643663Y670237D01*
X644647Y669253D01*
X645934Y668720D01*
X647326D01*
X648613Y669253D01*
X649597Y670237D01*
X650130Y671524D01*
Y672916D01*
X649597Y674203D01*
X648613Y675187D01*
X647326Y675720D01*
D02*
G37*
G36*
X758886Y668580D02*
X757494D01*
X756207Y668047D01*
X755223Y667063D01*
X754690Y665776D01*
Y664384D01*
X755223Y663097D01*
X756207Y662113D01*
X757494Y661580D01*
X758886D01*
X760173Y662113D01*
X761157Y663097D01*
X761690Y664384D01*
Y665776D01*
X761157Y667063D01*
X760173Y668047D01*
X758886Y668580D01*
D02*
G37*
G36*
X719517Y667710D02*
X718125D01*
X716838Y667177D01*
X715854Y666193D01*
X715321Y664906D01*
Y663514D01*
X715854Y662227D01*
X716838Y661243D01*
X718125Y660710D01*
X719517D01*
X720803Y661243D01*
X721788Y662227D01*
X722321Y663514D01*
Y664906D01*
X721788Y666193D01*
X720803Y667177D01*
X719517Y667710D01*
D02*
G37*
G36*
X630616Y659000D02*
X629224D01*
X627937Y658467D01*
X626953Y657483D01*
X626420Y656196D01*
Y654804D01*
X626953Y653517D01*
X627937Y652533D01*
X629224Y652000D01*
X630616D01*
X631903Y652533D01*
X632887Y653517D01*
X633420Y654804D01*
Y656196D01*
X632887Y657483D01*
X631903Y658467D01*
X630616Y659000D01*
D02*
G37*
G36*
X569194Y661200D02*
X567006D01*
X564985Y660363D01*
X563437Y658815D01*
X562600Y656794D01*
Y654606D01*
X563437Y652584D01*
X564985Y651037D01*
X567006Y650200D01*
X569194D01*
X571216Y651037D01*
X572763Y652584D01*
X573600Y654606D01*
Y656794D01*
X572763Y658815D01*
X571216Y660363D01*
X569194Y661200D01*
D02*
G37*
G36*
X475854D02*
X473666D01*
X471645Y660363D01*
X470097Y658815D01*
X469260Y656794D01*
Y654606D01*
X470097Y652584D01*
X471645Y651037D01*
X473666Y650200D01*
X475854D01*
X477876Y651037D01*
X479423Y652584D01*
X480260Y654606D01*
Y656794D01*
X479423Y658815D01*
X477876Y660363D01*
X475854Y661200D01*
D02*
G37*
G36*
X382514D02*
X380326D01*
X378304Y660363D01*
X376757Y658815D01*
X375920Y656794D01*
Y654606D01*
X376757Y652584D01*
X378304Y651037D01*
X380326Y650200D01*
X382514D01*
X384535Y651037D01*
X386083Y652584D01*
X386920Y654606D01*
Y656794D01*
X386083Y658815D01*
X384535Y660363D01*
X382514Y661200D01*
D02*
G37*
G36*
X289174D02*
X286986D01*
X284965Y660363D01*
X283417Y658815D01*
X282580Y656794D01*
Y654606D01*
X283417Y652584D01*
X284965Y651037D01*
X286986Y650200D01*
X289174D01*
X291196Y651037D01*
X292743Y652584D01*
X293580Y654606D01*
Y656794D01*
X292743Y658815D01*
X291196Y660363D01*
X289174Y661200D01*
D02*
G37*
G36*
X195834D02*
X193646D01*
X191625Y660363D01*
X190077Y658815D01*
X189240Y656794D01*
Y654606D01*
X190077Y652584D01*
X191625Y651037D01*
X193646Y650200D01*
X195834D01*
X197855Y651037D01*
X199403Y652584D01*
X200240Y654606D01*
Y656794D01*
X199403Y658815D01*
X197855Y660363D01*
X195834Y661200D01*
D02*
G37*
G36*
X102494D02*
X100306D01*
X98285Y660363D01*
X96737Y658815D01*
X95900Y656794D01*
Y654606D01*
X96737Y652584D01*
X98285Y651037D01*
X100306Y650200D01*
X102494D01*
X104515Y651037D01*
X106063Y652584D01*
X106900Y654606D01*
Y656794D01*
X106063Y658815D01*
X104515Y660363D01*
X102494Y661200D01*
D02*
G37*
G36*
X622996Y654000D02*
X621604D01*
X620317Y653467D01*
X619333Y652483D01*
X618800Y651196D01*
Y649804D01*
X619333Y648517D01*
X620317Y647533D01*
X621604Y647000D01*
X622996D01*
X624283Y647533D01*
X625267Y648517D01*
X625800Y649804D01*
Y651196D01*
X625267Y652483D01*
X624283Y653467D01*
X622996Y654000D01*
D02*
G37*
G36*
X691576Y649000D02*
X690184D01*
X688897Y648467D01*
X687913Y647483D01*
X687380Y646196D01*
Y644804D01*
X687402Y644751D01*
X686430Y643779D01*
X685896Y644000D01*
X684504D01*
X683218Y643467D01*
X682233Y642483D01*
X681700Y641196D01*
Y639804D01*
X682233Y638517D01*
X683218Y637533D01*
X684504Y637000D01*
X685896D01*
X687183Y637533D01*
X688167Y638517D01*
X688700Y639804D01*
Y641196D01*
X688678Y641249D01*
X689650Y642221D01*
X690184Y642000D01*
X691576D01*
X692863Y642533D01*
X693847Y643517D01*
X694380Y644804D01*
Y646196D01*
X693847Y647483D01*
X692863Y648467D01*
X691576Y649000D01*
D02*
G37*
G36*
X630616Y646500D02*
X629224D01*
X627937Y645967D01*
X626953Y644983D01*
X626420Y643696D01*
Y642304D01*
X626953Y641017D01*
X627937Y640033D01*
X629224Y639500D01*
X630616D01*
X631903Y640033D01*
X632887Y641017D01*
X633420Y642304D01*
Y643696D01*
X632887Y644983D01*
X631903Y645967D01*
X630616Y646500D01*
D02*
G37*
G36*
X581894Y648500D02*
X579706D01*
X577685Y647663D01*
X576137Y646115D01*
X575300Y644094D01*
Y641906D01*
X576137Y639884D01*
X577685Y638337D01*
X579706Y637500D01*
X581894D01*
X583915Y638337D01*
X585463Y639884D01*
X586300Y641906D01*
Y644094D01*
X585463Y646115D01*
X583915Y647663D01*
X581894Y648500D01*
D02*
G37*
G36*
X556494D02*
X554306D01*
X552285Y647663D01*
X550737Y646115D01*
X549900Y644094D01*
Y641906D01*
X550737Y639884D01*
X552285Y638337D01*
X554306Y637500D01*
X556494D01*
X558516Y638337D01*
X560063Y639884D01*
X560900Y641906D01*
Y644094D01*
X560063Y646115D01*
X558516Y647663D01*
X556494Y648500D01*
D02*
G37*
G36*
X488554D02*
X486366D01*
X484344Y647663D01*
X482797Y646115D01*
X481960Y644094D01*
Y641906D01*
X482797Y639884D01*
X484344Y638337D01*
X486366Y637500D01*
X488554D01*
X490575Y638337D01*
X492123Y639884D01*
X492960Y641906D01*
Y644094D01*
X492123Y646115D01*
X490575Y647663D01*
X488554Y648500D01*
D02*
G37*
G36*
X463154D02*
X460966D01*
X458945Y647663D01*
X457397Y646115D01*
X456560Y644094D01*
Y641906D01*
X457397Y639884D01*
X458945Y638337D01*
X460966Y637500D01*
X463154D01*
X465176Y638337D01*
X466723Y639884D01*
X467560Y641906D01*
Y644094D01*
X466723Y646115D01*
X465176Y647663D01*
X463154Y648500D01*
D02*
G37*
G36*
X395214D02*
X393026D01*
X391004Y647663D01*
X389457Y646115D01*
X388620Y644094D01*
Y641906D01*
X389457Y639884D01*
X391004Y638337D01*
X393026Y637500D01*
X395214D01*
X397235Y638337D01*
X398783Y639884D01*
X399620Y641906D01*
Y644094D01*
X398783Y646115D01*
X397235Y647663D01*
X395214Y648500D01*
D02*
G37*
G36*
X369814D02*
X367626D01*
X365605Y647663D01*
X364057Y646115D01*
X363220Y644094D01*
Y641906D01*
X364057Y639884D01*
X365605Y638337D01*
X367626Y637500D01*
X369814D01*
X371836Y638337D01*
X373383Y639884D01*
X374220Y641906D01*
Y644094D01*
X373383Y646115D01*
X371836Y647663D01*
X369814Y648500D01*
D02*
G37*
G36*
X301874D02*
X299686D01*
X297665Y647663D01*
X296117Y646115D01*
X295280Y644094D01*
Y641906D01*
X296117Y639884D01*
X297665Y638337D01*
X299686Y637500D01*
X301874D01*
X303895Y638337D01*
X305443Y639884D01*
X306280Y641906D01*
Y644094D01*
X305443Y646115D01*
X303895Y647663D01*
X301874Y648500D01*
D02*
G37*
G36*
X276474D02*
X274286D01*
X272264Y647663D01*
X270717Y646115D01*
X269880Y644094D01*
Y641906D01*
X270717Y639884D01*
X272264Y638337D01*
X274286Y637500D01*
X276474D01*
X278496Y638337D01*
X280043Y639884D01*
X280880Y641906D01*
Y644094D01*
X280043Y646115D01*
X278496Y647663D01*
X276474Y648500D01*
D02*
G37*
G36*
X208534D02*
X206346D01*
X204324Y647663D01*
X202777Y646115D01*
X201940Y644094D01*
Y641906D01*
X202777Y639884D01*
X204324Y638337D01*
X206346Y637500D01*
X208534D01*
X210555Y638337D01*
X212103Y639884D01*
X212940Y641906D01*
Y644094D01*
X212103Y646115D01*
X210555Y647663D01*
X208534Y648500D01*
D02*
G37*
G36*
X183134D02*
X180946D01*
X178925Y647663D01*
X177377Y646115D01*
X176540Y644094D01*
Y641906D01*
X177377Y639884D01*
X178925Y638337D01*
X180946Y637500D01*
X183134D01*
X185156Y638337D01*
X186703Y639884D01*
X187540Y641906D01*
Y644094D01*
X186703Y646115D01*
X185156Y647663D01*
X183134Y648500D01*
D02*
G37*
G36*
X115194D02*
X113006D01*
X110984Y647663D01*
X109437Y646115D01*
X108600Y644094D01*
Y641906D01*
X109437Y639884D01*
X110984Y638337D01*
X113006Y637500D01*
X115194D01*
X117215Y638337D01*
X118763Y639884D01*
X119600Y641906D01*
Y644094D01*
X118763Y646115D01*
X117215Y647663D01*
X115194Y648500D01*
D02*
G37*
G36*
X89794D02*
X87606D01*
X85584Y647663D01*
X84037Y646115D01*
X83200Y644094D01*
Y641906D01*
X84037Y639884D01*
X85584Y638337D01*
X87606Y637500D01*
X89794D01*
X91816Y638337D01*
X93363Y639884D01*
X94200Y641906D01*
Y644094D01*
X93363Y646115D01*
X91816Y647663D01*
X89794Y648500D01*
D02*
G37*
G36*
X622996Y639000D02*
X621604D01*
X620317Y638467D01*
X619333Y637482D01*
X618800Y636196D01*
Y634804D01*
X619333Y633517D01*
X620317Y632533D01*
X621604Y632000D01*
X622996D01*
X624283Y632533D01*
X625267Y633517D01*
X625800Y634804D01*
Y636196D01*
X625267Y637482D01*
X624283Y638467D01*
X622996Y639000D01*
D02*
G37*
G36*
X725866Y637500D02*
X724474D01*
X723187Y636967D01*
X722203Y635983D01*
X721670Y634696D01*
Y633304D01*
X722203Y632017D01*
X723187Y631033D01*
X724474Y630500D01*
X725866D01*
X727153Y631033D01*
X728137Y632017D01*
X728670Y633304D01*
Y634696D01*
X728137Y635983D01*
X727153Y636967D01*
X725866Y637500D01*
D02*
G37*
G36*
X630616Y634000D02*
X629224D01*
X627937Y633467D01*
X626953Y632482D01*
X626420Y631196D01*
Y629804D01*
X626953Y628517D01*
X627937Y627533D01*
X629224Y627000D01*
X630616D01*
X631903Y627533D01*
X632887Y628517D01*
X633420Y629804D01*
Y631196D01*
X632887Y632482D01*
X631903Y633467D01*
X630616Y634000D01*
D02*
G37*
G36*
X569194Y635800D02*
X567006D01*
X564985Y634963D01*
X563437Y633415D01*
X562600Y631394D01*
Y629206D01*
X563437Y627184D01*
X564985Y625637D01*
X567006Y624800D01*
X569194D01*
X571216Y625637D01*
X572763Y627184D01*
X573600Y629206D01*
Y631394D01*
X572763Y633415D01*
X571216Y634963D01*
X569194Y635800D01*
D02*
G37*
G36*
X475854D02*
X473666D01*
X471645Y634963D01*
X470097Y633415D01*
X469260Y631394D01*
Y629206D01*
X470097Y627184D01*
X471645Y625637D01*
X473666Y624800D01*
X475854D01*
X477876Y625637D01*
X479423Y627184D01*
X480260Y629206D01*
Y631394D01*
X479423Y633415D01*
X477876Y634963D01*
X475854Y635800D01*
D02*
G37*
G36*
X382514D02*
X380326D01*
X378304Y634963D01*
X376757Y633415D01*
X375920Y631394D01*
Y629206D01*
X376757Y627184D01*
X378304Y625637D01*
X380326Y624800D01*
X382514D01*
X384535Y625637D01*
X386083Y627184D01*
X386920Y629206D01*
Y631394D01*
X386083Y633415D01*
X384535Y634963D01*
X382514Y635800D01*
D02*
G37*
G36*
X289174D02*
X286986D01*
X284965Y634963D01*
X283417Y633415D01*
X282580Y631394D01*
Y629206D01*
X283417Y627184D01*
X284965Y625637D01*
X286986Y624800D01*
X289174D01*
X291196Y625637D01*
X292743Y627184D01*
X293580Y629206D01*
Y631394D01*
X292743Y633415D01*
X291196Y634963D01*
X289174Y635800D01*
D02*
G37*
G36*
X195834D02*
X193646D01*
X191625Y634963D01*
X190077Y633415D01*
X189240Y631394D01*
Y629206D01*
X190077Y627184D01*
X191625Y625637D01*
X193646Y624800D01*
X195834D01*
X197855Y625637D01*
X199403Y627184D01*
X200240Y629206D01*
Y631394D01*
X199403Y633415D01*
X197855Y634963D01*
X195834Y635800D01*
D02*
G37*
G36*
X102494D02*
X100306D01*
X98285Y634963D01*
X96737Y633415D01*
X95900Y631394D01*
Y629206D01*
X96737Y627184D01*
X98285Y625637D01*
X100306Y624800D01*
X102494D01*
X104515Y625637D01*
X106063Y627184D01*
X106900Y629206D01*
Y631394D01*
X106063Y633415D01*
X104515Y634963D01*
X102494Y635800D01*
D02*
G37*
G36*
X701735Y630067D02*
X700343D01*
X699056Y629534D01*
X698072Y628550D01*
X697539Y627263D01*
Y625871D01*
X698072Y624584D01*
X699056Y623600D01*
X700343Y623067D01*
X701735D01*
X703021Y623600D01*
X704006Y624584D01*
X704539Y625871D01*
Y627263D01*
X704006Y628550D01*
X703021Y629534D01*
X701735Y630067D01*
D02*
G37*
G36*
X667326Y618570D02*
X665934D01*
X664647Y618037D01*
X663663Y617053D01*
X663130Y615766D01*
Y614532D01*
X662754Y614044D01*
X662121Y613490D01*
X661139D01*
X660506Y614044D01*
X660130Y614532D01*
Y615766D01*
X659597Y617053D01*
X658613Y618037D01*
X657326Y618570D01*
X655934D01*
X654647Y618037D01*
X653663Y617053D01*
X653130Y615766D01*
Y614532D01*
X652754Y614044D01*
X652121Y613490D01*
X651139D01*
X650506Y614044D01*
X650130Y614532D01*
Y615766D01*
X649597Y617053D01*
X648613Y618037D01*
X647326Y618570D01*
X645934D01*
X644647Y618037D01*
X643663Y617053D01*
X643130Y615766D01*
Y614374D01*
X643663Y613087D01*
X644647Y612103D01*
X645934Y611570D01*
X647121D01*
X647754Y611016D01*
X648130Y610528D01*
Y609294D01*
X648663Y608007D01*
X649647Y607023D01*
X650934Y606490D01*
X652326D01*
X653613Y607023D01*
X654597Y608007D01*
X655130Y609294D01*
Y610528D01*
X655506Y611016D01*
X656139Y611570D01*
X657121D01*
X657754Y611016D01*
X658130Y610528D01*
Y609294D01*
X658663Y608007D01*
X659647Y607023D01*
X660934Y606490D01*
X662326D01*
X663613Y607023D01*
X664597Y608007D01*
X665130Y609294D01*
Y610528D01*
X665506Y611016D01*
X666139Y611570D01*
X667326D01*
X668613Y612103D01*
X669597Y613087D01*
X670130Y614374D01*
Y615766D01*
X669597Y617053D01*
X668613Y618037D01*
X667326Y618570D01*
D02*
G37*
G36*
X737296Y616910D02*
X735904D01*
X734617Y616377D01*
X733633Y615393D01*
X733100Y614106D01*
Y612714D01*
X733633Y611427D01*
X734617Y610443D01*
X735904Y609910D01*
X737296D01*
X738583Y610443D01*
X739567Y611427D01*
X740100Y612714D01*
Y614106D01*
X739567Y615393D01*
X738583Y616377D01*
X737296Y616910D01*
D02*
G37*
G36*
X647326Y603720D02*
X645934D01*
X644647Y603187D01*
X643663Y602203D01*
X643130Y600916D01*
Y599524D01*
X643663Y598237D01*
X644647Y597253D01*
X645934Y596720D01*
X647326D01*
X648613Y597253D01*
X649597Y598237D01*
X650130Y599524D01*
Y600916D01*
X649597Y602203D01*
X648613Y603187D01*
X647326Y603720D01*
D02*
G37*
G36*
X710626Y595320D02*
X709234D01*
X707947Y594787D01*
X706963Y593803D01*
X706430Y592516D01*
Y591124D01*
X706963Y589837D01*
X707947Y588853D01*
X709234Y588320D01*
X710626D01*
X711913Y588853D01*
X712897Y589837D01*
X713430Y591124D01*
Y592516D01*
X712897Y593803D01*
X711913Y594787D01*
X710626Y595320D01*
D02*
G37*
G36*
X630616Y587000D02*
X629224D01*
X627937Y586467D01*
X626953Y585482D01*
X626420Y584196D01*
Y582804D01*
X626953Y581517D01*
X627937Y580533D01*
X629224Y580000D01*
X630616D01*
X631903Y580533D01*
X632887Y581517D01*
X633420Y582804D01*
Y584196D01*
X632887Y585482D01*
X631903Y586467D01*
X630616Y587000D01*
D02*
G37*
G36*
X569194Y589200D02*
X567006D01*
X564985Y588363D01*
X563437Y586815D01*
X562600Y584794D01*
Y582606D01*
X563437Y580584D01*
X564985Y579037D01*
X567006Y578200D01*
X569194D01*
X571216Y579037D01*
X572763Y580584D01*
X573600Y582606D01*
Y584794D01*
X572763Y586815D01*
X571216Y588363D01*
X569194Y589200D01*
D02*
G37*
G36*
X475854D02*
X473666D01*
X471645Y588363D01*
X470097Y586815D01*
X469260Y584794D01*
Y582606D01*
X470097Y580584D01*
X471645Y579037D01*
X473666Y578200D01*
X475854D01*
X477876Y579037D01*
X479423Y580584D01*
X480260Y582606D01*
Y584794D01*
X479423Y586815D01*
X477876Y588363D01*
X475854Y589200D01*
D02*
G37*
G36*
X382514D02*
X380326D01*
X378304Y588363D01*
X376757Y586815D01*
X375920Y584794D01*
Y582606D01*
X376757Y580584D01*
X378304Y579037D01*
X380326Y578200D01*
X382514D01*
X384535Y579037D01*
X386083Y580584D01*
X386920Y582606D01*
Y584794D01*
X386083Y586815D01*
X384535Y588363D01*
X382514Y589200D01*
D02*
G37*
G36*
X289174D02*
X286986D01*
X284965Y588363D01*
X283417Y586815D01*
X282580Y584794D01*
Y582606D01*
X283417Y580584D01*
X284965Y579037D01*
X286986Y578200D01*
X289174D01*
X291196Y579037D01*
X292743Y580584D01*
X293580Y582606D01*
Y584794D01*
X292743Y586815D01*
X291196Y588363D01*
X289174Y589200D01*
D02*
G37*
G36*
X195834D02*
X193646D01*
X191625Y588363D01*
X190077Y586815D01*
X189240Y584794D01*
Y582606D01*
X190077Y580584D01*
X191625Y579037D01*
X193646Y578200D01*
X195834D01*
X197855Y579037D01*
X199403Y580584D01*
X200240Y582606D01*
Y584794D01*
X199403Y586815D01*
X197855Y588363D01*
X195834Y589200D01*
D02*
G37*
G36*
X102494D02*
X100306D01*
X98285Y588363D01*
X96737Y586815D01*
X95900Y584794D01*
Y582606D01*
X96737Y580584D01*
X98285Y579037D01*
X100306Y578200D01*
X102494D01*
X104515Y579037D01*
X106063Y580584D01*
X106900Y582606D01*
Y584794D01*
X106063Y586815D01*
X104515Y588363D01*
X102494Y589200D01*
D02*
G37*
G36*
X622996Y582000D02*
X621604D01*
X620317Y581467D01*
X619333Y580483D01*
X618800Y579196D01*
Y577804D01*
X619333Y576517D01*
X620317Y575533D01*
X621604Y575000D01*
X622996D01*
X624283Y575533D01*
X625267Y576517D01*
X625800Y577804D01*
Y579196D01*
X625267Y580483D01*
X624283Y581467D01*
X622996Y582000D01*
D02*
G37*
G36*
X691576Y577000D02*
X690184D01*
X688897Y576467D01*
X687913Y575482D01*
X687380Y574196D01*
Y572804D01*
X687402Y572751D01*
X686430Y571779D01*
X685896Y572000D01*
X684504D01*
X683218Y571467D01*
X682233Y570483D01*
X681700Y569196D01*
Y567804D01*
X682233Y566517D01*
X683218Y565533D01*
X684504Y565000D01*
X685896D01*
X687183Y565533D01*
X688167Y566517D01*
X688700Y567804D01*
Y569196D01*
X688678Y569249D01*
X689650Y570221D01*
X690184Y570000D01*
X691576D01*
X692863Y570533D01*
X693847Y571517D01*
X694380Y572804D01*
Y574196D01*
X693847Y575482D01*
X692863Y576467D01*
X691576Y577000D01*
D02*
G37*
G36*
X630616Y574500D02*
X629224D01*
X627937Y573967D01*
X626953Y572982D01*
X626420Y571696D01*
Y570304D01*
X626953Y569017D01*
X627937Y568033D01*
X629224Y567500D01*
X630616D01*
X631903Y568033D01*
X632887Y569017D01*
X633420Y570304D01*
Y571696D01*
X632887Y572982D01*
X631903Y573967D01*
X630616Y574500D01*
D02*
G37*
G36*
X581894Y576500D02*
X579706D01*
X577685Y575663D01*
X576137Y574115D01*
X575300Y572094D01*
Y569906D01*
X576137Y567884D01*
X577685Y566337D01*
X579706Y565500D01*
X581894D01*
X583915Y566337D01*
X585463Y567884D01*
X586300Y569906D01*
Y572094D01*
X585463Y574115D01*
X583915Y575663D01*
X581894Y576500D01*
D02*
G37*
G36*
X556494D02*
X554306D01*
X552285Y575663D01*
X550737Y574115D01*
X549900Y572094D01*
Y569906D01*
X550737Y567884D01*
X552285Y566337D01*
X554306Y565500D01*
X556494D01*
X558516Y566337D01*
X560063Y567884D01*
X560900Y569906D01*
Y572094D01*
X560063Y574115D01*
X558516Y575663D01*
X556494Y576500D01*
D02*
G37*
G36*
X488554D02*
X486366D01*
X484344Y575663D01*
X482797Y574115D01*
X481960Y572094D01*
Y569906D01*
X482797Y567884D01*
X484344Y566337D01*
X486366Y565500D01*
X488554D01*
X490575Y566337D01*
X492123Y567884D01*
X492960Y569906D01*
Y572094D01*
X492123Y574115D01*
X490575Y575663D01*
X488554Y576500D01*
D02*
G37*
G36*
X463154D02*
X460966D01*
X458945Y575663D01*
X457397Y574115D01*
X456560Y572094D01*
Y569906D01*
X457397Y567884D01*
X458945Y566337D01*
X460966Y565500D01*
X463154D01*
X465176Y566337D01*
X466723Y567884D01*
X467560Y569906D01*
Y572094D01*
X466723Y574115D01*
X465176Y575663D01*
X463154Y576500D01*
D02*
G37*
G36*
X395214D02*
X393026D01*
X391004Y575663D01*
X389457Y574115D01*
X388620Y572094D01*
Y569906D01*
X389457Y567884D01*
X391004Y566337D01*
X393026Y565500D01*
X395214D01*
X397235Y566337D01*
X398783Y567884D01*
X399620Y569906D01*
Y572094D01*
X398783Y574115D01*
X397235Y575663D01*
X395214Y576500D01*
D02*
G37*
G36*
X369814D02*
X367626D01*
X365605Y575663D01*
X364057Y574115D01*
X363220Y572094D01*
Y569906D01*
X364057Y567884D01*
X365605Y566337D01*
X367626Y565500D01*
X369814D01*
X371836Y566337D01*
X373383Y567884D01*
X374220Y569906D01*
Y572094D01*
X373383Y574115D01*
X371836Y575663D01*
X369814Y576500D01*
D02*
G37*
G36*
X301874D02*
X299686D01*
X297665Y575663D01*
X296117Y574115D01*
X295280Y572094D01*
Y569906D01*
X296117Y567884D01*
X297665Y566337D01*
X299686Y565500D01*
X301874D01*
X303895Y566337D01*
X305443Y567884D01*
X306280Y569906D01*
Y572094D01*
X305443Y574115D01*
X303895Y575663D01*
X301874Y576500D01*
D02*
G37*
G36*
X276474D02*
X274286D01*
X272264Y575663D01*
X270717Y574115D01*
X269880Y572094D01*
Y569906D01*
X270717Y567884D01*
X272264Y566337D01*
X274286Y565500D01*
X276474D01*
X278496Y566337D01*
X280043Y567884D01*
X280880Y569906D01*
Y572094D01*
X280043Y574115D01*
X278496Y575663D01*
X276474Y576500D01*
D02*
G37*
G36*
X208534D02*
X206346D01*
X204324Y575663D01*
X202777Y574115D01*
X201940Y572094D01*
Y569906D01*
X202777Y567884D01*
X204324Y566337D01*
X206346Y565500D01*
X208534D01*
X210555Y566337D01*
X212103Y567884D01*
X212940Y569906D01*
Y572094D01*
X212103Y574115D01*
X210555Y575663D01*
X208534Y576500D01*
D02*
G37*
G36*
X183134D02*
X180946D01*
X178925Y575663D01*
X177377Y574115D01*
X176540Y572094D01*
Y569906D01*
X177377Y567884D01*
X178925Y566337D01*
X180946Y565500D01*
X183134D01*
X185156Y566337D01*
X186703Y567884D01*
X187540Y569906D01*
Y572094D01*
X186703Y574115D01*
X185156Y575663D01*
X183134Y576500D01*
D02*
G37*
G36*
X115194D02*
X113006D01*
X110984Y575663D01*
X109437Y574115D01*
X108600Y572094D01*
Y569906D01*
X109437Y567884D01*
X110984Y566337D01*
X113006Y565500D01*
X115194D01*
X117215Y566337D01*
X118763Y567884D01*
X119600Y569906D01*
Y572094D01*
X118763Y574115D01*
X117215Y575663D01*
X115194Y576500D01*
D02*
G37*
G36*
X89794D02*
X87606D01*
X85584Y575663D01*
X84037Y574115D01*
X83200Y572094D01*
Y569906D01*
X84037Y567884D01*
X85584Y566337D01*
X87606Y565500D01*
X89794D01*
X91816Y566337D01*
X93363Y567884D01*
X94200Y569906D01*
Y572094D01*
X93363Y574115D01*
X91816Y575663D01*
X89794Y576500D01*
D02*
G37*
G36*
X622996Y567000D02*
X621604D01*
X620317Y566467D01*
X619333Y565482D01*
X618800Y564196D01*
Y562804D01*
X619333Y561517D01*
X620317Y560533D01*
X621604Y560000D01*
X622996D01*
X624283Y560533D01*
X625267Y561517D01*
X625800Y562804D01*
Y564196D01*
X625267Y565482D01*
X624283Y566467D01*
X622996Y567000D01*
D02*
G37*
G36*
X725866Y565500D02*
X724474D01*
X723187Y564967D01*
X722203Y563983D01*
X721670Y562696D01*
Y561304D01*
X722203Y560017D01*
X723187Y559033D01*
X724474Y558500D01*
X725866D01*
X727153Y559033D01*
X728137Y560017D01*
X728670Y561304D01*
Y562696D01*
X728137Y563983D01*
X727153Y564967D01*
X725866Y565500D01*
D02*
G37*
G36*
X630616Y562000D02*
X629224D01*
X627937Y561467D01*
X626953Y560482D01*
X626420Y559196D01*
Y557804D01*
X626953Y556517D01*
X627937Y555533D01*
X629224Y555000D01*
X630616D01*
X631903Y555533D01*
X632887Y556517D01*
X633420Y557804D01*
Y559196D01*
X632887Y560482D01*
X631903Y561467D01*
X630616Y562000D01*
D02*
G37*
G36*
X569194Y563800D02*
X567006D01*
X564985Y562963D01*
X563437Y561415D01*
X562600Y559394D01*
Y557206D01*
X563437Y555185D01*
X564985Y553637D01*
X567006Y552800D01*
X569194D01*
X571216Y553637D01*
X572763Y555185D01*
X573600Y557206D01*
Y559394D01*
X572763Y561415D01*
X571216Y562963D01*
X569194Y563800D01*
D02*
G37*
G36*
X475854D02*
X473666D01*
X471645Y562963D01*
X470097Y561415D01*
X469260Y559394D01*
Y557206D01*
X470097Y555185D01*
X471645Y553637D01*
X473666Y552800D01*
X475854D01*
X477876Y553637D01*
X479423Y555185D01*
X480260Y557206D01*
Y559394D01*
X479423Y561415D01*
X477876Y562963D01*
X475854Y563800D01*
D02*
G37*
G36*
X382514D02*
X380326D01*
X378304Y562963D01*
X376757Y561415D01*
X375920Y559394D01*
Y557206D01*
X376757Y555185D01*
X378304Y553637D01*
X380326Y552800D01*
X382514D01*
X384535Y553637D01*
X386083Y555185D01*
X386920Y557206D01*
Y559394D01*
X386083Y561415D01*
X384535Y562963D01*
X382514Y563800D01*
D02*
G37*
G36*
X289174D02*
X286986D01*
X284965Y562963D01*
X283417Y561415D01*
X282580Y559394D01*
Y557206D01*
X283417Y555185D01*
X284965Y553637D01*
X286986Y552800D01*
X289174D01*
X291196Y553637D01*
X292743Y555185D01*
X293580Y557206D01*
Y559394D01*
X292743Y561415D01*
X291196Y562963D01*
X289174Y563800D01*
D02*
G37*
G36*
X195834D02*
X193646D01*
X191625Y562963D01*
X190077Y561415D01*
X189240Y559394D01*
Y557206D01*
X190077Y555185D01*
X191625Y553637D01*
X193646Y552800D01*
X195834D01*
X197855Y553637D01*
X199403Y555185D01*
X200240Y557206D01*
Y559394D01*
X199403Y561415D01*
X197855Y562963D01*
X195834Y563800D01*
D02*
G37*
G36*
X102494D02*
X100306D01*
X98285Y562963D01*
X96737Y561415D01*
X95900Y559394D01*
Y557206D01*
X96737Y555185D01*
X98285Y553637D01*
X100306Y552800D01*
X102494D01*
X104515Y553637D01*
X106063Y555185D01*
X106900Y557206D01*
Y559394D01*
X106063Y561415D01*
X104515Y562963D01*
X102494Y563800D01*
D02*
G37*
G36*
X701735Y558227D02*
X700343D01*
X699056Y557694D01*
X698072Y556709D01*
X697539Y555423D01*
Y554030D01*
X698072Y552744D01*
X699056Y551759D01*
X700343Y551227D01*
X701735D01*
X703021Y551759D01*
X704006Y552744D01*
X704539Y554030D01*
Y555423D01*
X704006Y556709D01*
X703021Y557694D01*
X701735Y558227D01*
D02*
G37*
G36*
X758276Y551530D02*
X756884D01*
X755597Y550997D01*
X754613Y550013D01*
X754080Y548726D01*
Y547334D01*
X754613Y546047D01*
X755597Y545063D01*
X756884Y544530D01*
X758276D01*
X759563Y545063D01*
X760547Y546047D01*
X761080Y547334D01*
Y548726D01*
X760547Y550013D01*
X759563Y550997D01*
X758276Y551530D01*
D02*
G37*
G36*
X667326Y546570D02*
X665934D01*
X664647Y546037D01*
X663663Y545053D01*
X663130Y543766D01*
Y542532D01*
X662754Y542044D01*
X662121Y541490D01*
X661139D01*
X660506Y542044D01*
X660130Y542532D01*
Y543766D01*
X659597Y545053D01*
X658613Y546037D01*
X657326Y546570D01*
X655934D01*
X654647Y546037D01*
X653663Y545053D01*
X653130Y543766D01*
Y542532D01*
X652754Y542044D01*
X652121Y541490D01*
X651139D01*
X650506Y542044D01*
X650130Y542532D01*
Y543766D01*
X649597Y545053D01*
X648613Y546037D01*
X647326Y546570D01*
X645934D01*
X644647Y546037D01*
X643663Y545053D01*
X643130Y543766D01*
Y542374D01*
X643663Y541087D01*
X644647Y540103D01*
X645934Y539570D01*
X647121D01*
X647754Y539016D01*
X648130Y538528D01*
Y537294D01*
X648663Y536007D01*
X649647Y535023D01*
X650934Y534490D01*
X652326D01*
X653613Y535023D01*
X654597Y536007D01*
X655130Y537294D01*
Y538528D01*
X655506Y539016D01*
X656139Y539570D01*
X657121D01*
X657754Y539016D01*
X658130Y538528D01*
Y537294D01*
X658663Y536007D01*
X659647Y535023D01*
X660934Y534490D01*
X662326D01*
X663613Y535023D01*
X664597Y536007D01*
X665130Y537294D01*
Y538528D01*
X665506Y539016D01*
X666139Y539570D01*
X667326D01*
X668613Y540103D01*
X669597Y541087D01*
X670130Y542374D01*
Y543766D01*
X669597Y545053D01*
X668613Y546037D01*
X667326Y546570D01*
D02*
G37*
G36*
X719517Y539440D02*
X718125D01*
X716838Y538907D01*
X715854Y537923D01*
X715321Y536636D01*
Y535244D01*
X715854Y533957D01*
X716838Y532973D01*
X718125Y532440D01*
X719517D01*
X720803Y532973D01*
X721788Y533957D01*
X722321Y535244D01*
Y536636D01*
X721788Y537923D01*
X720803Y538907D01*
X719517Y539440D01*
D02*
G37*
G36*
X647326Y531720D02*
X645934D01*
X644647Y531187D01*
X643663Y530203D01*
X643130Y528916D01*
Y527524D01*
X643663Y526237D01*
X644647Y525253D01*
X645934Y524720D01*
X647326D01*
X648613Y525253D01*
X649597Y526237D01*
X650130Y527524D01*
Y528916D01*
X649597Y530203D01*
X648613Y531187D01*
X647326Y531720D01*
D02*
G37*
G36*
X737296Y522930D02*
X735904D01*
X734617Y522397D01*
X733633Y521413D01*
X733100Y520126D01*
Y518734D01*
X733633Y517447D01*
X734617Y516463D01*
X735904Y515930D01*
X737296D01*
X738583Y516463D01*
X739567Y517447D01*
X740100Y518734D01*
Y520126D01*
X739567Y521413D01*
X738583Y522397D01*
X737296Y522930D01*
D02*
G37*
G36*
X767776Y519120D02*
X766384D01*
X765097Y518587D01*
X764113Y517603D01*
X763580Y516316D01*
Y514924D01*
X764113Y513637D01*
X765097Y512653D01*
X766384Y512120D01*
X767776D01*
X769063Y512653D01*
X770047Y513637D01*
X770580Y514924D01*
Y516316D01*
X770047Y517603D01*
X769063Y518587D01*
X767776Y519120D01*
D02*
G37*
G36*
X630616Y515000D02*
X629224D01*
X627937Y514467D01*
X626953Y513483D01*
X626420Y512196D01*
Y510804D01*
X626953Y509517D01*
X627937Y508533D01*
X629224Y508000D01*
X630616D01*
X631903Y508533D01*
X632887Y509517D01*
X633420Y510804D01*
Y512196D01*
X632887Y513483D01*
X631903Y514467D01*
X630616Y515000D01*
D02*
G37*
G36*
X569194Y517200D02*
X567006D01*
X564985Y516363D01*
X563437Y514815D01*
X562600Y512794D01*
Y510606D01*
X563437Y508585D01*
X564985Y507037D01*
X567006Y506200D01*
X569194D01*
X571216Y507037D01*
X572763Y508585D01*
X573600Y510606D01*
Y512794D01*
X572763Y514815D01*
X571216Y516363D01*
X569194Y517200D01*
D02*
G37*
G36*
X475854D02*
X473666D01*
X471645Y516363D01*
X470097Y514815D01*
X469260Y512794D01*
Y510606D01*
X470097Y508585D01*
X471645Y507037D01*
X473666Y506200D01*
X475854D01*
X477876Y507037D01*
X479423Y508585D01*
X480260Y510606D01*
Y512794D01*
X479423Y514815D01*
X477876Y516363D01*
X475854Y517200D01*
D02*
G37*
G36*
X382514D02*
X380326D01*
X378304Y516363D01*
X376757Y514815D01*
X375920Y512794D01*
Y510606D01*
X376757Y508585D01*
X378304Y507037D01*
X380326Y506200D01*
X382514D01*
X384535Y507037D01*
X386083Y508585D01*
X386920Y510606D01*
Y512794D01*
X386083Y514815D01*
X384535Y516363D01*
X382514Y517200D01*
D02*
G37*
G36*
X289174D02*
X286986D01*
X284965Y516363D01*
X283417Y514815D01*
X282580Y512794D01*
Y510606D01*
X283417Y508585D01*
X284965Y507037D01*
X286986Y506200D01*
X289174D01*
X291196Y507037D01*
X292743Y508585D01*
X293580Y510606D01*
Y512794D01*
X292743Y514815D01*
X291196Y516363D01*
X289174Y517200D01*
D02*
G37*
G36*
X195834D02*
X193646D01*
X191625Y516363D01*
X190077Y514815D01*
X189240Y512794D01*
Y510606D01*
X190077Y508585D01*
X191625Y507037D01*
X193646Y506200D01*
X195834D01*
X197855Y507037D01*
X199403Y508585D01*
X200240Y510606D01*
Y512794D01*
X199403Y514815D01*
X197855Y516363D01*
X195834Y517200D01*
D02*
G37*
G36*
X102494D02*
X100306D01*
X98285Y516363D01*
X96737Y514815D01*
X95900Y512794D01*
Y510606D01*
X96737Y508585D01*
X98285Y507037D01*
X100306Y506200D01*
X102494D01*
X104515Y507037D01*
X106063Y508585D01*
X106900Y510606D01*
Y512794D01*
X106063Y514815D01*
X104515Y516363D01*
X102494Y517200D01*
D02*
G37*
G36*
X622996Y510000D02*
X621604D01*
X620317Y509467D01*
X619333Y508483D01*
X618800Y507196D01*
Y505804D01*
X619333Y504517D01*
X620317Y503533D01*
X621604Y503000D01*
X622996D01*
X624283Y503533D01*
X625267Y504517D01*
X625800Y505804D01*
Y507196D01*
X625267Y508483D01*
X624283Y509467D01*
X622996Y510000D01*
D02*
G37*
G36*
X691576Y505000D02*
X690184D01*
X688897Y504467D01*
X687913Y503483D01*
X687380Y502196D01*
Y500804D01*
X687402Y500751D01*
X686430Y499779D01*
X685896Y500000D01*
X684504D01*
X683218Y499467D01*
X682233Y498483D01*
X681700Y497196D01*
Y495804D01*
X682233Y494517D01*
X683218Y493533D01*
X684504Y493000D01*
X685896D01*
X687183Y493533D01*
X688167Y494517D01*
X688700Y495804D01*
Y497196D01*
X688678Y497249D01*
X689650Y498221D01*
X690184Y498000D01*
X691576D01*
X692863Y498533D01*
X693847Y499517D01*
X694380Y500804D01*
Y502196D01*
X693847Y503483D01*
X692863Y504467D01*
X691576Y505000D01*
D02*
G37*
G36*
X630616Y502500D02*
X629224D01*
X627937Y501967D01*
X626953Y500983D01*
X626420Y499696D01*
Y498304D01*
X626953Y497017D01*
X627937Y496033D01*
X629224Y495500D01*
X630616D01*
X631903Y496033D01*
X632887Y497017D01*
X633420Y498304D01*
Y499696D01*
X632887Y500983D01*
X631903Y501967D01*
X630616Y502500D01*
D02*
G37*
G36*
X581894Y504500D02*
X579706D01*
X577685Y503663D01*
X576137Y502116D01*
X575300Y500094D01*
Y497906D01*
X576137Y495885D01*
X577685Y494337D01*
X579706Y493500D01*
X581894D01*
X583915Y494337D01*
X585463Y495885D01*
X586300Y497906D01*
Y500094D01*
X585463Y502116D01*
X583915Y503663D01*
X581894Y504500D01*
D02*
G37*
G36*
X556494D02*
X554306D01*
X552285Y503663D01*
X550737Y502116D01*
X549900Y500094D01*
Y497906D01*
X550737Y495885D01*
X552285Y494337D01*
X554306Y493500D01*
X556494D01*
X558516Y494337D01*
X560063Y495885D01*
X560900Y497906D01*
Y500094D01*
X560063Y502116D01*
X558516Y503663D01*
X556494Y504500D01*
D02*
G37*
G36*
X488554D02*
X486366D01*
X484344Y503663D01*
X482797Y502116D01*
X481960Y500094D01*
Y497906D01*
X482797Y495885D01*
X484344Y494337D01*
X486366Y493500D01*
X488554D01*
X490575Y494337D01*
X492123Y495885D01*
X492960Y497906D01*
Y500094D01*
X492123Y502116D01*
X490575Y503663D01*
X488554Y504500D01*
D02*
G37*
G36*
X463154D02*
X460966D01*
X458945Y503663D01*
X457397Y502116D01*
X456560Y500094D01*
Y497906D01*
X457397Y495885D01*
X458945Y494337D01*
X460966Y493500D01*
X463154D01*
X465176Y494337D01*
X466723Y495885D01*
X467560Y497906D01*
Y500094D01*
X466723Y502116D01*
X465176Y503663D01*
X463154Y504500D01*
D02*
G37*
G36*
X395214D02*
X393026D01*
X391004Y503663D01*
X389457Y502116D01*
X388620Y500094D01*
Y497906D01*
X389457Y495885D01*
X391004Y494337D01*
X393026Y493500D01*
X395214D01*
X397235Y494337D01*
X398783Y495885D01*
X399620Y497906D01*
Y500094D01*
X398783Y502116D01*
X397235Y503663D01*
X395214Y504500D01*
D02*
G37*
G36*
X369814D02*
X367626D01*
X365605Y503663D01*
X364057Y502116D01*
X363220Y500094D01*
Y497906D01*
X364057Y495885D01*
X365605Y494337D01*
X367626Y493500D01*
X369814D01*
X371836Y494337D01*
X373383Y495885D01*
X374220Y497906D01*
Y500094D01*
X373383Y502116D01*
X371836Y503663D01*
X369814Y504500D01*
D02*
G37*
G36*
X301874D02*
X299686D01*
X297665Y503663D01*
X296117Y502116D01*
X295280Y500094D01*
Y497906D01*
X296117Y495885D01*
X297665Y494337D01*
X299686Y493500D01*
X301874D01*
X303895Y494337D01*
X305443Y495885D01*
X306280Y497906D01*
Y500094D01*
X305443Y502116D01*
X303895Y503663D01*
X301874Y504500D01*
D02*
G37*
G36*
X276474D02*
X274286D01*
X272264Y503663D01*
X270717Y502116D01*
X269880Y500094D01*
Y497906D01*
X270717Y495885D01*
X272264Y494337D01*
X274286Y493500D01*
X276474D01*
X278496Y494337D01*
X280043Y495885D01*
X280880Y497906D01*
Y500094D01*
X280043Y502116D01*
X278496Y503663D01*
X276474Y504500D01*
D02*
G37*
G36*
X208534D02*
X206346D01*
X204324Y503663D01*
X202777Y502116D01*
X201940Y500094D01*
Y497906D01*
X202777Y495885D01*
X204324Y494337D01*
X206346Y493500D01*
X208534D01*
X210555Y494337D01*
X212103Y495885D01*
X212940Y497906D01*
Y500094D01*
X212103Y502116D01*
X210555Y503663D01*
X208534Y504500D01*
D02*
G37*
G36*
X183134D02*
X180946D01*
X178925Y503663D01*
X177377Y502116D01*
X176540Y500094D01*
Y497906D01*
X177377Y495885D01*
X178925Y494337D01*
X180946Y493500D01*
X183134D01*
X185156Y494337D01*
X186703Y495885D01*
X187540Y497906D01*
Y500094D01*
X186703Y502116D01*
X185156Y503663D01*
X183134Y504500D01*
D02*
G37*
G36*
X115194D02*
X113006D01*
X110984Y503663D01*
X109437Y502116D01*
X108600Y500094D01*
Y497906D01*
X109437Y495885D01*
X110984Y494337D01*
X113006Y493500D01*
X115194D01*
X117215Y494337D01*
X118763Y495885D01*
X119600Y497906D01*
Y500094D01*
X118763Y502116D01*
X117215Y503663D01*
X115194Y504500D01*
D02*
G37*
G36*
X89794D02*
X87606D01*
X85584Y503663D01*
X84037Y502116D01*
X83200Y500094D01*
Y497906D01*
X84037Y495885D01*
X85584Y494337D01*
X87606Y493500D01*
X89794D01*
X91816Y494337D01*
X93363Y495885D01*
X94200Y497906D01*
Y500094D01*
X93363Y502116D01*
X91816Y503663D01*
X89794Y504500D01*
D02*
G37*
G36*
X622996Y495000D02*
X621604D01*
X620317Y494467D01*
X619333Y493483D01*
X618800Y492196D01*
Y490804D01*
X619333Y489517D01*
X620317Y488533D01*
X621604Y488000D01*
X622996D01*
X624283Y488533D01*
X625267Y489517D01*
X625800Y490804D01*
Y492196D01*
X625267Y493483D01*
X624283Y494467D01*
X622996Y495000D01*
D02*
G37*
G36*
X725866Y493500D02*
X724474D01*
X723187Y492967D01*
X722203Y491983D01*
X721670Y490696D01*
Y489304D01*
X722203Y488017D01*
X723187Y487033D01*
X724474Y486500D01*
X725866D01*
X727153Y487033D01*
X728137Y488017D01*
X728670Y489304D01*
Y490696D01*
X728137Y491983D01*
X727153Y492967D01*
X725866Y493500D01*
D02*
G37*
G36*
X630616Y490000D02*
X629224D01*
X627937Y489467D01*
X626953Y488483D01*
X626420Y487196D01*
Y485804D01*
X626953Y484517D01*
X627937Y483533D01*
X629224Y483000D01*
X630616D01*
X631903Y483533D01*
X632887Y484517D01*
X633420Y485804D01*
Y487196D01*
X632887Y488483D01*
X631903Y489467D01*
X630616Y490000D01*
D02*
G37*
G36*
X569194Y491800D02*
X567006D01*
X564985Y490963D01*
X563437Y489416D01*
X562600Y487394D01*
Y485206D01*
X563437Y483185D01*
X564985Y481637D01*
X567006Y480800D01*
X569194D01*
X571216Y481637D01*
X572763Y483185D01*
X573600Y485206D01*
Y487394D01*
X572763Y489416D01*
X571216Y490963D01*
X569194Y491800D01*
D02*
G37*
G36*
X475854D02*
X473666D01*
X471645Y490963D01*
X470097Y489416D01*
X469260Y487394D01*
Y485206D01*
X470097Y483185D01*
X471645Y481637D01*
X473666Y480800D01*
X475854D01*
X477876Y481637D01*
X479423Y483185D01*
X480260Y485206D01*
Y487394D01*
X479423Y489416D01*
X477876Y490963D01*
X475854Y491800D01*
D02*
G37*
G36*
X382514D02*
X380326D01*
X378304Y490963D01*
X376757Y489416D01*
X375920Y487394D01*
Y485206D01*
X376757Y483185D01*
X378304Y481637D01*
X380326Y480800D01*
X382514D01*
X384535Y481637D01*
X386083Y483185D01*
X386920Y485206D01*
Y487394D01*
X386083Y489416D01*
X384535Y490963D01*
X382514Y491800D01*
D02*
G37*
G36*
X289174D02*
X286986D01*
X284965Y490963D01*
X283417Y489416D01*
X282580Y487394D01*
Y485206D01*
X283417Y483185D01*
X284965Y481637D01*
X286986Y480800D01*
X289174D01*
X291196Y481637D01*
X292743Y483185D01*
X293580Y485206D01*
Y487394D01*
X292743Y489416D01*
X291196Y490963D01*
X289174Y491800D01*
D02*
G37*
G36*
X195834D02*
X193646D01*
X191625Y490963D01*
X190077Y489416D01*
X189240Y487394D01*
Y485206D01*
X190077Y483185D01*
X191625Y481637D01*
X193646Y480800D01*
X195834D01*
X197855Y481637D01*
X199403Y483185D01*
X200240Y485206D01*
Y487394D01*
X199403Y489416D01*
X197855Y490963D01*
X195834Y491800D01*
D02*
G37*
G36*
X102494D02*
X100306D01*
X98285Y490963D01*
X96737Y489416D01*
X95900Y487394D01*
Y485206D01*
X96737Y483185D01*
X98285Y481637D01*
X100306Y480800D01*
X102494D01*
X104515Y481637D01*
X106063Y483185D01*
X106900Y485206D01*
Y487394D01*
X106063Y489416D01*
X104515Y490963D01*
X102494Y491800D01*
D02*
G37*
G36*
X701735Y486386D02*
X700343D01*
X699056Y485853D01*
X698072Y484869D01*
X697539Y483582D01*
Y482190D01*
X698072Y480904D01*
X699056Y479919D01*
X700343Y479386D01*
X701735D01*
X703021Y479919D01*
X704006Y480904D01*
X704539Y482190D01*
Y483582D01*
X704006Y484869D01*
X703021Y485853D01*
X701735Y486386D01*
D02*
G37*
G36*
X758886Y485863D02*
X757494D01*
X756207Y485331D01*
X755223Y484346D01*
X754690Y483060D01*
Y481667D01*
X755223Y480381D01*
X756207Y479396D01*
X757494Y478863D01*
X758886D01*
X760173Y479396D01*
X761157Y480381D01*
X761690Y481667D01*
Y483060D01*
X761157Y484346D01*
X760173Y485331D01*
X758886Y485863D01*
D02*
G37*
G36*
X667326Y474570D02*
X665934D01*
X664647Y474037D01*
X663663Y473053D01*
X663130Y471766D01*
Y470532D01*
X662754Y470044D01*
X662121Y469490D01*
X661139D01*
X660506Y470044D01*
X660130Y470532D01*
Y471766D01*
X659597Y473053D01*
X658613Y474037D01*
X657326Y474570D01*
X655934D01*
X654647Y474037D01*
X653663Y473053D01*
X653130Y471766D01*
Y470532D01*
X652754Y470044D01*
X652121Y469490D01*
X651139D01*
X650506Y470044D01*
X650130Y470532D01*
Y471766D01*
X649597Y473053D01*
X648613Y474037D01*
X647326Y474570D01*
X645934D01*
X644647Y474037D01*
X643663Y473053D01*
X643130Y471766D01*
Y470374D01*
X643663Y469087D01*
X644647Y468103D01*
X645934Y467570D01*
X647121D01*
X647754Y467016D01*
X648130Y466528D01*
Y465294D01*
X648663Y464007D01*
X649647Y463023D01*
X650934Y462490D01*
X652326D01*
X653613Y463023D01*
X654597Y464007D01*
X655130Y465294D01*
Y466528D01*
X655506Y467016D01*
X656139Y467570D01*
X657121D01*
X657754Y467016D01*
X658130Y466528D01*
Y465294D01*
X658663Y464007D01*
X659647Y463023D01*
X660934Y462490D01*
X662326D01*
X663613Y463023D01*
X664597Y464007D01*
X665130Y465294D01*
Y466528D01*
X665506Y467016D01*
X666139Y467570D01*
X667326D01*
X668613Y468103D01*
X669597Y469087D01*
X670130Y470374D01*
Y471766D01*
X669597Y473053D01*
X668613Y474037D01*
X667326Y474570D01*
D02*
G37*
G36*
X710626Y465780D02*
X709234D01*
X707947Y465247D01*
X706963Y464263D01*
X706430Y462976D01*
Y461584D01*
X706963Y460297D01*
X707947Y459313D01*
X709234Y458780D01*
X710626D01*
X711913Y459313D01*
X712897Y460297D01*
X713430Y461584D01*
Y462976D01*
X712897Y464263D01*
X711913Y465247D01*
X710626Y465780D01*
D02*
G37*
G36*
X647326Y459720D02*
X645934D01*
X644647Y459187D01*
X643663Y458203D01*
X643130Y456916D01*
Y455524D01*
X643663Y454238D01*
X644647Y453253D01*
X645934Y452720D01*
X647326D01*
X648613Y453253D01*
X649597Y454238D01*
X650130Y455524D01*
Y456916D01*
X649597Y458203D01*
X648613Y459187D01*
X647326Y459720D01*
D02*
G37*
G36*
X767976Y454350D02*
X766584D01*
X765297Y453817D01*
X764313Y452833D01*
X763780Y451546D01*
Y450154D01*
X764313Y448867D01*
X765297Y447883D01*
X766584Y447350D01*
X767976D01*
X769263Y447883D01*
X770247Y448867D01*
X770780Y450154D01*
Y451546D01*
X770247Y452833D01*
X769263Y453817D01*
X767976Y454350D01*
D02*
G37*
G36*
X719516Y450540D02*
X718124D01*
X716837Y450007D01*
X715853Y449023D01*
X715320Y447736D01*
Y446344D01*
X715853Y445057D01*
X716837Y444073D01*
X718124Y443540D01*
X719516D01*
X720803Y444073D01*
X721787Y445057D01*
X722320Y446344D01*
Y447736D01*
X721787Y449023D01*
X720803Y450007D01*
X719516Y450540D01*
D02*
G37*
G36*
X630616Y443000D02*
X629224D01*
X627937Y442467D01*
X626953Y441483D01*
X626420Y440196D01*
Y438804D01*
X626953Y437517D01*
X627937Y436533D01*
X629224Y436000D01*
X630616D01*
X631903Y436533D01*
X632887Y437517D01*
X633420Y438804D01*
Y440196D01*
X632887Y441483D01*
X631903Y442467D01*
X630616Y443000D01*
D02*
G37*
G36*
X569194Y445200D02*
X567006D01*
X564985Y444363D01*
X563437Y442816D01*
X562600Y440794D01*
Y438606D01*
X563437Y436585D01*
X564985Y435037D01*
X567006Y434200D01*
X569194D01*
X571216Y435037D01*
X572763Y436585D01*
X573600Y438606D01*
Y440794D01*
X572763Y442816D01*
X571216Y444363D01*
X569194Y445200D01*
D02*
G37*
G36*
X475854D02*
X473666D01*
X471645Y444363D01*
X470097Y442816D01*
X469260Y440794D01*
Y438606D01*
X470097Y436585D01*
X471645Y435037D01*
X473666Y434200D01*
X475854D01*
X477876Y435037D01*
X479423Y436585D01*
X480260Y438606D01*
Y440794D01*
X479423Y442816D01*
X477876Y444363D01*
X475854Y445200D01*
D02*
G37*
G36*
X382514D02*
X380326D01*
X378304Y444363D01*
X376757Y442816D01*
X375920Y440794D01*
Y438606D01*
X376757Y436585D01*
X378304Y435037D01*
X380326Y434200D01*
X382514D01*
X384535Y435037D01*
X386083Y436585D01*
X386920Y438606D01*
Y440794D01*
X386083Y442816D01*
X384535Y444363D01*
X382514Y445200D01*
D02*
G37*
G36*
X289174D02*
X286986D01*
X284965Y444363D01*
X283417Y442816D01*
X282580Y440794D01*
Y438606D01*
X283417Y436585D01*
X284965Y435037D01*
X286986Y434200D01*
X289174D01*
X291196Y435037D01*
X292743Y436585D01*
X293580Y438606D01*
Y440794D01*
X292743Y442816D01*
X291196Y444363D01*
X289174Y445200D01*
D02*
G37*
G36*
X195834D02*
X193646D01*
X191625Y444363D01*
X190077Y442816D01*
X189240Y440794D01*
Y438606D01*
X190077Y436585D01*
X191625Y435037D01*
X193646Y434200D01*
X195834D01*
X197855Y435037D01*
X199403Y436585D01*
X200240Y438606D01*
Y440794D01*
X199403Y442816D01*
X197855Y444363D01*
X195834Y445200D01*
D02*
G37*
G36*
X102494D02*
X100306D01*
X98285Y444363D01*
X96737Y442816D01*
X95900Y440794D01*
Y438606D01*
X96737Y436585D01*
X98285Y435037D01*
X100306Y434200D01*
X102494D01*
X104515Y435037D01*
X106063Y436585D01*
X106900Y438606D01*
Y440794D01*
X106063Y442816D01*
X104515Y444363D01*
X102494Y445200D01*
D02*
G37*
G36*
X622996Y438000D02*
X621604D01*
X620317Y437467D01*
X619333Y436483D01*
X618800Y435196D01*
Y433804D01*
X619333Y432517D01*
X620317Y431533D01*
X621604Y431000D01*
X622996D01*
X624283Y431533D01*
X625267Y432517D01*
X625800Y433804D01*
Y435196D01*
X625267Y436483D01*
X624283Y437467D01*
X622996Y438000D01*
D02*
G37*
G36*
X691576Y433000D02*
X690184D01*
X688897Y432467D01*
X687913Y431483D01*
X687380Y430196D01*
Y428804D01*
X687402Y428751D01*
X686430Y427779D01*
X685896Y428000D01*
X684504D01*
X683218Y427467D01*
X682233Y426483D01*
X681700Y425196D01*
Y423804D01*
X682233Y422517D01*
X683218Y421533D01*
X684504Y421000D01*
X685896D01*
X687183Y421533D01*
X688167Y422517D01*
X688700Y423804D01*
Y425196D01*
X688678Y425249D01*
X689650Y426221D01*
X690184Y426000D01*
X691576D01*
X692863Y426533D01*
X693847Y427517D01*
X694380Y428804D01*
Y430196D01*
X693847Y431483D01*
X692863Y432467D01*
X691576Y433000D01*
D02*
G37*
G36*
X630616Y430500D02*
X629224D01*
X627937Y429967D01*
X626953Y428983D01*
X626420Y427696D01*
Y426304D01*
X626953Y425017D01*
X627937Y424033D01*
X629224Y423500D01*
X630616D01*
X631903Y424033D01*
X632887Y425017D01*
X633420Y426304D01*
Y427696D01*
X632887Y428983D01*
X631903Y429967D01*
X630616Y430500D01*
D02*
G37*
G36*
X581894Y432500D02*
X579706D01*
X577685Y431663D01*
X576137Y430116D01*
X575300Y428094D01*
Y425906D01*
X576137Y423885D01*
X577685Y422337D01*
X579706Y421500D01*
X581894D01*
X583915Y422337D01*
X585463Y423885D01*
X586300Y425906D01*
Y428094D01*
X585463Y430116D01*
X583915Y431663D01*
X581894Y432500D01*
D02*
G37*
G36*
X556494D02*
X554306D01*
X552285Y431663D01*
X550737Y430116D01*
X549900Y428094D01*
Y425906D01*
X550737Y423885D01*
X552285Y422337D01*
X554306Y421500D01*
X556494D01*
X558516Y422337D01*
X560063Y423885D01*
X560900Y425906D01*
Y428094D01*
X560063Y430116D01*
X558516Y431663D01*
X556494Y432500D01*
D02*
G37*
G36*
X488554D02*
X486366D01*
X484344Y431663D01*
X482797Y430116D01*
X481960Y428094D01*
Y425906D01*
X482797Y423885D01*
X484344Y422337D01*
X486366Y421500D01*
X488554D01*
X490575Y422337D01*
X492123Y423885D01*
X492960Y425906D01*
Y428094D01*
X492123Y430116D01*
X490575Y431663D01*
X488554Y432500D01*
D02*
G37*
G36*
X463154D02*
X460966D01*
X458945Y431663D01*
X457397Y430116D01*
X456560Y428094D01*
Y425906D01*
X457397Y423885D01*
X458945Y422337D01*
X460966Y421500D01*
X463154D01*
X465176Y422337D01*
X466723Y423885D01*
X467560Y425906D01*
Y428094D01*
X466723Y430116D01*
X465176Y431663D01*
X463154Y432500D01*
D02*
G37*
G36*
X395214D02*
X393026D01*
X391004Y431663D01*
X389457Y430116D01*
X388620Y428094D01*
Y425906D01*
X389457Y423885D01*
X391004Y422337D01*
X393026Y421500D01*
X395214D01*
X397235Y422337D01*
X398783Y423885D01*
X399620Y425906D01*
Y428094D01*
X398783Y430116D01*
X397235Y431663D01*
X395214Y432500D01*
D02*
G37*
G36*
X369814D02*
X367626D01*
X365605Y431663D01*
X364057Y430116D01*
X363220Y428094D01*
Y425906D01*
X364057Y423885D01*
X365605Y422337D01*
X367626Y421500D01*
X369814D01*
X371836Y422337D01*
X373383Y423885D01*
X374220Y425906D01*
Y428094D01*
X373383Y430116D01*
X371836Y431663D01*
X369814Y432500D01*
D02*
G37*
G36*
X301874D02*
X299686D01*
X297665Y431663D01*
X296117Y430116D01*
X295280Y428094D01*
Y425906D01*
X296117Y423885D01*
X297665Y422337D01*
X299686Y421500D01*
X301874D01*
X303895Y422337D01*
X305443Y423885D01*
X306280Y425906D01*
Y428094D01*
X305443Y430116D01*
X303895Y431663D01*
X301874Y432500D01*
D02*
G37*
G36*
X276474D02*
X274286D01*
X272264Y431663D01*
X270717Y430116D01*
X269880Y428094D01*
Y425906D01*
X270717Y423885D01*
X272264Y422337D01*
X274286Y421500D01*
X276474D01*
X278496Y422337D01*
X280043Y423885D01*
X280880Y425906D01*
Y428094D01*
X280043Y430116D01*
X278496Y431663D01*
X276474Y432500D01*
D02*
G37*
G36*
X208534D02*
X206346D01*
X204324Y431663D01*
X202777Y430116D01*
X201940Y428094D01*
Y425906D01*
X202777Y423885D01*
X204324Y422337D01*
X206346Y421500D01*
X208534D01*
X210555Y422337D01*
X212103Y423885D01*
X212940Y425906D01*
Y428094D01*
X212103Y430116D01*
X210555Y431663D01*
X208534Y432500D01*
D02*
G37*
G36*
X183134D02*
X180946D01*
X178925Y431663D01*
X177377Y430116D01*
X176540Y428094D01*
Y425906D01*
X177377Y423885D01*
X178925Y422337D01*
X180946Y421500D01*
X183134D01*
X185156Y422337D01*
X186703Y423885D01*
X187540Y425906D01*
Y428094D01*
X186703Y430116D01*
X185156Y431663D01*
X183134Y432500D01*
D02*
G37*
G36*
X115194D02*
X113006D01*
X110984Y431663D01*
X109437Y430116D01*
X108600Y428094D01*
Y425906D01*
X109437Y423885D01*
X110984Y422337D01*
X113006Y421500D01*
X115194D01*
X117215Y422337D01*
X118763Y423885D01*
X119600Y425906D01*
Y428094D01*
X118763Y430116D01*
X117215Y431663D01*
X115194Y432500D01*
D02*
G37*
G36*
X89794D02*
X87606D01*
X85584Y431663D01*
X84037Y430116D01*
X83200Y428094D01*
Y425906D01*
X84037Y423885D01*
X85584Y422337D01*
X87606Y421500D01*
X89794D01*
X91816Y422337D01*
X93363Y423885D01*
X94200Y425906D01*
Y428094D01*
X93363Y430116D01*
X91816Y431663D01*
X89794Y432500D01*
D02*
G37*
G36*
X622996Y423000D02*
X621604D01*
X620317Y422467D01*
X619333Y421483D01*
X618800Y420196D01*
Y418804D01*
X619333Y417517D01*
X620317Y416533D01*
X621604Y416000D01*
X622996D01*
X624283Y416533D01*
X625267Y417517D01*
X625800Y418804D01*
Y420196D01*
X625267Y421483D01*
X624283Y422467D01*
X622996Y423000D01*
D02*
G37*
G36*
X725866Y421500D02*
X724474D01*
X723187Y420967D01*
X722203Y419983D01*
X721670Y418696D01*
Y417304D01*
X722203Y416017D01*
X723187Y415033D01*
X724474Y414500D01*
X725866D01*
X727153Y415033D01*
X728137Y416017D01*
X728670Y417304D01*
Y418696D01*
X728137Y419983D01*
X727153Y420967D01*
X725866Y421500D01*
D02*
G37*
G36*
X630616Y418000D02*
X629224D01*
X627937Y417467D01*
X626953Y416483D01*
X626420Y415196D01*
Y413804D01*
X626953Y412517D01*
X627937Y411533D01*
X629224Y411000D01*
X630616D01*
X631903Y411533D01*
X632887Y412517D01*
X633420Y413804D01*
Y415196D01*
X632887Y416483D01*
X631903Y417467D01*
X630616Y418000D01*
D02*
G37*
G36*
X569194Y419800D02*
X567006D01*
X564985Y418963D01*
X563437Y417416D01*
X562600Y415394D01*
Y413206D01*
X563437Y411185D01*
X564985Y409637D01*
X567006Y408800D01*
X569194D01*
X571216Y409637D01*
X572763Y411185D01*
X573600Y413206D01*
Y415394D01*
X572763Y417416D01*
X571216Y418963D01*
X569194Y419800D01*
D02*
G37*
G36*
X475854D02*
X473666D01*
X471645Y418963D01*
X470097Y417416D01*
X469260Y415394D01*
Y413206D01*
X470097Y411185D01*
X471645Y409637D01*
X473666Y408800D01*
X475854D01*
X477876Y409637D01*
X479423Y411185D01*
X480260Y413206D01*
Y415394D01*
X479423Y417416D01*
X477876Y418963D01*
X475854Y419800D01*
D02*
G37*
G36*
X382514D02*
X380326D01*
X378304Y418963D01*
X376757Y417416D01*
X375920Y415394D01*
Y413206D01*
X376757Y411185D01*
X378304Y409637D01*
X380326Y408800D01*
X382514D01*
X384535Y409637D01*
X386083Y411185D01*
X386920Y413206D01*
Y415394D01*
X386083Y417416D01*
X384535Y418963D01*
X382514Y419800D01*
D02*
G37*
G36*
X289174D02*
X286986D01*
X284965Y418963D01*
X283417Y417416D01*
X282580Y415394D01*
Y413206D01*
X283417Y411185D01*
X284965Y409637D01*
X286986Y408800D01*
X289174D01*
X291196Y409637D01*
X292743Y411185D01*
X293580Y413206D01*
Y415394D01*
X292743Y417416D01*
X291196Y418963D01*
X289174Y419800D01*
D02*
G37*
G36*
X195834D02*
X193646D01*
X191625Y418963D01*
X190077Y417416D01*
X189240Y415394D01*
Y413206D01*
X190077Y411185D01*
X191625Y409637D01*
X193646Y408800D01*
X195834D01*
X197855Y409637D01*
X199403Y411185D01*
X200240Y413206D01*
Y415394D01*
X199403Y417416D01*
X197855Y418963D01*
X195834Y419800D01*
D02*
G37*
G36*
X102494D02*
X100306D01*
X98285Y418963D01*
X96737Y417416D01*
X95900Y415394D01*
Y413206D01*
X96737Y411185D01*
X98285Y409637D01*
X100306Y408800D01*
X102494D01*
X104515Y409637D01*
X106063Y411185D01*
X106900Y413206D01*
Y415394D01*
X106063Y417416D01*
X104515Y418963D01*
X102494Y419800D01*
D02*
G37*
G36*
X701735Y414546D02*
X700343D01*
X699056Y414013D01*
X698072Y413028D01*
X697539Y411742D01*
Y410350D01*
X698072Y409063D01*
X699056Y408079D01*
X700343Y407546D01*
X701735D01*
X703021Y408079D01*
X704006Y409063D01*
X704539Y410350D01*
Y411742D01*
X704006Y413028D01*
X703021Y414013D01*
X701735Y414546D01*
D02*
G37*
G36*
X667326Y402570D02*
X665934D01*
X664647Y402037D01*
X663663Y401053D01*
X663130Y399766D01*
Y398532D01*
X662754Y398044D01*
X662121Y397490D01*
X661139D01*
X660506Y398044D01*
X660130Y398532D01*
Y399766D01*
X659597Y401053D01*
X658613Y402037D01*
X657326Y402570D01*
X655934D01*
X654647Y402037D01*
X653663Y401053D01*
X653130Y399766D01*
Y398532D01*
X652754Y398044D01*
X652121Y397490D01*
X651139D01*
X650506Y398044D01*
X650130Y398532D01*
Y399766D01*
X649597Y401053D01*
X648613Y402037D01*
X647326Y402570D01*
X645934D01*
X644647Y402037D01*
X643663Y401053D01*
X643130Y399766D01*
Y398374D01*
X643663Y397088D01*
X644647Y396103D01*
X645934Y395570D01*
X647121D01*
X647754Y395016D01*
X648130Y394528D01*
Y393294D01*
X648663Y392007D01*
X649647Y391023D01*
X650934Y390490D01*
X652326D01*
X653613Y391023D01*
X654597Y392007D01*
X655130Y393294D01*
Y394528D01*
X655506Y395016D01*
X656139Y395570D01*
X657121D01*
X657754Y395016D01*
X658130Y394528D01*
Y393294D01*
X658663Y392007D01*
X659647Y391023D01*
X660934Y390490D01*
X662326D01*
X663613Y391023D01*
X664597Y392007D01*
X665130Y393294D01*
Y394528D01*
X665506Y395016D01*
X666139Y395570D01*
X667326D01*
X668613Y396103D01*
X669597Y397088D01*
X670130Y398374D01*
Y399766D01*
X669597Y401053D01*
X668613Y402037D01*
X667326Y402570D01*
D02*
G37*
G36*
X737296Y400692D02*
X735904D01*
X734617Y400160D01*
X733633Y399175D01*
X733100Y397889D01*
Y396496D01*
X733633Y395210D01*
X734617Y394225D01*
X735904Y393693D01*
X737296D01*
X738583Y394225D01*
X739567Y395210D01*
X740100Y396496D01*
Y397889D01*
X739567Y399175D01*
X738583Y400160D01*
X737296Y400692D01*
D02*
G37*
G36*
X647326Y387720D02*
X645934D01*
X644647Y387187D01*
X643663Y386203D01*
X643130Y384916D01*
Y383524D01*
X643663Y382238D01*
X644647Y381253D01*
X645934Y380720D01*
X647326D01*
X648613Y381253D01*
X649597Y382238D01*
X650130Y383524D01*
Y384916D01*
X649597Y386203D01*
X648613Y387187D01*
X647326Y387720D01*
D02*
G37*
G36*
X713166Y379420D02*
X711774D01*
X710487Y378887D01*
X709503Y377903D01*
X708970Y376616D01*
Y375224D01*
X709503Y373937D01*
X710487Y372953D01*
X711774Y372420D01*
X713166D01*
X714453Y372953D01*
X715437Y373937D01*
X715970Y375224D01*
Y376616D01*
X715437Y377903D01*
X714453Y378887D01*
X713166Y379420D01*
D02*
G37*
G36*
X630616Y371000D02*
X629224D01*
X627937Y370467D01*
X626953Y369483D01*
X626420Y368196D01*
Y366804D01*
X626953Y365517D01*
X627937Y364533D01*
X629224Y364000D01*
X630616D01*
X631903Y364533D01*
X632887Y365517D01*
X633420Y366804D01*
Y368196D01*
X632887Y369483D01*
X631903Y370467D01*
X630616Y371000D01*
D02*
G37*
G36*
X569194Y373200D02*
X567006D01*
X564985Y372363D01*
X563437Y370816D01*
X562600Y368794D01*
Y366606D01*
X563437Y364585D01*
X564985Y363037D01*
X567006Y362200D01*
X569194D01*
X571216Y363037D01*
X572763Y364585D01*
X573600Y366606D01*
Y368794D01*
X572763Y370816D01*
X571216Y372363D01*
X569194Y373200D01*
D02*
G37*
G36*
X475854D02*
X473666D01*
X471645Y372363D01*
X470097Y370816D01*
X469260Y368794D01*
Y366606D01*
X470097Y364585D01*
X471645Y363037D01*
X473666Y362200D01*
X475854D01*
X477876Y363037D01*
X479423Y364585D01*
X480260Y366606D01*
Y368794D01*
X479423Y370816D01*
X477876Y372363D01*
X475854Y373200D01*
D02*
G37*
G36*
X382514D02*
X380326D01*
X378304Y372363D01*
X376757Y370816D01*
X375920Y368794D01*
Y366606D01*
X376757Y364585D01*
X378304Y363037D01*
X380326Y362200D01*
X382514D01*
X384535Y363037D01*
X386083Y364585D01*
X386920Y366606D01*
Y368794D01*
X386083Y370816D01*
X384535Y372363D01*
X382514Y373200D01*
D02*
G37*
G36*
X289174D02*
X286986D01*
X284965Y372363D01*
X283417Y370816D01*
X282580Y368794D01*
Y366606D01*
X283417Y364585D01*
X284965Y363037D01*
X286986Y362200D01*
X289174D01*
X291196Y363037D01*
X292743Y364585D01*
X293580Y366606D01*
Y368794D01*
X292743Y370816D01*
X291196Y372363D01*
X289174Y373200D01*
D02*
G37*
G36*
X195834D02*
X193646D01*
X191625Y372363D01*
X190077Y370816D01*
X189240Y368794D01*
Y366606D01*
X190077Y364585D01*
X191625Y363037D01*
X193646Y362200D01*
X195834D01*
X197855Y363037D01*
X199403Y364585D01*
X200240Y366606D01*
Y368794D01*
X199403Y370816D01*
X197855Y372363D01*
X195834Y373200D01*
D02*
G37*
G36*
X102494D02*
X100306D01*
X98285Y372363D01*
X96737Y370816D01*
X95900Y368794D01*
Y366606D01*
X96737Y364585D01*
X98285Y363037D01*
X100306Y362200D01*
X102494D01*
X104515Y363037D01*
X106063Y364585D01*
X106900Y366606D01*
Y368794D01*
X106063Y370816D01*
X104515Y372363D01*
X102494Y373200D01*
D02*
G37*
G36*
X622996Y366000D02*
X621604D01*
X620317Y365467D01*
X619333Y364483D01*
X618800Y363196D01*
Y361804D01*
X619333Y360517D01*
X620317Y359533D01*
X621604Y359000D01*
X622996D01*
X624283Y359533D01*
X625267Y360517D01*
X625800Y361804D01*
Y363196D01*
X625267Y364483D01*
X624283Y365467D01*
X622996Y366000D01*
D02*
G37*
G36*
X691576Y361000D02*
X690184D01*
X688897Y360467D01*
X687913Y359483D01*
X687380Y358196D01*
Y356804D01*
X687402Y356751D01*
X686430Y355779D01*
X685896Y356000D01*
X684504D01*
X683218Y355467D01*
X682233Y354483D01*
X681700Y353196D01*
Y351804D01*
X682233Y350517D01*
X683218Y349533D01*
X684504Y349000D01*
X685896D01*
X687183Y349533D01*
X688167Y350517D01*
X688700Y351804D01*
Y353196D01*
X688678Y353249D01*
X689650Y354221D01*
X690184Y354000D01*
X691576D01*
X692863Y354533D01*
X693847Y355517D01*
X694380Y356804D01*
Y358196D01*
X693847Y359483D01*
X692863Y360467D01*
X691576Y361000D01*
D02*
G37*
G36*
X630616Y358500D02*
X629224D01*
X627937Y357967D01*
X626953Y356983D01*
X626420Y355696D01*
Y354304D01*
X626953Y353017D01*
X627937Y352033D01*
X629224Y351500D01*
X630616D01*
X631903Y352033D01*
X632887Y353017D01*
X633420Y354304D01*
Y355696D01*
X632887Y356983D01*
X631903Y357967D01*
X630616Y358500D01*
D02*
G37*
G36*
X581894Y360500D02*
X579706D01*
X577685Y359663D01*
X576137Y358116D01*
X575300Y356094D01*
Y353906D01*
X576137Y351884D01*
X577685Y350337D01*
X579706Y349500D01*
X581894D01*
X583915Y350337D01*
X585463Y351884D01*
X586300Y353906D01*
Y356094D01*
X585463Y358116D01*
X583915Y359663D01*
X581894Y360500D01*
D02*
G37*
G36*
X556494D02*
X554306D01*
X552285Y359663D01*
X550737Y358116D01*
X549900Y356094D01*
Y353906D01*
X550737Y351884D01*
X552285Y350337D01*
X554306Y349500D01*
X556494D01*
X558516Y350337D01*
X560063Y351884D01*
X560900Y353906D01*
Y356094D01*
X560063Y358116D01*
X558516Y359663D01*
X556494Y360500D01*
D02*
G37*
G36*
X488554D02*
X486366D01*
X484344Y359663D01*
X482797Y358116D01*
X481960Y356094D01*
Y353906D01*
X482797Y351884D01*
X484344Y350337D01*
X486366Y349500D01*
X488554D01*
X490575Y350337D01*
X492123Y351884D01*
X492960Y353906D01*
Y356094D01*
X492123Y358116D01*
X490575Y359663D01*
X488554Y360500D01*
D02*
G37*
G36*
X463154D02*
X460966D01*
X458945Y359663D01*
X457397Y358116D01*
X456560Y356094D01*
Y353906D01*
X457397Y351884D01*
X458945Y350337D01*
X460966Y349500D01*
X463154D01*
X465176Y350337D01*
X466723Y351884D01*
X467560Y353906D01*
Y356094D01*
X466723Y358116D01*
X465176Y359663D01*
X463154Y360500D01*
D02*
G37*
G36*
X395214D02*
X393026D01*
X391004Y359663D01*
X389457Y358116D01*
X388620Y356094D01*
Y353906D01*
X389457Y351884D01*
X391004Y350337D01*
X393026Y349500D01*
X395214D01*
X397235Y350337D01*
X398783Y351884D01*
X399620Y353906D01*
Y356094D01*
X398783Y358116D01*
X397235Y359663D01*
X395214Y360500D01*
D02*
G37*
G36*
X369814D02*
X367626D01*
X365605Y359663D01*
X364057Y358116D01*
X363220Y356094D01*
Y353906D01*
X364057Y351884D01*
X365605Y350337D01*
X367626Y349500D01*
X369814D01*
X371836Y350337D01*
X373383Y351884D01*
X374220Y353906D01*
Y356094D01*
X373383Y358116D01*
X371836Y359663D01*
X369814Y360500D01*
D02*
G37*
G36*
X301874D02*
X299686D01*
X297665Y359663D01*
X296117Y358116D01*
X295280Y356094D01*
Y353906D01*
X296117Y351884D01*
X297665Y350337D01*
X299686Y349500D01*
X301874D01*
X303895Y350337D01*
X305443Y351884D01*
X306280Y353906D01*
Y356094D01*
X305443Y358116D01*
X303895Y359663D01*
X301874Y360500D01*
D02*
G37*
G36*
X276474D02*
X274286D01*
X272264Y359663D01*
X270717Y358116D01*
X269880Y356094D01*
Y353906D01*
X270717Y351884D01*
X272264Y350337D01*
X274286Y349500D01*
X276474D01*
X278496Y350337D01*
X280043Y351884D01*
X280880Y353906D01*
Y356094D01*
X280043Y358116D01*
X278496Y359663D01*
X276474Y360500D01*
D02*
G37*
G36*
X208534D02*
X206346D01*
X204324Y359663D01*
X202777Y358116D01*
X201940Y356094D01*
Y353906D01*
X202777Y351884D01*
X204324Y350337D01*
X206346Y349500D01*
X208534D01*
X210555Y350337D01*
X212103Y351884D01*
X212940Y353906D01*
Y356094D01*
X212103Y358116D01*
X210555Y359663D01*
X208534Y360500D01*
D02*
G37*
G36*
X183134D02*
X180946D01*
X178925Y359663D01*
X177377Y358116D01*
X176540Y356094D01*
Y353906D01*
X177377Y351884D01*
X178925Y350337D01*
X180946Y349500D01*
X183134D01*
X185156Y350337D01*
X186703Y351884D01*
X187540Y353906D01*
Y356094D01*
X186703Y358116D01*
X185156Y359663D01*
X183134Y360500D01*
D02*
G37*
G36*
X115194D02*
X113006D01*
X110984Y359663D01*
X109437Y358116D01*
X108600Y356094D01*
Y353906D01*
X109437Y351884D01*
X110984Y350337D01*
X113006Y349500D01*
X115194D01*
X117215Y350337D01*
X118763Y351884D01*
X119600Y353906D01*
Y356094D01*
X118763Y358116D01*
X117215Y359663D01*
X115194Y360500D01*
D02*
G37*
G36*
X89794D02*
X87606D01*
X85584Y359663D01*
X84037Y358116D01*
X83200Y356094D01*
Y353906D01*
X84037Y351884D01*
X85584Y350337D01*
X87606Y349500D01*
X89794D01*
X91816Y350337D01*
X93363Y351884D01*
X94200Y353906D01*
Y356094D01*
X93363Y358116D01*
X91816Y359663D01*
X89794Y360500D01*
D02*
G37*
G36*
X622996Y351000D02*
X621604D01*
X620317Y350467D01*
X619333Y349483D01*
X618800Y348196D01*
Y346804D01*
X619333Y345517D01*
X620317Y344533D01*
X621604Y344000D01*
X622996D01*
X624283Y344533D01*
X625267Y345517D01*
X625800Y346804D01*
Y348196D01*
X625267Y349483D01*
X624283Y350467D01*
X622996Y351000D01*
D02*
G37*
G36*
X630616Y346000D02*
X629224D01*
X627937Y345467D01*
X626953Y344483D01*
X626420Y343196D01*
Y341804D01*
X626953Y340517D01*
X627937Y339533D01*
X629224Y339000D01*
X630616D01*
X631903Y339533D01*
X632887Y340517D01*
X633420Y341804D01*
Y343196D01*
X632887Y344483D01*
X631903Y345467D01*
X630616Y346000D01*
D02*
G37*
G36*
X569194Y347800D02*
X567006D01*
X564985Y346963D01*
X563437Y345415D01*
X562600Y343394D01*
Y341206D01*
X563437Y339184D01*
X564985Y337637D01*
X567006Y336800D01*
X569194D01*
X571216Y337637D01*
X572763Y339184D01*
X573600Y341206D01*
Y343394D01*
X572763Y345415D01*
X571216Y346963D01*
X569194Y347800D01*
D02*
G37*
G36*
X475854D02*
X473666D01*
X471645Y346963D01*
X470097Y345415D01*
X469260Y343394D01*
Y341206D01*
X470097Y339184D01*
X471645Y337637D01*
X473666Y336800D01*
X475854D01*
X477876Y337637D01*
X479423Y339184D01*
X480260Y341206D01*
Y343394D01*
X479423Y345415D01*
X477876Y346963D01*
X475854Y347800D01*
D02*
G37*
G36*
X382514D02*
X380326D01*
X378304Y346963D01*
X376757Y345415D01*
X375920Y343394D01*
Y341206D01*
X376757Y339184D01*
X378304Y337637D01*
X380326Y336800D01*
X382514D01*
X384535Y337637D01*
X386083Y339184D01*
X386920Y341206D01*
Y343394D01*
X386083Y345415D01*
X384535Y346963D01*
X382514Y347800D01*
D02*
G37*
G36*
X289174D02*
X286986D01*
X284965Y346963D01*
X283417Y345415D01*
X282580Y343394D01*
Y341206D01*
X283417Y339184D01*
X284965Y337637D01*
X286986Y336800D01*
X289174D01*
X291196Y337637D01*
X292743Y339184D01*
X293580Y341206D01*
Y343394D01*
X292743Y345415D01*
X291196Y346963D01*
X289174Y347800D01*
D02*
G37*
G36*
X195834D02*
X193646D01*
X191625Y346963D01*
X190077Y345415D01*
X189240Y343394D01*
Y341206D01*
X190077Y339184D01*
X191625Y337637D01*
X193646Y336800D01*
X195834D01*
X197855Y337637D01*
X199403Y339184D01*
X200240Y341206D01*
Y343394D01*
X199403Y345415D01*
X197855Y346963D01*
X195834Y347800D01*
D02*
G37*
G36*
X102494D02*
X100306D01*
X98285Y346963D01*
X96737Y345415D01*
X95900Y343394D01*
Y341206D01*
X96737Y339184D01*
X98285Y337637D01*
X100306Y336800D01*
X102494D01*
X104515Y337637D01*
X106063Y339184D01*
X106900Y341206D01*
Y343394D01*
X106063Y345415D01*
X104515Y346963D01*
X102494Y347800D01*
D02*
G37*
G36*
X701735Y342705D02*
X700343D01*
X699056Y342173D01*
X698072Y341188D01*
X697539Y339902D01*
Y338509D01*
X698072Y337223D01*
X699056Y336238D01*
X700343Y335705D01*
X701735D01*
X703021Y336238D01*
X704006Y337223D01*
X704539Y338509D01*
Y339902D01*
X704006Y341188D01*
X703021Y342173D01*
X701735Y342705D01*
D02*
G37*
G36*
X667326Y330570D02*
X665934D01*
X664647Y330037D01*
X663663Y329053D01*
X663130Y327766D01*
Y326532D01*
X662754Y326044D01*
X662121Y325490D01*
X661139D01*
X660506Y326044D01*
X660130Y326532D01*
Y327766D01*
X659597Y329053D01*
X658613Y330037D01*
X657326Y330570D01*
X655934D01*
X654647Y330037D01*
X653663Y329053D01*
X653130Y327766D01*
Y326532D01*
X652754Y326044D01*
X652121Y325490D01*
X651139D01*
X650506Y326044D01*
X650130Y326532D01*
Y327766D01*
X649597Y329053D01*
X648613Y330037D01*
X647326Y330570D01*
X645934D01*
X644647Y330037D01*
X643663Y329053D01*
X643130Y327766D01*
Y326374D01*
X643663Y325088D01*
X644647Y324103D01*
X645934Y323570D01*
X647121D01*
X647754Y323016D01*
X648130Y322528D01*
Y321294D01*
X648663Y320008D01*
X649647Y319023D01*
X650934Y318490D01*
X652326D01*
X653613Y319023D01*
X654597Y320008D01*
X655130Y321294D01*
Y322528D01*
X655506Y323016D01*
X656139Y323570D01*
X657121D01*
X657754Y323016D01*
X658130Y322528D01*
Y321294D01*
X658663Y320008D01*
X659647Y319023D01*
X660934Y318490D01*
X662326D01*
X663613Y319023D01*
X664597Y320008D01*
X665130Y321294D01*
Y322528D01*
X665506Y323016D01*
X666139Y323570D01*
X667326D01*
X668613Y324103D01*
X669597Y325088D01*
X670130Y326374D01*
Y327766D01*
X669597Y329053D01*
X668613Y330037D01*
X667326Y330570D01*
D02*
G37*
G36*
X725170Y350078D02*
X723609Y349768D01*
X722286Y348884D01*
X721402Y347561D01*
X721092Y346000D01*
Y325532D01*
X719822Y324684D01*
X719517Y324810D01*
X718125D01*
X716838Y324277D01*
X715854Y323293D01*
X715321Y322006D01*
Y320614D01*
X715854Y319327D01*
X716838Y318343D01*
X718125Y317810D01*
X719517D01*
X719822Y317936D01*
X721092Y317088D01*
Y300139D01*
X708316Y287364D01*
X707432Y286041D01*
X707122Y284480D01*
X707122Y284480D01*
Y165300D01*
X707122Y165300D01*
X707432Y163739D01*
X708316Y162416D01*
X728325Y142408D01*
X728285Y142260D01*
X728045Y141680D01*
X727963Y141057D01*
X727800Y140451D01*
Y139823D01*
X727718Y139200D01*
Y113800D01*
X727800Y113177D01*
Y104300D01*
X736677D01*
X737300Y104218D01*
X737923Y104300D01*
X746800D01*
Y113177D01*
X746882Y113800D01*
Y139200D01*
X746800Y139823D01*
Y140451D01*
X746637Y141057D01*
X746555Y141680D01*
X746315Y142260D01*
X746153Y142867D01*
X745839Y143411D01*
X745598Y143991D01*
X745216Y144489D01*
X744902Y145033D01*
X744458Y145477D01*
X744075Y145976D01*
X743577Y146358D01*
X743133Y146802D01*
X742589Y147116D01*
X742091Y147498D01*
X741511Y147739D01*
X740967Y148053D01*
X740360Y148215D01*
X739780Y148455D01*
X739157Y148537D01*
X738551Y148700D01*
X737923D01*
X737300Y148782D01*
X736677Y148700D01*
X736049D01*
X735443Y148537D01*
X734820Y148455D01*
X734240Y148215D01*
X734092Y148175D01*
X715278Y166989D01*
Y245716D01*
X716548Y246242D01*
X716837Y245953D01*
X718124Y245420D01*
X719516D01*
X720803Y245953D01*
X721787Y246937D01*
X722320Y248224D01*
Y249616D01*
X721787Y250903D01*
X720803Y251887D01*
X719516Y252420D01*
X718124D01*
X716837Y251887D01*
X716548Y251598D01*
X715278Y252124D01*
Y282791D01*
X728054Y295566D01*
X728054Y295566D01*
X728938Y296889D01*
X729248Y298450D01*
Y346000D01*
X728938Y347561D01*
X728054Y348884D01*
X726731Y349768D01*
X725170Y350078D01*
D02*
G37*
G36*
X506894Y315920D02*
X505502D01*
X504215Y315387D01*
X503231Y314403D01*
X502698Y313116D01*
Y311724D01*
X503231Y310437D01*
X504215Y309453D01*
X505502Y308920D01*
X506894D01*
X508180Y309453D01*
X509165Y310437D01*
X509698Y311724D01*
Y313116D01*
X509165Y314403D01*
X508180Y315387D01*
X506894Y315920D01*
D02*
G37*
G36*
X713166Y301950D02*
X711774D01*
X710487Y301417D01*
X709503Y300433D01*
X708970Y299146D01*
Y297754D01*
X709503Y296467D01*
X710487Y295483D01*
X711774Y294950D01*
X713166D01*
X714453Y295483D01*
X715437Y296467D01*
X715970Y297754D01*
Y299146D01*
X715437Y300433D01*
X714453Y301417D01*
X713166Y301950D01*
D02*
G37*
G36*
X340570Y295705D02*
X339178D01*
X337891Y295172D01*
X336907Y294188D01*
X336374Y292901D01*
Y291509D01*
X336907Y290222D01*
X337891Y289238D01*
X339178Y288705D01*
X340570D01*
X341856Y289238D01*
X342841Y290222D01*
X343374Y291509D01*
Y292901D01*
X342841Y294188D01*
X341856Y295172D01*
X340570Y295705D01*
D02*
G37*
G36*
X449966Y285440D02*
X448574D01*
X447287Y284907D01*
X446303Y283923D01*
X445770Y282636D01*
Y281244D01*
X446303Y279957D01*
X447287Y278973D01*
X448574Y278440D01*
X449966D01*
X451253Y278973D01*
X452237Y279957D01*
X452770Y281244D01*
Y282636D01*
X452237Y283923D01*
X451253Y284907D01*
X449966Y285440D01*
D02*
G37*
G36*
X322006Y282900D02*
X320614D01*
X319327Y282367D01*
X318343Y281383D01*
X317810Y280096D01*
Y278704D01*
X318343Y277417D01*
X319327Y276433D01*
X320614Y275900D01*
X322006D01*
X323293Y276433D01*
X324277Y277417D01*
X324810Y278704D01*
Y280096D01*
X324277Y281383D01*
X323293Y282367D01*
X322006Y282900D01*
D02*
G37*
G36*
X311446D02*
X310054D01*
X308767Y282367D01*
X307783Y281383D01*
X307250Y280096D01*
Y278704D01*
X307783Y277417D01*
X308767Y276433D01*
X310054Y275900D01*
X311446D01*
X312733Y276433D01*
X313717Y277417D01*
X314250Y278704D01*
Y280096D01*
X313717Y281383D01*
X312733Y282367D01*
X311446Y282900D01*
D02*
G37*
G36*
X642046Y275480D02*
X640654D01*
X639367Y274947D01*
X638383Y273963D01*
X637850Y272676D01*
Y271284D01*
X638383Y269997D01*
X639367Y269013D01*
X640654Y268480D01*
X642046D01*
X643333Y269013D01*
X644317Y269997D01*
X644850Y271284D01*
Y272676D01*
X644317Y273963D01*
X643333Y274947D01*
X642046Y275480D01*
D02*
G37*
G36*
X680146Y275280D02*
X678754D01*
X677467Y274747D01*
X676483Y273763D01*
X675950Y272476D01*
Y271084D01*
X676483Y269797D01*
X677467Y268813D01*
X678754Y268280D01*
X680146D01*
X681433Y268813D01*
X682417Y269797D01*
X682950Y271084D01*
Y272476D01*
X682417Y273763D01*
X681433Y274747D01*
X680146Y275280D01*
D02*
G37*
G36*
X518856Y265270D02*
X517464D01*
X516177Y264737D01*
X515193Y263753D01*
X514660Y262466D01*
Y261074D01*
X515193Y259787D01*
X516177Y258803D01*
X517464Y258270D01*
X518856D01*
X520143Y258803D01*
X521127Y259787D01*
X521660Y261074D01*
Y262466D01*
X521127Y263753D01*
X520143Y264737D01*
X518856Y265270D01*
D02*
G37*
G36*
X617016Y265120D02*
X615624D01*
X614338Y264587D01*
X613353Y263603D01*
X612820Y262316D01*
Y260924D01*
X613353Y259637D01*
X614338Y258653D01*
X615624Y258120D01*
X617016D01*
X618303Y258653D01*
X619287Y259637D01*
X619820Y260924D01*
Y262316D01*
X619287Y263603D01*
X618303Y264587D01*
X617016Y265120D01*
D02*
G37*
G36*
X763951Y275700D02*
X761449D01*
X759033Y275053D01*
X756867Y273802D01*
X755098Y272033D01*
X753847Y269867D01*
X753200Y267451D01*
Y264949D01*
X753847Y262533D01*
X755098Y260367D01*
X756867Y258598D01*
X759033Y257347D01*
X761449Y256700D01*
X763951D01*
X766367Y257347D01*
X768533Y258598D01*
X770302Y260367D01*
X771553Y262533D01*
X772200Y264949D01*
Y267451D01*
X771553Y269867D01*
X770302Y272033D01*
X768533Y273802D01*
X766367Y275053D01*
X763951Y275700D01*
D02*
G37*
G36*
X738551D02*
X736049D01*
X733633Y275053D01*
X731467Y273802D01*
X729698Y272033D01*
X728447Y269867D01*
X727800Y267451D01*
Y264949D01*
X728447Y262533D01*
X729698Y260367D01*
X731467Y258598D01*
X733633Y257347D01*
X736049Y256700D01*
X738551D01*
X740967Y257347D01*
X743133Y258598D01*
X744902Y260367D01*
X746153Y262533D01*
X746800Y264949D01*
Y267451D01*
X746153Y269867D01*
X744902Y272033D01*
X743133Y273802D01*
X740967Y275053D01*
X738551Y275700D01*
D02*
G37*
G36*
X680146Y252420D02*
X678754D01*
X677467Y251887D01*
X676483Y250903D01*
X675950Y249616D01*
Y248224D01*
X676483Y246937D01*
X677467Y245953D01*
X678754Y245420D01*
X680146D01*
X681433Y245953D01*
X682417Y246937D01*
X682950Y248224D01*
Y249616D01*
X682417Y250903D01*
X681433Y251887D01*
X680146Y252420D01*
D02*
G37*
G36*
X342326D02*
X340934D01*
X339647Y251887D01*
X338663Y250903D01*
X338130Y249616D01*
Y248224D01*
X338663Y246937D01*
X339647Y245953D01*
X340934Y245420D01*
X342326D01*
X343613Y245953D01*
X344597Y246937D01*
X345130Y248224D01*
Y249616D01*
X344597Y250903D01*
X343613Y251887D01*
X342326Y252420D01*
D02*
G37*
G36*
X517736Y252270D02*
X516344D01*
X515057Y251737D01*
X514073Y250753D01*
X513540Y249466D01*
Y248074D01*
X514073Y246787D01*
X515057Y245803D01*
X516344Y245270D01*
X517736D01*
X519023Y245803D01*
X520007Y246787D01*
X520540Y248074D01*
Y249466D01*
X520007Y250753D01*
X519023Y251737D01*
X517736Y252270D01*
D02*
G37*
G36*
X438846D02*
X437454D01*
X436167Y251737D01*
X435183Y250753D01*
X434650Y249466D01*
Y248074D01*
X435183Y246787D01*
X436167Y245803D01*
X437454Y245270D01*
X438846D01*
X440133Y245803D01*
X441117Y246787D01*
X441650Y248074D01*
Y249466D01*
X441117Y250753D01*
X440133Y251737D01*
X438846Y252270D01*
D02*
G37*
G36*
X385506Y244800D02*
X384114D01*
X382827Y244267D01*
X381843Y243283D01*
X381310Y241996D01*
Y240604D01*
X381843Y239317D01*
X382827Y238333D01*
X384114Y237800D01*
X385506D01*
X386793Y238333D01*
X387777Y239317D01*
X388310Y240604D01*
Y241996D01*
X387777Y243283D01*
X386793Y244267D01*
X385506Y244800D01*
D02*
G37*
G36*
X626806Y239720D02*
X625414D01*
X624127Y239187D01*
X623143Y238203D01*
X622610Y236916D01*
Y235524D01*
X623143Y234237D01*
X624127Y233253D01*
X625414Y232720D01*
X626806D01*
X628093Y233253D01*
X629077Y234237D01*
X629610Y235524D01*
Y236916D01*
X629077Y238203D01*
X628093Y239187D01*
X626806Y239720D01*
D02*
G37*
G36*
X589976D02*
X588584D01*
X587297Y239187D01*
X586313Y238203D01*
X585780Y236916D01*
Y235524D01*
X586313Y234237D01*
X587297Y233253D01*
X588584Y232720D01*
X589976D01*
X591263Y233253D01*
X592247Y234237D01*
X592780Y235524D01*
Y236916D01*
X592247Y238203D01*
X591263Y239187D01*
X589976Y239720D01*
D02*
G37*
G36*
X763951Y250300D02*
X761449D01*
X759033Y249653D01*
X756867Y248402D01*
X755098Y246633D01*
X753847Y244467D01*
X753200Y242051D01*
Y239549D01*
X753847Y237133D01*
X755098Y234967D01*
X756867Y233198D01*
X759033Y231947D01*
X761449Y231300D01*
X763951D01*
X766367Y231947D01*
X768533Y233198D01*
X770302Y234967D01*
X771553Y237133D01*
X772200Y239549D01*
Y242051D01*
X771553Y244467D01*
X770302Y246633D01*
X768533Y248402D01*
X766367Y249653D01*
X763951Y250300D01*
D02*
G37*
G36*
X738551D02*
X736049D01*
X733633Y249653D01*
X731467Y248402D01*
X729698Y246633D01*
X728447Y244467D01*
X727800Y242051D01*
Y239549D01*
X728447Y237133D01*
X729698Y234967D01*
X731467Y233198D01*
X733633Y231947D01*
X736049Y231300D01*
X738551D01*
X740967Y231947D01*
X743133Y233198D01*
X744902Y234967D01*
X746153Y237133D01*
X746800Y239549D01*
Y242051D01*
X746153Y244467D01*
X744902Y246633D01*
X743133Y248402D01*
X740967Y249653D01*
X738551Y250300D01*
D02*
G37*
G36*
X449966Y234695D02*
X448574D01*
X447287Y234162D01*
X446303Y233178D01*
X445770Y231891D01*
Y230499D01*
X446303Y229212D01*
X447287Y228228D01*
X448574Y227695D01*
X449966D01*
X451253Y228228D01*
X452237Y229212D01*
X452770Y230499D01*
Y231891D01*
X452237Y233178D01*
X451253Y234162D01*
X449966Y234695D01*
D02*
G37*
G36*
X763951Y224900D02*
X761449D01*
X759033Y224253D01*
X756867Y223002D01*
X755098Y221233D01*
X753847Y219067D01*
X753200Y216651D01*
Y214149D01*
X753847Y211733D01*
X755098Y209567D01*
X756867Y207798D01*
X759033Y206547D01*
X761449Y205900D01*
X763951D01*
X766367Y206547D01*
X768533Y207798D01*
X770302Y209567D01*
X771553Y211733D01*
X772200Y214149D01*
Y216651D01*
X771553Y219067D01*
X770302Y221233D01*
X768533Y223002D01*
X766367Y224253D01*
X763951Y224900D01*
D02*
G37*
G36*
X738551D02*
X736049D01*
X733633Y224253D01*
X731467Y223002D01*
X729698Y221233D01*
X728447Y219067D01*
X727800Y216651D01*
Y214149D01*
X728447Y211733D01*
X729698Y209567D01*
X731467Y207798D01*
X733633Y206547D01*
X736049Y205900D01*
X738551D01*
X740967Y206547D01*
X743133Y207798D01*
X744902Y209567D01*
X746153Y211733D01*
X746800Y214149D01*
Y216651D01*
X746153Y219067D01*
X744902Y221233D01*
X743133Y223002D01*
X740967Y224253D01*
X738551Y224900D01*
D02*
G37*
G36*
X424876Y206700D02*
X423484D01*
X422197Y206167D01*
X421213Y205183D01*
X420904Y204437D01*
X419529D01*
X419221Y205183D01*
X418236Y206167D01*
X416950Y206700D01*
X415557D01*
X414271Y206167D01*
X413286Y205183D01*
X412753Y203896D01*
Y202504D01*
X413286Y201217D01*
X414271Y200233D01*
X415557Y199700D01*
X416950D01*
X418236Y200233D01*
X419221Y201217D01*
X419529Y201963D01*
X420904D01*
X421213Y201217D01*
X422197Y200233D01*
X423484Y199700D01*
X424876D01*
X426163Y200233D01*
X427147Y201217D01*
X427680Y202504D01*
Y203896D01*
X427147Y205183D01*
X426163Y206167D01*
X424876Y206700D01*
D02*
G37*
G36*
X763951Y199500D02*
X761449D01*
X759033Y198853D01*
X756867Y197602D01*
X755098Y195833D01*
X753847Y193667D01*
X753200Y191251D01*
Y188749D01*
X753847Y186333D01*
X755098Y184167D01*
X756867Y182398D01*
X759033Y181147D01*
X761449Y180500D01*
X763951D01*
X766367Y181147D01*
X768533Y182398D01*
X770302Y184167D01*
X771553Y186333D01*
X772200Y188749D01*
Y191251D01*
X771553Y193667D01*
X770302Y195833D01*
X768533Y197602D01*
X766367Y198853D01*
X763951Y199500D01*
D02*
G37*
G36*
X738551D02*
X736049D01*
X733633Y198853D01*
X731467Y197602D01*
X729698Y195833D01*
X728447Y193667D01*
X727800Y191251D01*
Y188749D01*
X728447Y186333D01*
X729698Y184167D01*
X731467Y182398D01*
X733633Y181147D01*
X736049Y180500D01*
X738551D01*
X740967Y181147D01*
X743133Y182398D01*
X744902Y184167D01*
X746153Y186333D01*
X746800Y188749D01*
Y191251D01*
X746153Y193667D01*
X744902Y195833D01*
X743133Y197602D01*
X740967Y198853D01*
X738551Y199500D01*
D02*
G37*
G36*
X763951Y174100D02*
X761449D01*
X759033Y173453D01*
X756867Y172202D01*
X755098Y170433D01*
X753847Y168267D01*
X753200Y165851D01*
Y163349D01*
X753847Y160933D01*
X755098Y158767D01*
X756867Y156998D01*
X759033Y155747D01*
X761449Y155100D01*
X763951D01*
X766367Y155747D01*
X768533Y156998D01*
X770302Y158767D01*
X771553Y160933D01*
X772200Y163349D01*
Y165851D01*
X771553Y168267D01*
X770302Y170433D01*
X768533Y172202D01*
X766367Y173453D01*
X763951Y174100D01*
D02*
G37*
G36*
X738551D02*
X736049D01*
X733633Y173453D01*
X731467Y172202D01*
X729698Y170433D01*
X728447Y168267D01*
X727800Y165851D01*
Y163349D01*
X728447Y160933D01*
X729698Y158767D01*
X731467Y156998D01*
X733633Y155747D01*
X736049Y155100D01*
X738551D01*
X740967Y155747D01*
X743133Y156998D01*
X744902Y158767D01*
X746153Y160933D01*
X746800Y163349D01*
Y165851D01*
X746153Y168267D01*
X744902Y170433D01*
X743133Y172202D01*
X740967Y173453D01*
X738551Y174100D01*
D02*
G37*
G36*
X271206Y133932D02*
X269814D01*
X268527Y133399D01*
X267543Y132415D01*
X267010Y131128D01*
Y129736D01*
X267543Y128449D01*
X268527Y127465D01*
X269814Y126932D01*
X271206D01*
X272493Y127465D01*
X273477Y128449D01*
X274010Y129736D01*
Y131128D01*
X273477Y132415D01*
X272493Y133399D01*
X271206Y133932D01*
D02*
G37*
G36*
X322007Y106371D02*
X320615D01*
X319329Y105838D01*
X318344Y104854D01*
X317811Y103567D01*
Y102175D01*
X318344Y100889D01*
X319329Y99904D01*
X320615Y99371D01*
X322007D01*
X323294Y99904D01*
X324278Y100889D01*
X324811Y102175D01*
Y103567D01*
X324278Y104854D01*
X323294Y105838D01*
X322007Y106371D01*
D02*
G37*
G36*
X285362Y84780D02*
X283970D01*
X282683Y84247D01*
X281699Y83263D01*
X281166Y81976D01*
Y80584D01*
X281699Y79297D01*
X282683Y78313D01*
X283970Y77780D01*
X285362D01*
X286649Y78313D01*
X287633Y79297D01*
X288166Y80584D01*
Y81976D01*
X287633Y83263D01*
X286649Y84247D01*
X285362Y84780D01*
D02*
G37*
G36*
X264391D02*
X262998D01*
X261712Y84247D01*
X260727Y83263D01*
X260194Y81976D01*
Y80584D01*
X260727Y79297D01*
X261712Y78313D01*
X262998Y77780D01*
X264391D01*
X265677Y78313D01*
X266662Y79297D01*
X267194Y80584D01*
Y81976D01*
X266662Y83263D01*
X265677Y84247D01*
X264391Y84780D01*
D02*
G37*
G36*
X255966D02*
X254574D01*
X253287Y84247D01*
X252303Y83263D01*
X251770Y81976D01*
Y80584D01*
X252303Y79297D01*
X253287Y78313D01*
X254574Y77780D01*
X255966D01*
X257253Y78313D01*
X258237Y79297D01*
X258770Y80584D01*
Y81976D01*
X258237Y83263D01*
X257253Y84247D01*
X255966Y84780D01*
D02*
G37*
G36*
X367726Y82240D02*
X366334D01*
X365047Y81707D01*
X364063Y80723D01*
X363530Y79436D01*
Y78044D01*
X364063Y76757D01*
X365047Y75773D01*
X366334Y75240D01*
X367726D01*
X369013Y75773D01*
X369997Y76757D01*
X370530Y78044D01*
Y79436D01*
X369997Y80723D01*
X369013Y81707D01*
X367726Y82240D01*
D02*
G37*
G36*
X285362Y75890D02*
X283970D01*
X282683Y75357D01*
X281699Y74373D01*
X281166Y73086D01*
Y71694D01*
X281699Y70407D01*
X282683Y69423D01*
X283970Y68890D01*
X285362D01*
X286649Y69423D01*
X287633Y70407D01*
X288166Y71694D01*
Y73086D01*
X287633Y74373D01*
X286649Y75357D01*
X285362Y75890D01*
D02*
G37*
G36*
X756346Y32710D02*
X754954D01*
X753667Y32177D01*
X752683Y31193D01*
X752527Y30817D01*
X751153D01*
X750997Y31193D01*
X750013Y32177D01*
X748726Y32710D01*
X747334D01*
X746047Y32177D01*
X745063Y31193D01*
X744530Y29906D01*
Y28514D01*
X745063Y27227D01*
X746047Y26243D01*
X746423Y26087D01*
Y24713D01*
X746047Y24557D01*
X745063Y23573D01*
X744530Y22286D01*
Y20894D01*
X745063Y19607D01*
X746047Y18623D01*
X747334Y18090D01*
X748726D01*
X750013Y18623D01*
X750997Y19607D01*
X751153Y19983D01*
X752527D01*
X752683Y19607D01*
X753667Y18623D01*
X754954Y18090D01*
X756346D01*
X757633Y18623D01*
X758617Y19607D01*
X759150Y20894D01*
Y22286D01*
X758617Y23573D01*
X757633Y24557D01*
X757257Y24713D01*
Y26087D01*
X757633Y26243D01*
X758617Y27227D01*
X759150Y28514D01*
Y29906D01*
X758617Y31193D01*
X757633Y32177D01*
X756346Y32710D01*
D02*
G37*
G36*
X340270Y31147D02*
X338878D01*
X337592Y30614D01*
X336607Y29630D01*
X336074Y28343D01*
Y26951D01*
X336607Y25664D01*
X337592Y24680D01*
X338878Y24147D01*
X340270D01*
X341557Y24680D01*
X342541Y25664D01*
X343074Y26951D01*
Y28343D01*
X342541Y29630D01*
X341557Y30614D01*
X340270Y31147D01*
D02*
G37*
G36*
X617916Y25090D02*
X616524D01*
X615237Y24557D01*
X614253Y23573D01*
X614097Y23197D01*
X612723D01*
X612567Y23573D01*
X611583Y24557D01*
X610296Y25090D01*
X608904D01*
X607617Y24557D01*
X606633Y23573D01*
X606477Y23197D01*
X605103D01*
X604947Y23573D01*
X603963Y24557D01*
X602676Y25090D01*
X601284D01*
X599997Y24557D01*
X599013Y23573D01*
X598857Y23197D01*
X597483D01*
X597327Y23573D01*
X596343Y24557D01*
X595056Y25090D01*
X593664D01*
X592377Y24557D01*
X591393Y23573D01*
X590860Y22286D01*
Y20894D01*
X591393Y19607D01*
X592377Y18623D01*
X593664Y18090D01*
X595056D01*
X596343Y18623D01*
X597327Y19607D01*
X597483Y19983D01*
X598857D01*
X599013Y19607D01*
X599997Y18623D01*
X601284Y18090D01*
X602676D01*
X603963Y18623D01*
X604947Y19607D01*
X605103Y19983D01*
X606477D01*
X606633Y19607D01*
X607617Y18623D01*
X608904Y18090D01*
X610296D01*
X611583Y18623D01*
X612567Y19607D01*
X612723Y19983D01*
X614097D01*
X614253Y19607D01*
X615237Y18623D01*
X616524Y18090D01*
X617916D01*
X619203Y18623D01*
X620187Y19607D01*
X620720Y20894D01*
Y22286D01*
X620187Y23573D01*
X619203Y24557D01*
X617916Y25090D01*
D02*
G37*
%LPD*%
D13*
X843650Y838000D02*
X842893Y840825D01*
X840825Y842893D01*
X838000Y843650D01*
X770000D02*
X767636Y843275D01*
X765504Y842189D01*
X763811Y840496D01*
X762725Y838364D01*
X762350Y836000D01*
X840012Y776350D02*
X842562Y777399D01*
X843650Y779933D01*
X840001Y776350D02*
X837457Y776151D01*
X834975Y775559D01*
X832615Y774587D01*
X830436Y773260D01*
X828489Y771611D01*
X826823Y769678D01*
X825477Y767510D01*
X824486Y765159D01*
X823872Y762682D01*
X823651Y760140D01*
X742000Y815650D02*
X744451Y815798D01*
X746867Y816240D01*
X749212Y816970D01*
X751451Y817978D01*
X753553Y819247D01*
X755487Y820761D01*
X757225Y822497D01*
X758740Y824429D01*
X760012Y826529D01*
X761022Y828768D01*
X761755Y831112D01*
X762199Y833527D01*
X762350Y835978D01*
X823650Y420000D02*
X823851Y417442D01*
X824450Y414948D01*
X825432Y412577D01*
X826772Y410390D01*
X828439Y408439D01*
X830390Y406772D01*
X832577Y405432D01*
X834948Y404450D01*
X837442Y403851D01*
X840000Y403650D01*
X843650Y400000D02*
X842581Y402581D01*
X840000Y403650D01*
X838000Y6350D02*
X840821Y7105D01*
X842889Y9168D01*
X843650Y11988D01*
X87650Y835978D02*
X87801Y833527D01*
X88245Y831112D01*
X88978Y828768D01*
X89988Y826529D01*
X91260Y824429D01*
X92775Y822497D01*
X94513Y820761D01*
X96447Y819247D01*
X98549Y817978D01*
X100788Y816970D01*
X103133Y816240D01*
X105549Y815798D01*
X108000Y815650D01*
X87650Y836000D02*
X87276Y838360D01*
X86193Y840490D01*
X84506Y842182D01*
X82378Y843271D01*
X80019Y843650D01*
X12000Y843650D02*
X9175Y842893D01*
X7107Y840825D01*
X6350Y838000D01*
X26350Y766130D02*
X26149Y768688D01*
X25550Y771182D01*
X24568Y773553D01*
X23228Y775740D01*
X21561Y777691D01*
X19611Y779358D01*
X17423Y780698D01*
X15053Y781680D01*
X12558Y782279D01*
X10000Y782480D01*
X6350Y786130D02*
X7419Y783549D01*
X10000Y782480D01*
X10000Y396080D02*
X12558Y396281D01*
X15053Y396880D01*
X17423Y397862D01*
X19611Y399202D01*
X21561Y400869D01*
X23228Y402820D01*
X24568Y405007D01*
X25550Y407378D01*
X26149Y409872D01*
X26350Y412430D01*
X10000Y396080D02*
X7419Y395011D01*
X6350Y392430D01*
Y12000D02*
X7105Y9179D01*
X9168Y7111D01*
X11988Y6350D01*
X770000Y843650D02*
X838000D01*
X843650Y780001D02*
Y838000D01*
X823650Y420000D02*
Y760000D01*
X843650Y12000D02*
X843650Y400000D01*
X108000Y815650D02*
X742000D01*
X12018Y843650D02*
X80000Y843650D01*
X6350Y786130D02*
Y838000D01*
X12000Y6350D02*
X837975Y6350D01*
X26350Y412430D02*
Y766130D01*
X6350Y12025D02*
X6350Y392412D01*
D21*
X725170Y298450D02*
Y346000D01*
X711200Y165300D02*
Y284480D01*
X725170Y298450D01*
X711200Y165300D02*
X737300Y139200D01*
D24*
X555400Y427000D02*
D03*
X568100Y439700D02*
D03*
Y414300D02*
D03*
X580800Y427000D02*
D03*
X555400Y355000D02*
D03*
X568100Y367700D02*
D03*
Y342300D02*
D03*
X580800Y355000D02*
D03*
X462060D02*
D03*
X474760Y367700D02*
D03*
Y342300D02*
D03*
X487460Y355000D02*
D03*
X368720Y427000D02*
D03*
X381420Y439700D02*
D03*
Y414300D02*
D03*
X394120Y427000D02*
D03*
X462060D02*
D03*
X474760Y439700D02*
D03*
Y414300D02*
D03*
X487460Y427000D02*
D03*
X368720Y355000D02*
D03*
X381420Y367700D02*
D03*
Y342300D02*
D03*
X394120Y355000D02*
D03*
X275380D02*
D03*
X288080Y367700D02*
D03*
Y342300D02*
D03*
X300780Y355000D02*
D03*
X275380Y427000D02*
D03*
X288080Y439700D02*
D03*
Y414300D02*
D03*
X300780Y427000D02*
D03*
X275380Y499000D02*
D03*
X288080Y511700D02*
D03*
Y486300D02*
D03*
X300780Y499000D02*
D03*
X368720D02*
D03*
X381420Y511700D02*
D03*
Y486300D02*
D03*
X394120Y499000D02*
D03*
X462060D02*
D03*
X474760Y511700D02*
D03*
Y486300D02*
D03*
X487460Y499000D02*
D03*
X555400D02*
D03*
X568100Y511700D02*
D03*
Y486300D02*
D03*
X580800Y499000D02*
D03*
X555400Y571000D02*
D03*
X568100Y583700D02*
D03*
Y558300D02*
D03*
X580800Y571000D02*
D03*
X462060D02*
D03*
X474760Y583700D02*
D03*
Y558300D02*
D03*
X487460Y571000D02*
D03*
X368720D02*
D03*
X381420Y583700D02*
D03*
Y558300D02*
D03*
X394120Y571000D02*
D03*
X275380D02*
D03*
X288080Y583700D02*
D03*
Y558300D02*
D03*
X300780Y571000D02*
D03*
X182040D02*
D03*
X194740Y583700D02*
D03*
Y558300D02*
D03*
X207440Y571000D02*
D03*
X182040Y499000D02*
D03*
X194740Y511700D02*
D03*
Y486300D02*
D03*
X207440Y499000D02*
D03*
X182040Y427000D02*
D03*
X194740Y439700D02*
D03*
Y414300D02*
D03*
X207440Y427000D02*
D03*
X182040Y355000D02*
D03*
X194740Y367700D02*
D03*
Y342300D02*
D03*
X207440Y355000D02*
D03*
X88700D02*
D03*
X101400Y367700D02*
D03*
Y342300D02*
D03*
X114100Y355000D02*
D03*
X88700Y427000D02*
D03*
X101400Y439700D02*
D03*
Y414300D02*
D03*
X114100Y427000D02*
D03*
X88700Y499000D02*
D03*
X101400Y511700D02*
D03*
Y486300D02*
D03*
X114100Y499000D02*
D03*
X88700Y571000D02*
D03*
X101400Y583700D02*
D03*
Y558300D02*
D03*
X114100Y571000D02*
D03*
X182040Y643000D02*
D03*
X194740Y655700D02*
D03*
Y630300D02*
D03*
X207440Y643000D02*
D03*
X275380D02*
D03*
X288080Y655700D02*
D03*
Y630300D02*
D03*
X300780Y643000D02*
D03*
X368720D02*
D03*
X381420Y655700D02*
D03*
Y630300D02*
D03*
X394120Y643000D02*
D03*
X462060D02*
D03*
X474760Y655700D02*
D03*
Y630300D02*
D03*
X487460Y643000D02*
D03*
X580800D02*
D03*
X568100Y630300D02*
D03*
Y655700D02*
D03*
X555400Y643000D02*
D03*
Y715000D02*
D03*
X568100Y727700D02*
D03*
Y702300D02*
D03*
X580800Y715000D02*
D03*
X462060D02*
D03*
X474760Y727700D02*
D03*
Y702300D02*
D03*
X487460Y715000D02*
D03*
X368720D02*
D03*
X381420Y727700D02*
D03*
Y702300D02*
D03*
X394120Y715000D02*
D03*
X275380D02*
D03*
X288080Y727700D02*
D03*
Y702300D02*
D03*
X300780Y715000D02*
D03*
X182040D02*
D03*
X194740Y727700D02*
D03*
Y702300D02*
D03*
X207440Y715000D02*
D03*
X88700D02*
D03*
X101400Y727700D02*
D03*
Y702300D02*
D03*
X114100Y715000D02*
D03*
X88700Y643000D02*
D03*
X101400Y655700D02*
D03*
Y630300D02*
D03*
X114100Y643000D02*
D03*
D25*
X837863Y843679D02*
D03*
X827863D02*
D03*
X817863D02*
D03*
X807863D02*
D03*
X797863D02*
D03*
X787863D02*
D03*
X777863D02*
D03*
X767868Y843357D02*
D03*
X762267Y835073D02*
D03*
X759363Y825504D02*
D03*
X752230Y818495D02*
D03*
X742627Y815704D02*
D03*
X732628Y815679D02*
D03*
X722628D02*
D03*
X712628D02*
D03*
X702628D02*
D03*
X692628D02*
D03*
X682628D02*
D03*
X672628D02*
D03*
X662628D02*
D03*
X652628D02*
D03*
X642628D02*
D03*
X632628D02*
D03*
X622628D02*
D03*
X612628D02*
D03*
X602628D02*
D03*
X592628D02*
D03*
X582628D02*
D03*
X572628D02*
D03*
X562628D02*
D03*
X552628D02*
D03*
X542628D02*
D03*
X532628D02*
D03*
X522628D02*
D03*
X512628D02*
D03*
X502628D02*
D03*
X492628D02*
D03*
X482628D02*
D03*
X472628D02*
D03*
X462628D02*
D03*
X452628D02*
D03*
X442628D02*
D03*
X432628D02*
D03*
X422628D02*
D03*
X412628D02*
D03*
X402628D02*
D03*
X392628D02*
D03*
X382628D02*
D03*
X372628D02*
D03*
X362628D02*
D03*
X352628D02*
D03*
X342628D02*
D03*
X332628D02*
D03*
X322628D02*
D03*
X312628D02*
D03*
X302628D02*
D03*
X292628D02*
D03*
X282628D02*
D03*
X272628D02*
D03*
X262628D02*
D03*
X252628D02*
D03*
X242628D02*
D03*
X232629D02*
D03*
X222629D02*
D03*
X212629D02*
D03*
X202629D02*
D03*
X192629D02*
D03*
X182629D02*
D03*
X172629D02*
D03*
X162629D02*
D03*
X152629D02*
D03*
X142629D02*
D03*
X132629D02*
D03*
X122629D02*
D03*
X112629D02*
D03*
X102659Y816448D02*
D03*
X93933Y821335D02*
D03*
X88693Y829852D02*
D03*
X86726Y839656D02*
D03*
X77571Y843679D02*
D03*
X67571D02*
D03*
X57571D02*
D03*
X47571D02*
D03*
X37571Y843679D02*
D03*
X27571D02*
D03*
X17571D02*
D03*
X7768Y841704D02*
D03*
X6321Y831809D02*
D03*
Y821809D02*
D03*
Y811810D02*
D03*
Y801810D02*
D03*
Y791810D02*
D03*
X10419Y782688D02*
D03*
X19766Y779132D02*
D03*
X25583Y770999D02*
D03*
X26321Y761026D02*
D03*
Y751026D02*
D03*
Y741026D02*
D03*
Y731026D02*
D03*
Y721026D02*
D03*
Y711026D02*
D03*
Y701026D02*
D03*
Y691026D02*
D03*
Y681026D02*
D03*
Y671026D02*
D03*
Y661026D02*
D03*
Y651026D02*
D03*
Y641026D02*
D03*
Y631026D02*
D03*
Y621026D02*
D03*
Y611026D02*
D03*
Y601026D02*
D03*
Y591026D02*
D03*
Y581026D02*
D03*
Y571026D02*
D03*
Y561026D02*
D03*
Y551026D02*
D03*
Y541026D02*
D03*
Y531026D02*
D03*
Y521026D02*
D03*
Y511026D02*
D03*
Y501026D02*
D03*
Y491026D02*
D03*
Y481026D02*
D03*
Y471026D02*
D03*
Y461026D02*
D03*
Y451026D02*
D03*
Y441026D02*
D03*
Y431026D02*
D03*
Y421026D02*
D03*
X26332Y411026D02*
D03*
X22373Y401844D02*
D03*
X13880Y396564D02*
D03*
X6321Y390017D02*
D03*
Y380017D02*
D03*
Y370017D02*
D03*
Y360017D02*
D03*
Y350017D02*
D03*
Y340018D02*
D03*
Y330018D02*
D03*
Y320018D02*
D03*
Y310018D02*
D03*
Y300018D02*
D03*
Y290018D02*
D03*
Y280018D02*
D03*
Y270018D02*
D03*
Y260018D02*
D03*
Y250018D02*
D03*
Y240018D02*
D03*
Y230018D02*
D03*
Y220018D02*
D03*
Y210018D02*
D03*
Y200018D02*
D03*
Y190018D02*
D03*
Y180018D02*
D03*
Y170018D02*
D03*
Y160018D02*
D03*
Y150018D02*
D03*
Y140018D02*
D03*
Y130018D02*
D03*
Y120018D02*
D03*
Y110018D02*
D03*
Y100018D02*
D03*
Y90018D02*
D03*
Y80018D02*
D03*
Y70018D02*
D03*
Y60018D02*
D03*
Y50018D02*
D03*
Y40018D02*
D03*
Y30018D02*
D03*
Y20018D02*
D03*
X6742Y10027D02*
D03*
X16030Y6321D02*
D03*
X26030D02*
D03*
X36030D02*
D03*
X46030D02*
D03*
X56030D02*
D03*
X66030D02*
D03*
X76030D02*
D03*
X86030D02*
D03*
X96030D02*
D03*
X106030D02*
D03*
X116030D02*
D03*
X126030D02*
D03*
X136030D02*
D03*
X146030D02*
D03*
X156030D02*
D03*
X166030D02*
D03*
X176029D02*
D03*
X186029D02*
D03*
X196029D02*
D03*
X206029D02*
D03*
X216029D02*
D03*
X226029D02*
D03*
X236029D02*
D03*
X246029D02*
D03*
X256029D02*
D03*
X266029D02*
D03*
X276029D02*
D03*
X286029D02*
D03*
X296029D02*
D03*
X306029D02*
D03*
X316029D02*
D03*
X326029D02*
D03*
X336029D02*
D03*
X346029D02*
D03*
X356029D02*
D03*
X366029D02*
D03*
X376029D02*
D03*
X386029D02*
D03*
X396029D02*
D03*
X406029D02*
D03*
X416029D02*
D03*
X426029D02*
D03*
X436029D02*
D03*
X446029D02*
D03*
X456029D02*
D03*
X466029D02*
D03*
X476029D02*
D03*
X486029D02*
D03*
X496029D02*
D03*
X506029D02*
D03*
X516029D02*
D03*
X526029D02*
D03*
X536029D02*
D03*
X546029D02*
D03*
X556029D02*
D03*
X566029D02*
D03*
X576029D02*
D03*
X586029D02*
D03*
X596029D02*
D03*
X606029D02*
D03*
X616029D02*
D03*
X626029D02*
D03*
X636029D02*
D03*
X646029D02*
D03*
X656029D02*
D03*
X666029D02*
D03*
X676029D02*
D03*
X686029D02*
D03*
X696029D02*
D03*
X706029D02*
D03*
X716029D02*
D03*
X726028D02*
D03*
X736028D02*
D03*
X746028D02*
D03*
X756028D02*
D03*
X766028D02*
D03*
X776028D02*
D03*
X786028D02*
D03*
X796028D02*
D03*
X806028D02*
D03*
X816028D02*
D03*
X826028D02*
D03*
X836028D02*
D03*
X843566Y12892D02*
D03*
X843679Y22891D02*
D03*
Y32891D02*
D03*
Y42891D02*
D03*
Y52891D02*
D03*
Y62891D02*
D03*
Y72891D02*
D03*
Y82891D02*
D03*
Y92891D02*
D03*
Y102891D02*
D03*
Y112891D02*
D03*
Y122891D02*
D03*
Y132891D02*
D03*
X843679Y142891D02*
D03*
Y152891D02*
D03*
Y162891D02*
D03*
Y172891D02*
D03*
Y182891D02*
D03*
Y192891D02*
D03*
Y202891D02*
D03*
Y212891D02*
D03*
Y222891D02*
D03*
Y232891D02*
D03*
Y242891D02*
D03*
Y252891D02*
D03*
Y262891D02*
D03*
X843679Y272891D02*
D03*
Y282891D02*
D03*
Y292891D02*
D03*
Y302891D02*
D03*
Y312890D02*
D03*
Y322891D02*
D03*
Y332891D02*
D03*
Y342891D02*
D03*
Y352891D02*
D03*
Y362890D02*
D03*
Y372890D02*
D03*
Y382890D02*
D03*
Y392890D02*
D03*
X842293Y402794D02*
D03*
X832651Y405444D02*
D03*
X825524Y412458D02*
D03*
X823679Y422287D02*
D03*
X823679Y432287D02*
D03*
X823679Y442287D02*
D03*
X823679Y452287D02*
D03*
X823679Y462287D02*
D03*
X823679Y472287D02*
D03*
X823679Y482287D02*
D03*
X823679Y492287D02*
D03*
X823679Y502287D02*
D03*
X823680Y512287D02*
D03*
X823680Y522287D02*
D03*
X823680Y532287D02*
D03*
X823680Y542286D02*
D03*
X823680Y552286D02*
D03*
X823680Y562286D02*
D03*
X823680Y572286D02*
D03*
X823680Y582286D02*
D03*
X823680Y592286D02*
D03*
X823680Y602286D02*
D03*
X823680Y612286D02*
D03*
X823680Y622286D02*
D03*
X823680Y632286D02*
D03*
X823680Y642286D02*
D03*
X823680Y652286D02*
D03*
X823680Y662286D02*
D03*
X823680Y672286D02*
D03*
X823680Y682286D02*
D03*
X823680Y692286D02*
D03*
X823680Y702286D02*
D03*
X823680Y712286D02*
D03*
X823680Y722286D02*
D03*
X823680Y732286D02*
D03*
X823680Y742286D02*
D03*
X823680Y752286D02*
D03*
X823901Y762284D02*
D03*
X828215Y771305D02*
D03*
X837038Y776011D02*
D03*
X843679Y783487D02*
D03*
Y793487D02*
D03*
Y803487D02*
D03*
Y813487D02*
D03*
Y823487D02*
D03*
Y833487D02*
D03*
X328168Y278306D02*
D03*
X321310Y279400D02*
D03*
X339874Y292205D02*
D03*
X339574Y27647D02*
D03*
X321310Y109220D02*
D03*
X321311Y102871D02*
D03*
X712470Y375920D02*
D03*
Y298450D02*
D03*
X527050Y208280D02*
D03*
Y224190D02*
D03*
X701040Y292629D02*
D03*
Y274320D02*
D03*
Y260879D02*
D03*
Y236220D02*
D03*
Y222779D02*
D03*
Y209338D02*
D03*
X713740Y153670D02*
D03*
X700299D02*
D03*
X686858D02*
D03*
X579120Y64770D02*
D03*
Y78211D02*
D03*
Y91652D02*
D03*
X769620Y58420D02*
D03*
Y71861D02*
D03*
Y85302D02*
D03*
X687070Y105410D02*
D03*
X700511D02*
D03*
X713952D02*
D03*
X687070Y121920D02*
D03*
X700511D02*
D03*
X713952D02*
D03*
X594360Y21590D02*
D03*
X601980D02*
D03*
X617220D02*
D03*
X609600D02*
D03*
X748030D02*
D03*
X755650D02*
D03*
X748030Y29210D02*
D03*
X755650D02*
D03*
X383752Y312420D02*
D03*
X271780Y176530D02*
D03*
Y158512D02*
D03*
X431800Y228600D02*
D03*
X679450Y248920D02*
D03*
Y271780D02*
D03*
X718820Y248920D02*
D03*
X633730Y262890D02*
D03*
X255270Y81280D02*
D03*
X615950Y320040D02*
D03*
Y342900D02*
D03*
Y381000D02*
D03*
Y414020D02*
D03*
X617220Y450850D02*
D03*
Y486410D02*
D03*
X618490Y523240D02*
D03*
X615950Y558800D02*
D03*
X617220Y594360D02*
D03*
Y609600D02*
D03*
X622300Y643890D02*
D03*
X613410Y633730D02*
D03*
X618490Y668020D02*
D03*
X615950Y681990D02*
D03*
X613410Y704850D02*
D03*
X623570Y736600D02*
D03*
X767239Y755174D02*
D03*
X749221D02*
D03*
X687070Y671830D02*
D03*
Y681990D02*
D03*
X708660Y697230D02*
D03*
X753110Y681990D02*
D03*
X712470Y670560D02*
D03*
Y679450D02*
D03*
X709930Y601980D02*
D03*
X687070Y596900D02*
D03*
Y607060D02*
D03*
X756920Y645160D02*
D03*
X795020Y579120D02*
D03*
X737870Y595630D02*
D03*
X716280Y527050D02*
D03*
X736600Y525780D02*
D03*
X793750Y535940D02*
D03*
Y494030D02*
D03*
X792480Y450850D02*
D03*
X758190Y474980D02*
D03*
X712470Y454660D02*
D03*
X744220Y452120D02*
D03*
X687070Y378460D02*
D03*
Y389890D02*
D03*
X709930Y381000D02*
D03*
X737870Y379730D02*
D03*
X793750Y405130D02*
D03*
X774700D02*
D03*
X516044Y268357D02*
D03*
X310750Y273050D02*
D03*
X341630Y242570D02*
D03*
X384810Y255270D02*
D03*
X441960Y227330D02*
D03*
X367030Y67310D02*
D03*
X284666Y90170D02*
D03*
X270510Y137160D02*
D03*
X398780Y234950D02*
D03*
X424180Y203200D02*
D03*
X416254D02*
D03*
X635000Y294640D02*
D03*
X676910Y106680D02*
D03*
X583346Y177941D02*
D03*
X615950Y223520D02*
D03*
X637540D02*
D03*
X675640Y304800D02*
D03*
X662940Y262890D02*
D03*
X744220Y346000D02*
D03*
X463788Y116840D02*
D03*
X445770D02*
D03*
X427752D02*
D03*
X689398Y745490D02*
D03*
X702839D02*
D03*
X716280D02*
D03*
X729721D02*
D03*
X756920Y587481D02*
D03*
Y574040D02*
D03*
Y560599D02*
D03*
Y534882D02*
D03*
Y521441D02*
D03*
Y508000D02*
D03*
Y494559D02*
D03*
X687070Y461751D02*
D03*
Y448310D02*
D03*
Y535411D02*
D03*
Y521970D02*
D03*
X760730Y297498D02*
D03*
Y310938D02*
D03*
Y324379D02*
D03*
Y337820D02*
D03*
Y405024D02*
D03*
Y391583D02*
D03*
Y378142D02*
D03*
Y364702D02*
D03*
Y351261D02*
D03*
X726440Y290830D02*
D03*
X575733Y287620D02*
D03*
X521970Y285150D02*
D03*
X478790Y215300D02*
D03*
X435610D02*
D03*
X398780Y224331D02*
D03*
X394970Y176600D02*
D03*
Y160690D02*
D03*
Y144780D02*
D03*
X398780Y208421D02*
D03*
X476250Y78811D02*
D03*
Y62900D02*
D03*
Y46990D02*
D03*
Y110631D02*
D03*
Y94721D02*
D03*
X556260Y146121D02*
D03*
Y130210D02*
D03*
Y114300D02*
D03*
Y177941D02*
D03*
Y162031D02*
D03*
X528320Y180269D02*
D03*
Y116628D02*
D03*
Y132539D02*
D03*
Y148449D02*
D03*
Y55668D02*
D03*
Y69109D02*
D03*
Y82550D02*
D03*
X688340Y58208D02*
D03*
Y71649D02*
D03*
Y85090D02*
D03*
X816610Y82762D02*
D03*
Y96203D02*
D03*
Y109643D02*
D03*
Y123084D02*
D03*
Y136525D02*
D03*
Y149966D02*
D03*
Y163407D02*
D03*
Y176848D02*
D03*
Y190288D02*
D03*
Y203729D02*
D03*
Y217170D02*
D03*
X791210D02*
D03*
Y203729D02*
D03*
Y190288D02*
D03*
Y176848D02*
D03*
Y163407D02*
D03*
Y149966D02*
D03*
Y136525D02*
D03*
Y123084D02*
D03*
Y109643D02*
D03*
Y96203D02*
D03*
Y82762D02*
D03*
Y69321D02*
D03*
X807720Y323321D02*
D03*
Y309880D02*
D03*
Y296439D02*
D03*
X677148Y773192D02*
D03*
X659130D02*
D03*
X641112D02*
D03*
X623094D02*
D03*
X749221D02*
D03*
X767239D02*
D03*
X785257D02*
D03*
X731202D02*
D03*
X713184D02*
D03*
X695166D02*
D03*
X605076D02*
D03*
X677148Y791210D02*
D03*
X695166D02*
D03*
X713184D02*
D03*
X767239D02*
D03*
X749221D02*
D03*
X731202D02*
D03*
X605076D02*
D03*
X623094D02*
D03*
X641112D02*
D03*
X659130D02*
D03*
X587057D02*
D03*
X569039D02*
D03*
X551021D02*
D03*
X533003D02*
D03*
X514985D02*
D03*
X496967D02*
D03*
X478949D02*
D03*
X460931D02*
D03*
X442912D02*
D03*
X424894D02*
D03*
X406876D02*
D03*
X388858D02*
D03*
X82550D02*
D03*
X100568D02*
D03*
X118586D02*
D03*
X136604D02*
D03*
X154622D02*
D03*
X172641D02*
D03*
X190659D02*
D03*
X208677D02*
D03*
X226695D02*
D03*
X244713D02*
D03*
X262731D02*
D03*
X280749D02*
D03*
X298768D02*
D03*
X370840D02*
D03*
X352822D02*
D03*
X334804D02*
D03*
X316786D02*
D03*
X44450Y83661D02*
D03*
Y101679D02*
D03*
Y119698D02*
D03*
Y317738D02*
D03*
Y299720D02*
D03*
Y209788D02*
D03*
Y191770D02*
D03*
Y173752D02*
D03*
Y155734D02*
D03*
Y137716D02*
D03*
X54610Y444024D02*
D03*
Y426006D02*
D03*
Y407988D02*
D03*
Y462042D02*
D03*
Y768350D02*
D03*
Y750332D02*
D03*
Y732314D02*
D03*
Y714296D02*
D03*
Y696277D02*
D03*
Y678259D02*
D03*
Y660241D02*
D03*
Y642223D02*
D03*
Y624205D02*
D03*
Y606187D02*
D03*
Y588169D02*
D03*
Y570151D02*
D03*
Y552132D02*
D03*
Y480060D02*
D03*
Y498078D02*
D03*
Y516096D02*
D03*
Y534114D02*
D03*
X231140Y314960D02*
D03*
X280670Y44688D02*
D03*
X231140Y80724D02*
D03*
Y62706D02*
D03*
Y44688D02*
D03*
Y26670D02*
D03*
X181610Y80724D02*
D03*
Y62706D02*
D03*
Y44688D02*
D03*
Y26670D02*
D03*
X132080Y80724D02*
D03*
Y62706D02*
D03*
Y44688D02*
D03*
Y26670D02*
D03*
X82550D02*
D03*
Y44688D02*
D03*
Y62706D02*
D03*
Y80724D02*
D03*
X280670Y116761D02*
D03*
X271780Y206851D02*
D03*
Y224869D02*
D03*
Y242887D02*
D03*
Y260906D02*
D03*
Y296942D02*
D03*
Y314960D02*
D03*
X231140Y98743D02*
D03*
Y116761D02*
D03*
Y134779D02*
D03*
Y152797D02*
D03*
Y170815D02*
D03*
Y188833D02*
D03*
Y206851D02*
D03*
Y224869D02*
D03*
Y242887D02*
D03*
Y260906D02*
D03*
Y278924D02*
D03*
Y296942D02*
D03*
X181610Y98743D02*
D03*
Y116761D02*
D03*
Y134779D02*
D03*
Y152797D02*
D03*
Y170815D02*
D03*
Y188833D02*
D03*
Y206851D02*
D03*
Y224869D02*
D03*
Y242887D02*
D03*
Y260906D02*
D03*
Y278924D02*
D03*
Y296942D02*
D03*
Y314960D02*
D03*
X132080Y98743D02*
D03*
Y116761D02*
D03*
Y134779D02*
D03*
Y152797D02*
D03*
Y170815D02*
D03*
Y188833D02*
D03*
Y206851D02*
D03*
Y224869D02*
D03*
Y242887D02*
D03*
Y260906D02*
D03*
Y278924D02*
D03*
Y296942D02*
D03*
Y314960D02*
D03*
X82550Y98743D02*
D03*
Y116761D02*
D03*
Y134779D02*
D03*
Y152797D02*
D03*
Y170815D02*
D03*
Y188833D02*
D03*
Y206851D02*
D03*
Y224869D02*
D03*
Y242887D02*
D03*
Y260906D02*
D03*
Y278924D02*
D03*
Y296942D02*
D03*
Y314960D02*
D03*
X521970Y303530D02*
D03*
X535411D02*
D03*
X562292D02*
D03*
X575733D02*
D03*
X589174D02*
D03*
X635000Y304800D02*
D03*
X356870Y312420D02*
D03*
X370311D02*
D03*
X397192D02*
D03*
X410633D02*
D03*
X424074D02*
D03*
X437515D02*
D03*
X450956D02*
D03*
X464397D02*
D03*
X477837D02*
D03*
X491278D02*
D03*
X807720Y410210D02*
D03*
Y423651D02*
D03*
Y437092D02*
D03*
Y450532D02*
D03*
Y463973D02*
D03*
Y477414D02*
D03*
Y490855D02*
D03*
Y504296D02*
D03*
Y517737D02*
D03*
Y531177D02*
D03*
Y544618D02*
D03*
Y558059D02*
D03*
Y571500D02*
D03*
X784860Y702580D02*
D03*
X449270Y281940D02*
D03*
X367030Y78740D02*
D03*
X263694Y81280D02*
D03*
X284666D02*
D03*
Y72390D02*
D03*
X772160Y723900D02*
D03*
X757580Y548030D02*
D03*
X754380Y690080D02*
D03*
X310750Y279400D02*
D03*
X767080Y515620D02*
D03*
X760730Y677580D02*
D03*
X506198Y312420D02*
D03*
X745490Y706120D02*
D03*
X671830Y744220D02*
D03*
Y681990D02*
D03*
Y672220D02*
D03*
X744220Y634000D02*
D03*
Y562000D02*
D03*
X671830Y609990D02*
D03*
Y600220D02*
D03*
Y537990D02*
D03*
Y528220D02*
D03*
Y465990D02*
D03*
Y456220D02*
D03*
X744220Y490220D02*
D03*
Y417830D02*
D03*
X671830Y393990D02*
D03*
Y384220D02*
D03*
Y321990D02*
D03*
X556260Y207247D02*
D03*
X497840Y102870D02*
D03*
X528320Y164359D02*
D03*
X505460Y163830D02*
D03*
X481330Y194310D02*
D03*
X459740Y261770D02*
D03*
X441543Y295888D02*
D03*
X394970Y292205D02*
D03*
X333900Y276860D02*
D03*
X394970Y27647D02*
D03*
X347816Y63080D02*
D03*
X304283Y113030D02*
D03*
X374650Y184150D02*
D03*
X317500Y217060D02*
D03*
X270510Y130432D02*
D03*
X626110Y236220D02*
D03*
X589280D02*
D03*
X449270Y231195D02*
D03*
X341630Y248920D02*
D03*
X438150Y248770D02*
D03*
X384810Y241300D02*
D03*
X338455Y199390D02*
D03*
X518160Y261770D02*
D03*
X641350Y271980D02*
D03*
X767280Y450850D02*
D03*
X736600Y519430D02*
D03*
X758190Y482363D02*
D03*
Y665080D02*
D03*
X616320Y261620D02*
D03*
X517040Y248770D02*
D03*
X718821Y321310D02*
D03*
X718820Y447040D02*
D03*
X709930Y462280D02*
D03*
Y591820D02*
D03*
X736600Y397192D02*
D03*
X718821Y535940D02*
D03*
Y664210D02*
D03*
X736600Y735330D02*
D03*
Y613410D02*
D03*
X725170Y346000D02*
D03*
Y418000D02*
D03*
Y490000D02*
D03*
Y562000D02*
D03*
Y706000D02*
D03*
Y634000D02*
D03*
X701039Y698407D02*
D03*
Y554727D02*
D03*
Y482886D02*
D03*
Y411046D02*
D03*
Y339205D02*
D03*
Y626567D02*
D03*
X690880Y357500D02*
D03*
X629920Y355000D02*
D03*
Y342500D02*
D03*
Y367500D02*
D03*
X661630Y321990D02*
D03*
X651630D02*
D03*
X685200Y352500D02*
D03*
X622300Y347500D02*
D03*
X646630Y327070D02*
D03*
X622300Y362500D02*
D03*
X656630Y327070D02*
D03*
X646630Y384220D02*
D03*
X666630Y327070D02*
D03*
X690880Y429500D02*
D03*
X629920Y427000D02*
D03*
Y414500D02*
D03*
Y439500D02*
D03*
X661630Y393990D02*
D03*
X651630D02*
D03*
X685200Y424500D02*
D03*
X622300Y419500D02*
D03*
X646630Y399070D02*
D03*
X622300Y434500D02*
D03*
X656630Y399070D02*
D03*
X646630Y456220D02*
D03*
X666630Y399070D02*
D03*
X690880Y501500D02*
D03*
X629920Y499000D02*
D03*
Y486500D02*
D03*
Y511500D02*
D03*
X661630Y465990D02*
D03*
X651630D02*
D03*
X685200Y496500D02*
D03*
X622300Y491500D02*
D03*
X646630Y471070D02*
D03*
X622300Y506500D02*
D03*
X656630Y471070D02*
D03*
X646630Y528220D02*
D03*
X666630Y471070D02*
D03*
X690880Y573500D02*
D03*
X629920Y571000D02*
D03*
Y558500D02*
D03*
Y583500D02*
D03*
X661630Y537990D02*
D03*
X651630D02*
D03*
X685200Y568500D02*
D03*
X622300Y563500D02*
D03*
X646630Y543070D02*
D03*
X622300Y578500D02*
D03*
X656630Y543070D02*
D03*
X646630Y600220D02*
D03*
X666630Y543070D02*
D03*
X690880Y645500D02*
D03*
X629920Y643000D02*
D03*
Y630500D02*
D03*
Y655500D02*
D03*
X661630Y609990D02*
D03*
X651630D02*
D03*
X685200Y640500D02*
D03*
X622300Y635500D02*
D03*
X646630Y615070D02*
D03*
X622300Y650500D02*
D03*
X656630Y615070D02*
D03*
X646630Y672220D02*
D03*
X666630Y615070D02*
D03*
Y687070D02*
D03*
X646630Y744220D02*
D03*
X622300Y722500D02*
D03*
X646630Y687070D02*
D03*
X622300Y707500D02*
D03*
X656630Y687070D02*
D03*
X651630Y681990D02*
D03*
X661630D02*
D03*
X685200Y712500D02*
D03*
X690880Y717500D02*
D03*
X629920Y715000D02*
D03*
Y702500D02*
D03*
Y727500D02*
D03*
D26*
X52165Y239835D02*
D03*
X19835D02*
D03*
Y272164D02*
D03*
X52165D02*
D03*
X58860Y256000D02*
D03*
X36000Y233140D02*
D03*
X13140Y256000D02*
D03*
X36000Y278860D02*
D03*
X52165Y19835D02*
D03*
X19835D02*
D03*
Y52165D02*
D03*
X52165D02*
D03*
X58860Y36000D02*
D03*
X36000Y13140D02*
D03*
X13140Y36000D02*
D03*
X36000Y58860D02*
D03*
X830164Y19835D02*
D03*
X797835D02*
D03*
Y52165D02*
D03*
X830164D02*
D03*
X836860Y36000D02*
D03*
X814000Y13140D02*
D03*
X791140Y36000D02*
D03*
X814000Y58860D02*
D03*
X830164Y239835D02*
D03*
X797835D02*
D03*
Y272164D02*
D03*
X830164D02*
D03*
X836860Y256000D02*
D03*
X814000Y233140D02*
D03*
X791140Y256000D02*
D03*
X814000Y278860D02*
D03*
X830164Y347836D02*
D03*
X797835D02*
D03*
Y380164D02*
D03*
X830164D02*
D03*
X836860Y364000D02*
D03*
X814000Y341140D02*
D03*
X791140Y364000D02*
D03*
X814000Y386860D02*
D03*
X830164Y797835D02*
D03*
X797835D02*
D03*
Y830164D02*
D03*
X830164D02*
D03*
X836860Y814000D02*
D03*
X814000Y791140D02*
D03*
X791140Y814000D02*
D03*
X814000Y836860D02*
D03*
X52165Y797835D02*
D03*
X19835D02*
D03*
Y830164D02*
D03*
X52165D02*
D03*
X58860Y814000D02*
D03*
X36000Y791140D02*
D03*
X13140Y814000D02*
D03*
X36000Y836860D02*
D03*
X52165Y347836D02*
D03*
X19835D02*
D03*
Y380164D02*
D03*
X52165D02*
D03*
X58860Y364000D02*
D03*
X36000Y341140D02*
D03*
X13140Y364000D02*
D03*
X36000Y386860D02*
D03*
D27*
Y256000D02*
D03*
Y36000D02*
D03*
X814000D02*
D03*
Y256000D02*
D03*
Y364000D02*
D03*
Y814000D02*
D03*
X36000D02*
D03*
Y364000D02*
D03*
D28*
X762700Y113800D02*
D03*
Y139200D02*
D03*
Y164600D02*
D03*
Y190000D02*
D03*
Y215400D02*
D03*
Y240800D02*
D03*
Y266200D02*
D03*
X737300Y139200D02*
D03*
Y164600D02*
D03*
Y190000D02*
D03*
Y215400D02*
D03*
Y240800D02*
D03*
Y266200D02*
D03*
D29*
Y113800D02*
D03*
D30*
Y139200D01*
M02*
