G04*
G04 #@! TF.GenerationSoftware,Altium Limited,Altium Designer,24.1.2 (44)*
G04*
G04 Layer_Color=0*
%FSLAX44Y44*%
%MOMM*%
G71*
G04*
G04 #@! TF.SameCoordinates,5314DEDE-577F-4EBF-A64F-C18D5B13DC84*
G04*
G04*
G04 #@! TF.FilePolarity,Positive*
G04*
G01*
G75*
%ADD94C,0.0254*%
D94*
X-5000Y11973D02*
G03*
X12000Y-5000I17000J27D01*
G01*
X12016Y-5000D01*
X838000Y-5000D01*
X838027Y-5000D01*
D02*
G03*
X855000Y12000I-27J17000D01*
G01*
X855000Y12016D01*
X855000Y400000D01*
D02*
G03*
X840000Y415000I-15000J0D01*
G01*
D02*
G02*
X835000Y420000I-0J5000D01*
G01*
Y759903D01*
X835001Y760000D01*
D02*
G02*
X839990Y765000I5000J-0D01*
G01*
X840001Y765000D01*
D02*
G03*
X855001Y780000I0J15000D01*
G01*
X855000Y780099D01*
Y838000D01*
D02*
G03*
X838000Y855000I-17000J0D01*
G01*
X770000D01*
D02*
G03*
X751000Y836019I-0J-19000D01*
G01*
X751000Y836000D01*
D02*
G02*
X742000Y827000I-9000J0D01*
G01*
X108000D01*
D02*
G02*
X99000Y836000I0J9000D01*
G01*
X99000Y836019D01*
D02*
G03*
X80000Y855000I-19000J-19D01*
G01*
X79977Y855000D01*
X12000Y855000D01*
X11981Y855000D01*
D02*
G03*
X-5000Y838000I19J-17000D01*
G01*
Y786130D01*
D02*
G03*
X10000Y771130I15000J0D01*
G01*
D02*
G02*
X15000Y766130I0J-5000D01*
G01*
Y412430D01*
D02*
G02*
X10000Y407430I-5000J0D01*
G01*
D02*
G03*
X-5000Y392449I-0J-15000D01*
G01*
X-5000Y392430D01*
X-5000Y11973D01*
M02*
