G04*
G04 #@! TF.GenerationSoftware,Altium Limited,Altium Designer,24.1.2 (44)*
G04*
G04 Layer_Color=8421504*
%FSLAX44Y44*%
%MOMM*%
G71*
G04*
G04 #@! TF.SameCoordinates,5314DEDE-577F-4EBF-A64F-C18D5B13DC84*
G04*
G04*
G04 #@! TF.FilePolarity,Positive*
G04*
G01*
G75*
%ADD13C,1.2700*%
D13*
X87650Y836000D02*
X87276Y838360D01*
X86193Y840490D01*
X84506Y842182D01*
X82378Y843271D01*
X80019Y843650D01*
X6350Y12000D02*
X7105Y9179D01*
X9168Y7111D01*
X11988Y6350D01*
X742000Y815650D02*
X744451Y815798D01*
X746867Y816240D01*
X749212Y816970D01*
X751451Y817978D01*
X753553Y819247D01*
X755487Y820761D01*
X757225Y822497D01*
X758740Y824429D01*
X760012Y826529D01*
X761022Y828768D01*
X761755Y831112D01*
X762199Y833527D01*
X762350Y835978D01*
X10000Y396080D02*
X7419Y395011D01*
X6350Y392430D01*
X87650Y835978D02*
X87801Y833527D01*
X88245Y831112D01*
X88978Y828768D01*
X89988Y826529D01*
X91260Y824429D01*
X92775Y822497D01*
X94513Y820761D01*
X96447Y819247D01*
X98549Y817978D01*
X100788Y816970D01*
X103133Y816240D01*
X105549Y815798D01*
X108000Y815650D01*
X840001Y776350D02*
X837457Y776151D01*
X834975Y775559D01*
X832615Y774587D01*
X830436Y773260D01*
X828489Y771611D01*
X826823Y769678D01*
X825477Y767510D01*
X824486Y765159D01*
X823872Y762682D01*
X823651Y760140D01*
X840012Y776350D02*
X842562Y777399D01*
X843650Y779933D01*
X10000Y396080D02*
X12558Y396281D01*
X15053Y396880D01*
X17423Y397862D01*
X19611Y399202D01*
X21561Y400869D01*
X23228Y402820D01*
X24568Y405007D01*
X25550Y407378D01*
X26149Y409872D01*
X26350Y412430D01*
X838000Y6350D02*
X840821Y7105D01*
X842889Y9168D01*
X843650Y11988D01*
X6350Y786130D02*
X7419Y783549D01*
X10000Y782480D01*
X843650Y400000D02*
X842581Y402581D01*
X840000Y403650D01*
X770000Y843650D02*
X767636Y843275D01*
X765504Y842189D01*
X763811Y840496D01*
X762725Y838364D01*
X762350Y836000D01*
X843650Y838000D02*
X842893Y840825D01*
X840825Y842893D01*
X838000Y843650D01*
X26350Y766130D02*
X26149Y768688D01*
X25550Y771182D01*
X24568Y773553D01*
X23228Y775740D01*
X21561Y777691D01*
X19611Y779358D01*
X17423Y780698D01*
X15053Y781680D01*
X12558Y782279D01*
X10000Y782480D01*
X12000Y843650D02*
X9175Y842893D01*
X7107Y840825D01*
X6350Y838000D01*
X823650Y420000D02*
X823851Y417442D01*
X824450Y414948D01*
X825432Y412577D01*
X826772Y410390D01*
X828439Y408439D01*
X830390Y406772D01*
X832577Y405432D01*
X834948Y404450D01*
X837442Y403851D01*
X840000Y403650D01*
X823650Y420000D02*
Y682286D01*
Y760000D01*
X6350Y12025D02*
X6350Y392412D01*
X843650Y12000D02*
X843650Y400000D01*
X26350Y412430D02*
Y766130D01*
X12000Y6350D02*
X837975Y6350D01*
X843650Y780001D02*
Y838000D01*
X770000Y843650D02*
X838000D01*
X6350Y786130D02*
Y838000D01*
X12018Y843650D02*
X80000Y843650D01*
X108000Y815650D02*
X742000D01*
M02*
