G04*
G04 #@! TF.GenerationSoftware,Altium Limited,Altium Designer,24.1.2 (44)*
G04*
G04 Layer_Color=255*
%FSLAX44Y44*%
%MOMM*%
G71*
G04*
G04 #@! TF.SameCoordinates,A1CAFFC3-4532-48F1-AA43-BC187200CDC2*
G04*
G04*
G04 #@! TF.FilePolarity,Positive*
G04*
G01*
G75*
%ADD24C,0.8000*%
%ADD25C,0.4000*%
%ADD26C,1.2000*%
%ADD27C,6.0000*%
%ADD28C,1.6000*%
%ADD29R,1.6000X1.6000*%
%ADD34R,3.5000X2.2098*%
%ADD35O,1.2500X0.3500*%
%ADD36R,3.3000X3.1500*%
%ADD37R,0.9000X0.8000*%
%ADD38R,0.6000X0.9000*%
%ADD39R,0.8000X0.9000*%
%ADD40R,0.9000X0.6000*%
%ADD41R,0.4000X1.8000*%
%ADD42R,1.4000X1.3000*%
%ADD43R,1.8796X2.3622*%
%ADD44R,0.9500X0.9000*%
%ADD45R,1.2700X0.4000*%
%ADD46R,1.2700X1.5500*%
%ADD47R,3.1725X2.3455*%
%ADD48R,0.6325X2.3455*%
%ADD49R,2.3622X1.8796*%
%ADD50R,0.9000X0.9500*%
%ADD51R,2.3000X2.2860*%
%ADD52O,1.8000X0.6000*%
%ADD53R,2.3000X2.8000*%
%ADD54C,1.5000*%
%ADD55R,0.9100X1.2200*%
%ADD56R,2.5000X2.5000*%
%ADD57R,0.8048X0.2540*%
%ADD58R,0.2540X0.8048*%
%ADD59R,1.4000X1.4000*%
%ADD60R,1.7018X0.8128*%
D24*
X555400Y427000D02*
D03*
X568100Y439700D02*
D03*
Y414300D02*
D03*
X580800Y427000D02*
D03*
X555400Y355000D02*
D03*
X568100Y367700D02*
D03*
Y342300D02*
D03*
X580800Y355000D02*
D03*
X462060D02*
D03*
X474760Y367700D02*
D03*
Y342300D02*
D03*
X487460Y355000D02*
D03*
X368720Y427000D02*
D03*
X381420Y439700D02*
D03*
Y414300D02*
D03*
X394120Y427000D02*
D03*
X462060D02*
D03*
X474760Y439700D02*
D03*
Y414300D02*
D03*
X487460Y427000D02*
D03*
X368720Y355000D02*
D03*
X381420Y367700D02*
D03*
Y342300D02*
D03*
X394120Y355000D02*
D03*
X275380D02*
D03*
X288080Y367700D02*
D03*
Y342300D02*
D03*
X300780Y355000D02*
D03*
X275380Y427000D02*
D03*
X288080Y439700D02*
D03*
Y414300D02*
D03*
X300780Y427000D02*
D03*
X275380Y499000D02*
D03*
X288080Y511700D02*
D03*
Y486300D02*
D03*
X300780Y499000D02*
D03*
X368720D02*
D03*
X381420Y511700D02*
D03*
Y486300D02*
D03*
X394120Y499000D02*
D03*
X462060D02*
D03*
X474760Y511700D02*
D03*
Y486300D02*
D03*
X487460Y499000D02*
D03*
X555400D02*
D03*
X568100Y511700D02*
D03*
Y486300D02*
D03*
X580800Y499000D02*
D03*
X555400Y571000D02*
D03*
X568100Y583700D02*
D03*
Y558300D02*
D03*
X580800Y571000D02*
D03*
X462060D02*
D03*
X474760Y583700D02*
D03*
Y558300D02*
D03*
X487460Y571000D02*
D03*
X368720D02*
D03*
X381420Y583700D02*
D03*
Y558300D02*
D03*
X394120Y571000D02*
D03*
X275380D02*
D03*
X288080Y583700D02*
D03*
Y558300D02*
D03*
X300780Y571000D02*
D03*
X182040D02*
D03*
X194740Y583700D02*
D03*
Y558300D02*
D03*
X207440Y571000D02*
D03*
X182040Y499000D02*
D03*
X194740Y511700D02*
D03*
Y486300D02*
D03*
X207440Y499000D02*
D03*
X182040Y427000D02*
D03*
X194740Y439700D02*
D03*
Y414300D02*
D03*
X207440Y427000D02*
D03*
X182040Y355000D02*
D03*
X194740Y367700D02*
D03*
Y342300D02*
D03*
X207440Y355000D02*
D03*
X88700D02*
D03*
X101400Y367700D02*
D03*
Y342300D02*
D03*
X114100Y355000D02*
D03*
X88700Y427000D02*
D03*
X101400Y439700D02*
D03*
Y414300D02*
D03*
X114100Y427000D02*
D03*
X88700Y499000D02*
D03*
X101400Y511700D02*
D03*
Y486300D02*
D03*
X114100Y499000D02*
D03*
X88700Y571000D02*
D03*
X101400Y583700D02*
D03*
Y558300D02*
D03*
X114100Y571000D02*
D03*
X182040Y643000D02*
D03*
X194740Y655700D02*
D03*
Y630300D02*
D03*
X207440Y643000D02*
D03*
X275380D02*
D03*
X288080Y655700D02*
D03*
Y630300D02*
D03*
X300780Y643000D02*
D03*
X368720D02*
D03*
X381420Y655700D02*
D03*
Y630300D02*
D03*
X394120Y643000D02*
D03*
X462060D02*
D03*
X474760Y655700D02*
D03*
Y630300D02*
D03*
X487460Y643000D02*
D03*
X580800D02*
D03*
X568100Y630300D02*
D03*
Y655700D02*
D03*
X555400Y643000D02*
D03*
Y715000D02*
D03*
X568100Y727700D02*
D03*
Y702300D02*
D03*
X580800Y715000D02*
D03*
X462060D02*
D03*
X474760Y727700D02*
D03*
Y702300D02*
D03*
X487460Y715000D02*
D03*
X368720D02*
D03*
X381420Y727700D02*
D03*
Y702300D02*
D03*
X394120Y715000D02*
D03*
X275380D02*
D03*
X288080Y727700D02*
D03*
Y702300D02*
D03*
X300780Y715000D02*
D03*
X182040D02*
D03*
X194740Y727700D02*
D03*
Y702300D02*
D03*
X207440Y715000D02*
D03*
X88700D02*
D03*
X101400Y727700D02*
D03*
Y702300D02*
D03*
X114100Y715000D02*
D03*
X88700Y643000D02*
D03*
X101400Y655700D02*
D03*
Y630300D02*
D03*
X114100Y643000D02*
D03*
D25*
X837863Y843679D02*
D03*
X827863D02*
D03*
X817863D02*
D03*
X807863D02*
D03*
X797863D02*
D03*
X787863D02*
D03*
X777863D02*
D03*
X767868Y843357D02*
D03*
X762267Y835073D02*
D03*
X759363Y825504D02*
D03*
X752230Y818495D02*
D03*
X742627Y815704D02*
D03*
X732628Y815679D02*
D03*
X722628D02*
D03*
X712628D02*
D03*
X702628D02*
D03*
X692628D02*
D03*
X682628D02*
D03*
X672628D02*
D03*
X662628D02*
D03*
X652628D02*
D03*
X642628D02*
D03*
X632628D02*
D03*
X622628D02*
D03*
X612628D02*
D03*
X602628D02*
D03*
X592628D02*
D03*
X582628D02*
D03*
X572628D02*
D03*
X562628D02*
D03*
X552628D02*
D03*
X542628D02*
D03*
X532628D02*
D03*
X522628D02*
D03*
X512628D02*
D03*
X502628D02*
D03*
X492628D02*
D03*
X482628D02*
D03*
X472628D02*
D03*
X462628D02*
D03*
X452628D02*
D03*
X442628D02*
D03*
X432628D02*
D03*
X422628D02*
D03*
X412628D02*
D03*
X402628D02*
D03*
X392628D02*
D03*
X382628D02*
D03*
X372628D02*
D03*
X362628D02*
D03*
X352628D02*
D03*
X342628D02*
D03*
X332628D02*
D03*
X322628D02*
D03*
X312628D02*
D03*
X302628D02*
D03*
X292628D02*
D03*
X282628D02*
D03*
X272628D02*
D03*
X262628D02*
D03*
X252628D02*
D03*
X242628D02*
D03*
X232629D02*
D03*
X222629D02*
D03*
X212629D02*
D03*
X202629D02*
D03*
X192629D02*
D03*
X182629D02*
D03*
X172629D02*
D03*
X162629D02*
D03*
X152629D02*
D03*
X142629D02*
D03*
X132629D02*
D03*
X122629D02*
D03*
X112629D02*
D03*
X102659Y816448D02*
D03*
X93933Y821335D02*
D03*
X88693Y829852D02*
D03*
X86726Y839656D02*
D03*
X77571Y843679D02*
D03*
X67571D02*
D03*
X57571D02*
D03*
X47571D02*
D03*
X37571Y843679D02*
D03*
X27571D02*
D03*
X17571D02*
D03*
X7768Y841704D02*
D03*
X6321Y831809D02*
D03*
Y821809D02*
D03*
Y811810D02*
D03*
Y801810D02*
D03*
Y791810D02*
D03*
X10419Y782688D02*
D03*
X19766Y779132D02*
D03*
X25583Y770999D02*
D03*
X26321Y761026D02*
D03*
Y751026D02*
D03*
Y741026D02*
D03*
Y731026D02*
D03*
Y721026D02*
D03*
Y711026D02*
D03*
Y701026D02*
D03*
Y691026D02*
D03*
Y681026D02*
D03*
Y671026D02*
D03*
Y661026D02*
D03*
Y651026D02*
D03*
Y641026D02*
D03*
Y631026D02*
D03*
Y621026D02*
D03*
Y611026D02*
D03*
Y601026D02*
D03*
Y591026D02*
D03*
Y581026D02*
D03*
Y571026D02*
D03*
Y561026D02*
D03*
Y551026D02*
D03*
Y541026D02*
D03*
Y531026D02*
D03*
Y521026D02*
D03*
Y511026D02*
D03*
Y501026D02*
D03*
Y491026D02*
D03*
Y481026D02*
D03*
Y471026D02*
D03*
Y461026D02*
D03*
Y451026D02*
D03*
Y441026D02*
D03*
Y431026D02*
D03*
Y421026D02*
D03*
X26332Y411026D02*
D03*
X22373Y401844D02*
D03*
X13880Y396564D02*
D03*
X6321Y390017D02*
D03*
Y380017D02*
D03*
Y370017D02*
D03*
Y360017D02*
D03*
Y350017D02*
D03*
Y340018D02*
D03*
Y330018D02*
D03*
Y320018D02*
D03*
Y310018D02*
D03*
Y300018D02*
D03*
Y290018D02*
D03*
Y280018D02*
D03*
Y270018D02*
D03*
Y260018D02*
D03*
Y250018D02*
D03*
Y240018D02*
D03*
Y230018D02*
D03*
Y220018D02*
D03*
Y210018D02*
D03*
Y200018D02*
D03*
Y190018D02*
D03*
Y180018D02*
D03*
Y170018D02*
D03*
Y160018D02*
D03*
Y150018D02*
D03*
Y140018D02*
D03*
Y130018D02*
D03*
Y120018D02*
D03*
Y110018D02*
D03*
Y100018D02*
D03*
Y90018D02*
D03*
Y80018D02*
D03*
Y70018D02*
D03*
Y60018D02*
D03*
Y50018D02*
D03*
Y40018D02*
D03*
Y30018D02*
D03*
Y20018D02*
D03*
X6742Y10027D02*
D03*
X16030Y6321D02*
D03*
X26030D02*
D03*
X36030D02*
D03*
X46030D02*
D03*
X56030D02*
D03*
X66030D02*
D03*
X76030D02*
D03*
X86030D02*
D03*
X96030D02*
D03*
X106030D02*
D03*
X116030D02*
D03*
X126030D02*
D03*
X136030D02*
D03*
X146030D02*
D03*
X156030D02*
D03*
X166030D02*
D03*
X176029D02*
D03*
X186029D02*
D03*
X196029D02*
D03*
X206029D02*
D03*
X216029D02*
D03*
X226029D02*
D03*
X236029D02*
D03*
X246029D02*
D03*
X256029D02*
D03*
X266029D02*
D03*
X276029D02*
D03*
X286029D02*
D03*
X296029D02*
D03*
X306029D02*
D03*
X316029D02*
D03*
X326029D02*
D03*
X336029D02*
D03*
X346029D02*
D03*
X356029D02*
D03*
X366029D02*
D03*
X376029D02*
D03*
X386029D02*
D03*
X396029D02*
D03*
X406029D02*
D03*
X416029D02*
D03*
X426029D02*
D03*
X436029D02*
D03*
X446029D02*
D03*
X456029D02*
D03*
X466029D02*
D03*
X476029D02*
D03*
X486029D02*
D03*
X496029D02*
D03*
X506029D02*
D03*
X516029D02*
D03*
X526029D02*
D03*
X536029D02*
D03*
X546029D02*
D03*
X556029D02*
D03*
X566029D02*
D03*
X576029D02*
D03*
X586029D02*
D03*
X596029D02*
D03*
X606029D02*
D03*
X616029D02*
D03*
X626029D02*
D03*
X636029D02*
D03*
X646029D02*
D03*
X656029D02*
D03*
X666029D02*
D03*
X676029D02*
D03*
X686029D02*
D03*
X696029D02*
D03*
X706029D02*
D03*
X716029D02*
D03*
X726028D02*
D03*
X736028D02*
D03*
X746028D02*
D03*
X756028D02*
D03*
X766028D02*
D03*
X776028D02*
D03*
X786028D02*
D03*
X796028D02*
D03*
X806028D02*
D03*
X816028D02*
D03*
X826028D02*
D03*
X836028D02*
D03*
X843566Y12892D02*
D03*
X843679Y22891D02*
D03*
Y32891D02*
D03*
Y42891D02*
D03*
Y52891D02*
D03*
Y62891D02*
D03*
Y72891D02*
D03*
Y82891D02*
D03*
Y92891D02*
D03*
Y102891D02*
D03*
Y112891D02*
D03*
Y122891D02*
D03*
Y132891D02*
D03*
X843679Y142891D02*
D03*
Y152891D02*
D03*
Y162891D02*
D03*
Y172891D02*
D03*
Y182891D02*
D03*
Y192891D02*
D03*
Y202891D02*
D03*
Y212891D02*
D03*
Y222891D02*
D03*
Y232891D02*
D03*
Y242891D02*
D03*
Y252891D02*
D03*
Y262891D02*
D03*
X843679Y272891D02*
D03*
Y282891D02*
D03*
Y292891D02*
D03*
Y302891D02*
D03*
Y312890D02*
D03*
Y322891D02*
D03*
Y332891D02*
D03*
Y342891D02*
D03*
Y352891D02*
D03*
Y362890D02*
D03*
Y372890D02*
D03*
Y382890D02*
D03*
Y392890D02*
D03*
X842293Y402794D02*
D03*
X832651Y405444D02*
D03*
X825524Y412458D02*
D03*
X823679Y422287D02*
D03*
X823679Y432287D02*
D03*
X823679Y442287D02*
D03*
X823679Y452287D02*
D03*
X823679Y462287D02*
D03*
X823679Y472287D02*
D03*
X823679Y482287D02*
D03*
X823679Y492287D02*
D03*
X823679Y502287D02*
D03*
X823680Y512287D02*
D03*
X823680Y522287D02*
D03*
X823680Y532287D02*
D03*
X823680Y542286D02*
D03*
X823680Y552286D02*
D03*
X823680Y562286D02*
D03*
X823680Y572286D02*
D03*
X823680Y582286D02*
D03*
X823680Y592286D02*
D03*
X823680Y602286D02*
D03*
X823680Y612286D02*
D03*
X823680Y622286D02*
D03*
X823680Y632286D02*
D03*
X823680Y642286D02*
D03*
X823680Y652286D02*
D03*
X823680Y662286D02*
D03*
X823680Y672286D02*
D03*
X823680Y682286D02*
D03*
X823680Y692286D02*
D03*
X823680Y702286D02*
D03*
X823680Y712286D02*
D03*
X823680Y722286D02*
D03*
X823680Y732286D02*
D03*
X823680Y742286D02*
D03*
X823680Y752286D02*
D03*
X823901Y762284D02*
D03*
X828215Y771305D02*
D03*
X837038Y776011D02*
D03*
X843679Y783487D02*
D03*
Y793487D02*
D03*
Y803487D02*
D03*
Y813487D02*
D03*
Y823487D02*
D03*
Y833487D02*
D03*
D26*
X52165Y239835D02*
D03*
X19835D02*
D03*
Y272164D02*
D03*
X52165D02*
D03*
X58860Y256000D02*
D03*
X36000Y233140D02*
D03*
X13140Y256000D02*
D03*
X36000Y278860D02*
D03*
X52165Y19835D02*
D03*
X19835D02*
D03*
Y52165D02*
D03*
X52165D02*
D03*
X58860Y36000D02*
D03*
X36000Y13140D02*
D03*
X13140Y36000D02*
D03*
X36000Y58860D02*
D03*
X830164Y19835D02*
D03*
X797835D02*
D03*
Y52165D02*
D03*
X830164D02*
D03*
X836860Y36000D02*
D03*
X814000Y13140D02*
D03*
X791140Y36000D02*
D03*
X814000Y58860D02*
D03*
X830164Y239835D02*
D03*
X797835D02*
D03*
Y272164D02*
D03*
X830164D02*
D03*
X836860Y256000D02*
D03*
X814000Y233140D02*
D03*
X791140Y256000D02*
D03*
X814000Y278860D02*
D03*
X830164Y347836D02*
D03*
X797835D02*
D03*
Y380164D02*
D03*
X830164D02*
D03*
X836860Y364000D02*
D03*
X814000Y341140D02*
D03*
X791140Y364000D02*
D03*
X814000Y386860D02*
D03*
X830164Y797835D02*
D03*
X797835D02*
D03*
Y830164D02*
D03*
X830164D02*
D03*
X836860Y814000D02*
D03*
X814000Y791140D02*
D03*
X791140Y814000D02*
D03*
X814000Y836860D02*
D03*
X52165Y797835D02*
D03*
X19835D02*
D03*
Y830164D02*
D03*
X52165D02*
D03*
X58860Y814000D02*
D03*
X36000Y791140D02*
D03*
X13140Y814000D02*
D03*
X36000Y836860D02*
D03*
X52165Y347836D02*
D03*
X19835D02*
D03*
Y380164D02*
D03*
X52165D02*
D03*
X58860Y364000D02*
D03*
X36000Y341140D02*
D03*
X13140Y364000D02*
D03*
X36000Y386860D02*
D03*
D27*
Y256000D02*
D03*
Y36000D02*
D03*
X814000D02*
D03*
Y256000D02*
D03*
Y364000D02*
D03*
Y814000D02*
D03*
X36000D02*
D03*
Y364000D02*
D03*
D28*
X762700Y113800D02*
D03*
Y139200D02*
D03*
Y164600D02*
D03*
Y190000D02*
D03*
Y215400D02*
D03*
Y240800D02*
D03*
Y266200D02*
D03*
X737300Y139200D02*
D03*
Y164600D02*
D03*
Y190000D02*
D03*
Y215400D02*
D03*
Y240800D02*
D03*
Y266200D02*
D03*
D29*
Y113800D02*
D03*
D34*
X801160Y740580D02*
D03*
Y602080D02*
D03*
D35*
X505770Y274770D02*
D03*
Y268270D02*
D03*
Y261770D02*
D03*
Y255270D02*
D03*
Y248770D02*
D03*
Y242270D02*
D03*
Y235770D02*
D03*
X449270Y274770D02*
D03*
Y268270D02*
D03*
Y261770D02*
D03*
Y255270D02*
D03*
Y248770D02*
D03*
Y242270D02*
D03*
Y235770D02*
D03*
D36*
X659130Y54610D02*
D03*
X604130D02*
D03*
D37*
X413910Y295888D02*
D03*
X431910D02*
D03*
Y269240D02*
D03*
X413910D02*
D03*
X351900Y267970D02*
D03*
X333900D02*
D03*
X413800Y191770D02*
D03*
X431800D02*
D03*
X453280D02*
D03*
X471280D02*
D03*
X286283Y102870D02*
D03*
X304283D02*
D03*
X330718Y53340D02*
D03*
X348718D02*
D03*
X622630Y102870D02*
D03*
X640630D02*
D03*
X451054Y295888D02*
D03*
X469054D02*
D03*
X488198D02*
D03*
X506198D02*
D03*
D38*
X332362Y238761D02*
D03*
X350521Y238760D02*
D03*
X350900Y217169D02*
D03*
X332741Y217170D02*
D03*
X447931Y214631D02*
D03*
X466090Y214630D02*
D03*
X489841Y214631D02*
D03*
X508000Y214630D02*
D03*
X489842Y191771D02*
D03*
X508001Y191770D02*
D03*
X330449Y102871D02*
D03*
X348608Y102870D02*
D03*
X330449Y78741D02*
D03*
X348608Y78740D02*
D03*
X718821Y309880D02*
D03*
X700662Y309881D02*
D03*
Y330201D02*
D03*
X718821Y330200D02*
D03*
X700662Y401956D02*
D03*
X718821Y401955D02*
D03*
X700662Y473711D02*
D03*
X718821Y473710D02*
D03*
X700662Y545466D02*
D03*
X718821Y545465D02*
D03*
X700662Y617221D02*
D03*
X718821Y617220D02*
D03*
D39*
X308610Y235060D02*
D03*
Y217060D02*
D03*
X285750D02*
D03*
Y235060D02*
D03*
X384810Y166260D02*
D03*
Y184260D02*
D03*
X488188Y163940D02*
D03*
Y145940D02*
D03*
X514858D02*
D03*
Y163940D02*
D03*
X488188Y120760D02*
D03*
Y102760D02*
D03*
X541528D02*
D03*
Y120760D02*
D03*
X514858Y102760D02*
D03*
Y120760D02*
D03*
X384810Y126890D02*
D03*
Y144890D02*
D03*
Y105520D02*
D03*
Y87520D02*
D03*
X541528Y189247D02*
D03*
Y207247D02*
D03*
X570230D02*
D03*
Y189247D02*
D03*
X541528Y145940D02*
D03*
Y163940D02*
D03*
X718820Y346000D02*
D03*
Y364000D02*
D03*
X736600D02*
D03*
Y346000D02*
D03*
X718820Y418000D02*
D03*
Y436000D02*
D03*
X736600D02*
D03*
Y418000D02*
D03*
X718820Y490000D02*
D03*
Y508000D02*
D03*
X736600D02*
D03*
Y490000D02*
D03*
X718820Y562000D02*
D03*
Y580000D02*
D03*
X736600D02*
D03*
Y562000D02*
D03*
X718820Y634000D02*
D03*
Y652000D02*
D03*
X736600Y634000D02*
D03*
Y652000D02*
D03*
X718820Y706000D02*
D03*
Y724000D02*
D03*
X736600D02*
D03*
Y706000D02*
D03*
D40*
X285751Y192148D02*
D03*
X285750Y173989D02*
D03*
X285749Y130432D02*
D03*
X285750Y148591D02*
D03*
X384811Y221358D02*
D03*
X384810Y203199D02*
D03*
X384817Y49152D02*
D03*
X384818Y67311D02*
D03*
X570229Y102491D02*
D03*
X570230Y120650D02*
D03*
X570231Y164209D02*
D03*
X570230Y146050D02*
D03*
X701039Y345733D02*
D03*
X701040Y363892D02*
D03*
X701039Y417733D02*
D03*
X701040Y435892D02*
D03*
X701039Y561733D02*
D03*
X701040Y579892D02*
D03*
X701039Y633733D02*
D03*
X701040Y651892D02*
D03*
X701039Y705733D02*
D03*
X701040Y723892D02*
D03*
Y507892D02*
D03*
X701039Y489733D02*
D03*
D41*
X357505Y184277D02*
D03*
X351155D02*
D03*
X344805D02*
D03*
X338455D02*
D03*
X332105D02*
D03*
X325755D02*
D03*
X319405D02*
D03*
X313055D02*
D03*
Y133223D02*
D03*
X319405D02*
D03*
X325755D02*
D03*
X332105D02*
D03*
X338455D02*
D03*
X344805D02*
D03*
X351155D02*
D03*
X357505D02*
D03*
D42*
X416167Y221870D02*
D03*
Y237870D02*
D03*
D43*
X461772Y152273D02*
D03*
X417068D02*
D03*
X615370Y195580D02*
D03*
X660074D02*
D03*
D44*
X309666Y69190D02*
D03*
X284666Y59690D02*
D03*
X309666Y50190D02*
D03*
X767280Y548030D02*
D03*
X792280Y557530D02*
D03*
X767280Y567030D02*
D03*
Y505697D02*
D03*
X792280Y515197D02*
D03*
X767280Y524697D02*
D03*
Y463363D02*
D03*
X792280Y472863D02*
D03*
X767280Y482363D02*
D03*
Y421030D02*
D03*
X792280Y430530D02*
D03*
X767280Y440030D02*
D03*
X285750Y297485D02*
D03*
X310750Y287985D02*
D03*
X285750Y278485D02*
D03*
D45*
X349377Y27647D02*
D03*
X349369Y292205D02*
D03*
D46*
X382397Y27647D02*
D03*
X382389Y292205D02*
D03*
D47*
X439142Y89294D02*
D03*
D48*
X413742Y29088D02*
D03*
X426442D02*
D03*
X439142D02*
D03*
X451842D02*
D03*
X464542D02*
D03*
D49*
X502920Y73152D02*
D03*
Y28448D02*
D03*
X553720Y73240D02*
D03*
Y28536D02*
D03*
D50*
X558931Y227530D02*
D03*
X549431Y252530D02*
D03*
X539931Y227530D02*
D03*
X672440D02*
D03*
X662940Y252530D02*
D03*
X653440Y227530D02*
D03*
Y271980D02*
D03*
X662940Y296980D02*
D03*
X672440Y271980D02*
D03*
X597320D02*
D03*
X606820Y296980D02*
D03*
X616320Y271980D02*
D03*
X539931D02*
D03*
X549431Y296980D02*
D03*
X558931Y271980D02*
D03*
D51*
X713170Y31060D02*
D03*
Y71700D02*
D03*
D52*
X603380Y124460D02*
D03*
Y137160D02*
D03*
Y149860D02*
D03*
Y162560D02*
D03*
X659880Y124460D02*
D03*
Y137160D02*
D03*
Y149860D02*
D03*
Y162560D02*
D03*
D53*
X631630Y143510D02*
D03*
D54*
X736600Y299720D02*
D03*
X608330Y751840D02*
D03*
X528320D02*
D03*
X384810Y241300D02*
D03*
X285750Y27774D02*
D03*
X736600Y613410D02*
D03*
Y397192D02*
D03*
X589280Y240030D02*
D03*
X626110D02*
D03*
X736600Y469265D02*
D03*
X285750Y257810D02*
D03*
X384810Y266700D02*
D03*
X367030Y78740D02*
D03*
X736600Y685800D02*
D03*
Y541338D02*
D03*
Y325120D02*
D03*
D55*
X458410Y391840D02*
D03*
X491110D02*
D03*
X551750D02*
D03*
X584450D02*
D03*
X551750Y463840D02*
D03*
X584450D02*
D03*
X458410D02*
D03*
X491110D02*
D03*
X458410Y535840D02*
D03*
X491110D02*
D03*
X551750D02*
D03*
X584450D02*
D03*
X551750Y607840D02*
D03*
X584450D02*
D03*
X458410D02*
D03*
X491110D02*
D03*
X365070D02*
D03*
X397770D02*
D03*
X365070Y535840D02*
D03*
X397770D02*
D03*
X365070Y463840D02*
D03*
X397770D02*
D03*
X365070Y391840D02*
D03*
X397770D02*
D03*
X271730D02*
D03*
X304430D02*
D03*
X271730Y463840D02*
D03*
X304430D02*
D03*
X271730Y535840D02*
D03*
X304430D02*
D03*
X178390Y607840D02*
D03*
X211090D02*
D03*
X271730D02*
D03*
X304430D02*
D03*
X178390Y535840D02*
D03*
X211090D02*
D03*
X178390Y463840D02*
D03*
X211090D02*
D03*
X178390Y391840D02*
D03*
X211090D02*
D03*
X85050D02*
D03*
X117750D02*
D03*
X85050Y463840D02*
D03*
X117750D02*
D03*
X85050Y535840D02*
D03*
X117750D02*
D03*
X85050Y607840D02*
D03*
X117750D02*
D03*
X85050Y679840D02*
D03*
X117750D02*
D03*
X178390D02*
D03*
X211090D02*
D03*
X271730D02*
D03*
X304430D02*
D03*
X365070D02*
D03*
X397770D02*
D03*
X458410D02*
D03*
X491110D02*
D03*
X551750D02*
D03*
X584450D02*
D03*
X551750Y751840D02*
D03*
X584450D02*
D03*
X458410D02*
D03*
X491110D02*
D03*
X365070D02*
D03*
X397770D02*
D03*
X271730D02*
D03*
X304430D02*
D03*
X178390D02*
D03*
X211090D02*
D03*
X85050D02*
D03*
X117750D02*
D03*
D56*
X659130Y715000D02*
D03*
Y643000D02*
D03*
Y499000D02*
D03*
Y571000D02*
D03*
Y427000D02*
D03*
Y355000D02*
D03*
D57*
X678154Y702500D02*
D03*
Y707500D02*
D03*
Y712500D02*
D03*
Y717500D02*
D03*
Y722500D02*
D03*
Y727500D02*
D03*
X640106D02*
D03*
Y722500D02*
D03*
Y717500D02*
D03*
Y712500D02*
D03*
Y707500D02*
D03*
Y702500D02*
D03*
Y630500D02*
D03*
Y635500D02*
D03*
Y640500D02*
D03*
Y645500D02*
D03*
Y650500D02*
D03*
Y655500D02*
D03*
X678154D02*
D03*
Y650500D02*
D03*
Y645500D02*
D03*
Y640500D02*
D03*
Y635500D02*
D03*
Y630500D02*
D03*
X640106Y486500D02*
D03*
Y491500D02*
D03*
Y496500D02*
D03*
Y501500D02*
D03*
Y506500D02*
D03*
Y511500D02*
D03*
X678154D02*
D03*
Y506500D02*
D03*
Y501500D02*
D03*
Y496500D02*
D03*
Y491500D02*
D03*
Y486500D02*
D03*
X640106Y558500D02*
D03*
Y563500D02*
D03*
Y568500D02*
D03*
Y573500D02*
D03*
Y578500D02*
D03*
Y583500D02*
D03*
X678154D02*
D03*
Y578500D02*
D03*
Y573500D02*
D03*
Y568500D02*
D03*
Y563500D02*
D03*
Y558500D02*
D03*
X640106Y414500D02*
D03*
Y419500D02*
D03*
Y424500D02*
D03*
Y429500D02*
D03*
Y434500D02*
D03*
Y439500D02*
D03*
X678154D02*
D03*
Y434500D02*
D03*
Y429500D02*
D03*
Y424500D02*
D03*
Y419500D02*
D03*
Y414500D02*
D03*
X640106Y342500D02*
D03*
Y347500D02*
D03*
Y352500D02*
D03*
Y357500D02*
D03*
Y362500D02*
D03*
Y367500D02*
D03*
X678154D02*
D03*
Y362500D02*
D03*
Y357500D02*
D03*
Y352500D02*
D03*
Y347500D02*
D03*
Y342500D02*
D03*
D58*
X671630Y734024D02*
D03*
X666630D02*
D03*
X661630D02*
D03*
X656630D02*
D03*
X651630D02*
D03*
X646630D02*
D03*
Y695976D02*
D03*
X651630D02*
D03*
X656630D02*
D03*
X661630D02*
D03*
X666630D02*
D03*
X671630D02*
D03*
Y623976D02*
D03*
X666630D02*
D03*
X661630D02*
D03*
X656630D02*
D03*
X651630D02*
D03*
X646630D02*
D03*
Y662024D02*
D03*
X651630D02*
D03*
X656630D02*
D03*
X661630D02*
D03*
X666630D02*
D03*
X671630D02*
D03*
Y479976D02*
D03*
X666630D02*
D03*
X661630D02*
D03*
X656630D02*
D03*
X651630D02*
D03*
X646630D02*
D03*
Y518024D02*
D03*
X651630D02*
D03*
X656630D02*
D03*
X661630D02*
D03*
X666630D02*
D03*
X671630D02*
D03*
Y551976D02*
D03*
X666630D02*
D03*
X661630D02*
D03*
X656630D02*
D03*
X651630D02*
D03*
X646630D02*
D03*
Y590024D02*
D03*
X651630D02*
D03*
X656630D02*
D03*
X661630D02*
D03*
X666630D02*
D03*
X671630D02*
D03*
Y407976D02*
D03*
X666630D02*
D03*
X661630D02*
D03*
X656630D02*
D03*
X651630D02*
D03*
X646630D02*
D03*
Y446024D02*
D03*
X651630D02*
D03*
X656630D02*
D03*
X661630D02*
D03*
X666630D02*
D03*
X671630D02*
D03*
Y335976D02*
D03*
X666630D02*
D03*
X661630D02*
D03*
X656630D02*
D03*
X651630D02*
D03*
X646630D02*
D03*
Y374024D02*
D03*
X651630D02*
D03*
X656630D02*
D03*
X661630D02*
D03*
X666630D02*
D03*
X671630D02*
D03*
D59*
X751840Y57940D02*
D03*
Y40640D02*
D03*
D60*
X772160Y715080D02*
D03*
Y702580D02*
D03*
Y690080D02*
D03*
Y677580D02*
D03*
Y665080D02*
D03*
Y652580D02*
D03*
Y640080D02*
D03*
Y627580D02*
D03*
M02*
