G04*
G04 #@! TF.GenerationSoftware,Altium Limited,Altium Designer,24.1.2 (44)*
G04*
G04 Layer_Color=255*
%FSLAX44Y44*%
%MOMM*%
G71*
G04*
G04 #@! TF.SameCoordinates,A1CAFFC3-4532-48F1-AA43-BC187200CDC2*
G04*
G04*
G04 #@! TF.FilePolarity,Positive*
G04*
G01*
G75*
%ADD24C,0.8000*%
%ADD25C,0.4000*%
%ADD26C,1.2000*%
%ADD27C,6.0000*%
%ADD28C,1.6000*%
%ADD29R,1.6000X1.6000*%
D24*
X555400Y427000D02*
D03*
X568100Y439700D02*
D03*
Y414300D02*
D03*
X580800Y427000D02*
D03*
X555400Y355000D02*
D03*
X568100Y367700D02*
D03*
Y342300D02*
D03*
X580800Y355000D02*
D03*
X462060D02*
D03*
X474760Y367700D02*
D03*
Y342300D02*
D03*
X487460Y355000D02*
D03*
X368720Y427000D02*
D03*
X381420Y439700D02*
D03*
Y414300D02*
D03*
X394120Y427000D02*
D03*
X462060D02*
D03*
X474760Y439700D02*
D03*
Y414300D02*
D03*
X487460Y427000D02*
D03*
X368720Y355000D02*
D03*
X381420Y367700D02*
D03*
Y342300D02*
D03*
X394120Y355000D02*
D03*
X275380D02*
D03*
X288080Y367700D02*
D03*
Y342300D02*
D03*
X300780Y355000D02*
D03*
X275380Y427000D02*
D03*
X288080Y439700D02*
D03*
Y414300D02*
D03*
X300780Y427000D02*
D03*
X275380Y499000D02*
D03*
X288080Y511700D02*
D03*
Y486300D02*
D03*
X300780Y499000D02*
D03*
X368720D02*
D03*
X381420Y511700D02*
D03*
Y486300D02*
D03*
X394120Y499000D02*
D03*
X462060D02*
D03*
X474760Y511700D02*
D03*
Y486300D02*
D03*
X487460Y499000D02*
D03*
X555400D02*
D03*
X568100Y511700D02*
D03*
Y486300D02*
D03*
X580800Y499000D02*
D03*
X555400Y571000D02*
D03*
X568100Y583700D02*
D03*
Y558300D02*
D03*
X580800Y571000D02*
D03*
X462060D02*
D03*
X474760Y583700D02*
D03*
Y558300D02*
D03*
X487460Y571000D02*
D03*
X368720D02*
D03*
X381420Y583700D02*
D03*
Y558300D02*
D03*
X394120Y571000D02*
D03*
X275380D02*
D03*
X288080Y583700D02*
D03*
Y558300D02*
D03*
X300780Y571000D02*
D03*
X182040D02*
D03*
X194740Y583700D02*
D03*
Y558300D02*
D03*
X207440Y571000D02*
D03*
X182040Y499000D02*
D03*
X194740Y511700D02*
D03*
Y486300D02*
D03*
X207440Y499000D02*
D03*
X182040Y427000D02*
D03*
X194740Y439700D02*
D03*
Y414300D02*
D03*
X207440Y427000D02*
D03*
X182040Y355000D02*
D03*
X194740Y367700D02*
D03*
Y342300D02*
D03*
X207440Y355000D02*
D03*
X88700D02*
D03*
X101400Y367700D02*
D03*
Y342300D02*
D03*
X114100Y355000D02*
D03*
X88700Y427000D02*
D03*
X101400Y439700D02*
D03*
Y414300D02*
D03*
X114100Y427000D02*
D03*
X88700Y499000D02*
D03*
X101400Y511700D02*
D03*
Y486300D02*
D03*
X114100Y499000D02*
D03*
X88700Y571000D02*
D03*
X101400Y583700D02*
D03*
Y558300D02*
D03*
X114100Y571000D02*
D03*
X182040Y643000D02*
D03*
X194740Y655700D02*
D03*
Y630300D02*
D03*
X207440Y643000D02*
D03*
X275380D02*
D03*
X288080Y655700D02*
D03*
Y630300D02*
D03*
X300780Y643000D02*
D03*
X368720D02*
D03*
X381420Y655700D02*
D03*
Y630300D02*
D03*
X394120Y643000D02*
D03*
X462060D02*
D03*
X474760Y655700D02*
D03*
Y630300D02*
D03*
X487460Y643000D02*
D03*
X580800D02*
D03*
X568100Y630300D02*
D03*
Y655700D02*
D03*
X555400Y643000D02*
D03*
Y715000D02*
D03*
X568100Y727700D02*
D03*
Y702300D02*
D03*
X580800Y715000D02*
D03*
X462060D02*
D03*
X474760Y727700D02*
D03*
Y702300D02*
D03*
X487460Y715000D02*
D03*
X368720D02*
D03*
X381420Y727700D02*
D03*
Y702300D02*
D03*
X394120Y715000D02*
D03*
X275380D02*
D03*
X288080Y727700D02*
D03*
Y702300D02*
D03*
X300780Y715000D02*
D03*
X182040D02*
D03*
X194740Y727700D02*
D03*
Y702300D02*
D03*
X207440Y715000D02*
D03*
X88700D02*
D03*
X101400Y727700D02*
D03*
Y702300D02*
D03*
X114100Y715000D02*
D03*
X88700Y643000D02*
D03*
X101400Y655700D02*
D03*
Y630300D02*
D03*
X114100Y643000D02*
D03*
D25*
X837863Y843679D02*
D03*
X827863D02*
D03*
X817863D02*
D03*
X807863D02*
D03*
X797863D02*
D03*
X787863D02*
D03*
X777863D02*
D03*
X767868Y843357D02*
D03*
X762267Y835073D02*
D03*
X759363Y825504D02*
D03*
X752230Y818495D02*
D03*
X742627Y815704D02*
D03*
X732628Y815679D02*
D03*
X722628D02*
D03*
X712628D02*
D03*
X702628D02*
D03*
X692628D02*
D03*
X682628D02*
D03*
X672628D02*
D03*
X662628D02*
D03*
X652628D02*
D03*
X642628D02*
D03*
X632628D02*
D03*
X622628D02*
D03*
X612628D02*
D03*
X602628D02*
D03*
X592628D02*
D03*
X582628D02*
D03*
X572628D02*
D03*
X562628D02*
D03*
X552628D02*
D03*
X542628D02*
D03*
X532628D02*
D03*
X522628D02*
D03*
X512628D02*
D03*
X502628D02*
D03*
X492628D02*
D03*
X482628D02*
D03*
X472628D02*
D03*
X462628D02*
D03*
X452628D02*
D03*
X442628D02*
D03*
X432628D02*
D03*
X422628D02*
D03*
X412628D02*
D03*
X402628D02*
D03*
X392628D02*
D03*
X382628D02*
D03*
X372628D02*
D03*
X362628D02*
D03*
X352628D02*
D03*
X342628D02*
D03*
X332628D02*
D03*
X322628D02*
D03*
X312628D02*
D03*
X302628D02*
D03*
X292628D02*
D03*
X282628D02*
D03*
X272628D02*
D03*
X262628D02*
D03*
X252628D02*
D03*
X242628D02*
D03*
X232629D02*
D03*
X222629D02*
D03*
X212629D02*
D03*
X202629D02*
D03*
X192629D02*
D03*
X182629D02*
D03*
X172629D02*
D03*
X162629D02*
D03*
X152629D02*
D03*
X142629D02*
D03*
X132629D02*
D03*
X122629D02*
D03*
X112629D02*
D03*
X102659Y816448D02*
D03*
X93933Y821335D02*
D03*
X88693Y829852D02*
D03*
X86726Y839656D02*
D03*
X77571Y843679D02*
D03*
X67571D02*
D03*
X57571D02*
D03*
X47571D02*
D03*
X37571Y843679D02*
D03*
X27571D02*
D03*
X17571D02*
D03*
X7768Y841704D02*
D03*
X6321Y831809D02*
D03*
Y821809D02*
D03*
Y811810D02*
D03*
Y801810D02*
D03*
Y791810D02*
D03*
X10419Y782688D02*
D03*
X19766Y779132D02*
D03*
X25583Y770999D02*
D03*
X26321Y761026D02*
D03*
Y751026D02*
D03*
Y741026D02*
D03*
Y731026D02*
D03*
Y721026D02*
D03*
Y711026D02*
D03*
Y701026D02*
D03*
Y691026D02*
D03*
Y681026D02*
D03*
Y671026D02*
D03*
Y661026D02*
D03*
Y651026D02*
D03*
Y641026D02*
D03*
Y631026D02*
D03*
Y621026D02*
D03*
Y611026D02*
D03*
Y601026D02*
D03*
Y591026D02*
D03*
Y581026D02*
D03*
Y571026D02*
D03*
Y561026D02*
D03*
Y551026D02*
D03*
Y541026D02*
D03*
Y531026D02*
D03*
Y521026D02*
D03*
Y511026D02*
D03*
Y501026D02*
D03*
Y491026D02*
D03*
Y481026D02*
D03*
Y471026D02*
D03*
Y461026D02*
D03*
Y451026D02*
D03*
Y441026D02*
D03*
Y431026D02*
D03*
Y421026D02*
D03*
X26332Y411026D02*
D03*
X22373Y401844D02*
D03*
X13880Y396564D02*
D03*
X6321Y390017D02*
D03*
Y380017D02*
D03*
Y370017D02*
D03*
Y360017D02*
D03*
Y350017D02*
D03*
Y340018D02*
D03*
Y330018D02*
D03*
Y320018D02*
D03*
Y310018D02*
D03*
Y300018D02*
D03*
Y290018D02*
D03*
Y280018D02*
D03*
Y270018D02*
D03*
Y260018D02*
D03*
Y250018D02*
D03*
Y240018D02*
D03*
Y230018D02*
D03*
Y220018D02*
D03*
Y210018D02*
D03*
Y200018D02*
D03*
Y190018D02*
D03*
Y180018D02*
D03*
Y170018D02*
D03*
Y160018D02*
D03*
Y150018D02*
D03*
Y140018D02*
D03*
Y130018D02*
D03*
Y120018D02*
D03*
Y110018D02*
D03*
Y100018D02*
D03*
Y90018D02*
D03*
Y80018D02*
D03*
Y70018D02*
D03*
Y60018D02*
D03*
Y50018D02*
D03*
Y40018D02*
D03*
Y30018D02*
D03*
Y20018D02*
D03*
X6742Y10027D02*
D03*
X16030Y6321D02*
D03*
X26030D02*
D03*
X36030D02*
D03*
X46030D02*
D03*
X56030D02*
D03*
X66030D02*
D03*
X76030D02*
D03*
X86030D02*
D03*
X96030D02*
D03*
X106030D02*
D03*
X116030D02*
D03*
X126030D02*
D03*
X136030D02*
D03*
X146030D02*
D03*
X156030D02*
D03*
X166030D02*
D03*
X176029D02*
D03*
X186029D02*
D03*
X196029D02*
D03*
X206029D02*
D03*
X216029D02*
D03*
X226029D02*
D03*
X236029D02*
D03*
X246029D02*
D03*
X256029D02*
D03*
X266029D02*
D03*
X276029D02*
D03*
X286029D02*
D03*
X296029D02*
D03*
X306029D02*
D03*
X316029D02*
D03*
X326029D02*
D03*
X336029D02*
D03*
X346029D02*
D03*
X356029D02*
D03*
X366029D02*
D03*
X376029D02*
D03*
X386029D02*
D03*
X396029D02*
D03*
X406029D02*
D03*
X416029D02*
D03*
X426029D02*
D03*
X436029D02*
D03*
X446029D02*
D03*
X456029D02*
D03*
X466029D02*
D03*
X476029D02*
D03*
X486029D02*
D03*
X496029D02*
D03*
X506029D02*
D03*
X516029D02*
D03*
X526029D02*
D03*
X536029D02*
D03*
X546029D02*
D03*
X556029D02*
D03*
X566029D02*
D03*
X576029D02*
D03*
X586029D02*
D03*
X596029D02*
D03*
X606029D02*
D03*
X616029D02*
D03*
X626029D02*
D03*
X636029D02*
D03*
X646029D02*
D03*
X656029D02*
D03*
X666029D02*
D03*
X676029D02*
D03*
X686029D02*
D03*
X696029D02*
D03*
X706029D02*
D03*
X716029D02*
D03*
X726028D02*
D03*
X736028D02*
D03*
X746028D02*
D03*
X756028D02*
D03*
X766028D02*
D03*
X776028D02*
D03*
X786028D02*
D03*
X796028D02*
D03*
X806028D02*
D03*
X816028D02*
D03*
X826028D02*
D03*
X836028D02*
D03*
X843566Y12892D02*
D03*
X843679Y22891D02*
D03*
Y32891D02*
D03*
Y42891D02*
D03*
Y52891D02*
D03*
Y62891D02*
D03*
Y72891D02*
D03*
Y82891D02*
D03*
Y92891D02*
D03*
Y102891D02*
D03*
Y112891D02*
D03*
Y122891D02*
D03*
Y132891D02*
D03*
X843679Y142891D02*
D03*
Y152891D02*
D03*
Y162891D02*
D03*
Y172891D02*
D03*
Y182891D02*
D03*
Y192891D02*
D03*
Y202891D02*
D03*
Y212891D02*
D03*
Y222891D02*
D03*
Y232891D02*
D03*
Y242891D02*
D03*
Y252891D02*
D03*
Y262891D02*
D03*
X843679Y272891D02*
D03*
Y282891D02*
D03*
Y292891D02*
D03*
Y302891D02*
D03*
Y312890D02*
D03*
Y322891D02*
D03*
Y332891D02*
D03*
Y342891D02*
D03*
Y352891D02*
D03*
Y362890D02*
D03*
Y372890D02*
D03*
Y382890D02*
D03*
Y392890D02*
D03*
X842293Y402794D02*
D03*
X832651Y405444D02*
D03*
X825524Y412458D02*
D03*
X823679Y422287D02*
D03*
X823679Y432287D02*
D03*
X823679Y442287D02*
D03*
X823679Y452287D02*
D03*
X823679Y462287D02*
D03*
X823679Y472287D02*
D03*
X823679Y482287D02*
D03*
X823679Y492287D02*
D03*
X823679Y502287D02*
D03*
X823680Y512287D02*
D03*
X823680Y522287D02*
D03*
X823680Y532287D02*
D03*
X823680Y542286D02*
D03*
X823680Y552286D02*
D03*
X823680Y562286D02*
D03*
X823680Y572286D02*
D03*
X823680Y582286D02*
D03*
X823680Y592286D02*
D03*
X823680Y602286D02*
D03*
X823680Y612286D02*
D03*
X823680Y622286D02*
D03*
X823680Y632286D02*
D03*
X823680Y642286D02*
D03*
X823680Y652286D02*
D03*
X823680Y662286D02*
D03*
X823680Y672286D02*
D03*
X823680Y682286D02*
D03*
X823680Y692286D02*
D03*
X823680Y702286D02*
D03*
X823680Y712286D02*
D03*
X823680Y722286D02*
D03*
X823680Y732286D02*
D03*
X823680Y742286D02*
D03*
X823680Y752286D02*
D03*
X823901Y762284D02*
D03*
X828215Y771305D02*
D03*
X837038Y776011D02*
D03*
X843679Y783487D02*
D03*
Y793487D02*
D03*
Y803487D02*
D03*
Y813487D02*
D03*
Y823487D02*
D03*
Y833487D02*
D03*
D26*
X52165Y239835D02*
D03*
X19835D02*
D03*
Y272164D02*
D03*
X52165D02*
D03*
X58860Y256000D02*
D03*
X36000Y233140D02*
D03*
X13140Y256000D02*
D03*
X36000Y278860D02*
D03*
X52165Y19835D02*
D03*
X19835D02*
D03*
Y52165D02*
D03*
X52165D02*
D03*
X58860Y36000D02*
D03*
X36000Y13140D02*
D03*
X13140Y36000D02*
D03*
X36000Y58860D02*
D03*
X830164Y19835D02*
D03*
X797835D02*
D03*
Y52165D02*
D03*
X830164D02*
D03*
X836860Y36000D02*
D03*
X814000Y13140D02*
D03*
X791140Y36000D02*
D03*
X814000Y58860D02*
D03*
X830164Y239835D02*
D03*
X797835D02*
D03*
Y272164D02*
D03*
X830164D02*
D03*
X836860Y256000D02*
D03*
X814000Y233140D02*
D03*
X791140Y256000D02*
D03*
X814000Y278860D02*
D03*
X830164Y347836D02*
D03*
X797835D02*
D03*
Y380164D02*
D03*
X830164D02*
D03*
X836860Y364000D02*
D03*
X814000Y341140D02*
D03*
X791140Y364000D02*
D03*
X814000Y386860D02*
D03*
X830164Y797835D02*
D03*
X797835D02*
D03*
Y830164D02*
D03*
X830164D02*
D03*
X836860Y814000D02*
D03*
X814000Y791140D02*
D03*
X791140Y814000D02*
D03*
X814000Y836860D02*
D03*
X52165Y797835D02*
D03*
X19835D02*
D03*
Y830164D02*
D03*
X52165D02*
D03*
X58860Y814000D02*
D03*
X36000Y791140D02*
D03*
X13140Y814000D02*
D03*
X36000Y836860D02*
D03*
X52165Y347836D02*
D03*
X19835D02*
D03*
Y380164D02*
D03*
X52165D02*
D03*
X58860Y364000D02*
D03*
X36000Y341140D02*
D03*
X13140Y364000D02*
D03*
X36000Y386860D02*
D03*
D27*
Y256000D02*
D03*
Y36000D02*
D03*
X814000D02*
D03*
Y256000D02*
D03*
Y364000D02*
D03*
Y814000D02*
D03*
X36000D02*
D03*
Y364000D02*
D03*
D28*
X762700Y113800D02*
D03*
Y139200D02*
D03*
Y164600D02*
D03*
Y190000D02*
D03*
Y215400D02*
D03*
Y240800D02*
D03*
Y266200D02*
D03*
X737300Y139200D02*
D03*
Y164600D02*
D03*
Y190000D02*
D03*
Y215400D02*
D03*
Y240800D02*
D03*
Y266200D02*
D03*
D29*
Y113800D02*
D03*
M02*
