M48
;Layer_Color=9474304
;FILE_FORMAT=4:2
METRIC,TZ
;TYPE=PLATED
T01F00S00C0.20
T02F00S00C0.60
T03F00S00C1.10
T04F00S00C3.30
%
T01
X67Y100
X63Y200
X160Y63
X260
X360
X460
X560
X660
X760
X860
X960
X1060
X1160
X1260
X1360
X1460
X1560
X1660
X1760
X1860
X1960
X2060
X2160
X2260
X2360
X2460
X2560
X2660
X2760
X2860
X2960
X3060
X3160
X3260
X3360
X3460
X3560
X3660
X3760
X3860
X3960
X4060
X4160
X4260
X4360
X4460
X4560
X4660
X4760
X4860
X4960
X5060
X5160
X5260
X5360
X5460
X5560
X5660
X5760
X5860
X5960
X6060
X6160
X6260
X6360
X6460
X6560
X6660
X6760
X6860
X6960
X7060
X7160
X7260
X7360
X7460
X7560
X7660
X7760
X7860
X7960
X8060
X8160
X8260
X8360
X8436Y129
X8437Y229
Y329
Y429
Y529
Y629
Y729
Y829
Y929
Y1029
Y1129
Y1229
Y1329
X8437Y1429
Y1529
Y1629
Y1729
Y1829
Y1929
Y2029
Y2129
Y2229
Y2329
Y2429
Y2529
Y2629
X8437Y2729
Y2829
Y2929
Y3029
Y3129
Y3229
Y3329
Y3429
Y3529
Y3629
Y3729
Y3829
Y3929
X8423Y4028
X8327Y4054
X8255Y4125
X7938Y4051
X7747
X7607Y4050
Y3916
Y3781
Y3647
Y3513
Y3378
Y3244
Y3109
Y2975
X7292Y2904
X7125Y2984
X7010Y2926
Y2743
Y2609
Y2362
Y2228
Y2093
X7003Y1537
X7005Y1219
X7140
Y1054
X7005
X7696Y853
Y719
X7912Y828
Y962
Y1096
Y1231
Y1365
Y1500
Y1634
Y1768
Y1903
Y2037
X8166
Y1903
Y1768
Y1634
Y1500
Y1365
Y1231
Y1096
Y962
X7557Y293
X7481
Y216
X7557
X7188Y2489
X7188Y3213
X7252Y3460
X7442
X7379Y3797
X7366Y3972
X7099Y3810
X7125Y3759
X7010Y4110
Y3392
X7943Y3099
X8077
X8212
X6756Y3048
X6718Y3220
X6616
X6516
X6466Y3271
X6566
X6666
X6852Y3525
X6909Y3575
X6871Y3785
Y3899
X6718Y3940
Y3842
X6616Y3940
X6516
X6466Y3991
X6566
X6666
X6466Y3842
X6299Y3675
Y3550
Y3425
X6223Y3475
X6160Y3429
Y3200
X6350Y3048
Y2946
X6414Y2720
X6337Y2629
X6163Y2616
X6261Y2362
X6160Y2235
X6375
X5893Y2362
X5563Y2072
Y1779
Y1620
Y1461
Y1302
Y1143
X5283Y1166
Y1325
Y1484
Y1644
Y1803
X5271Y2083
Y2242
X5170Y2488
X5182Y2618
X5160Y2684
X5220Y2852
Y3035
X5354
X5623
X5757
X5892
X5757Y2876
X5062Y3124
X4913
X4778
X4644
X4510
X4375
X4241
X4106
X3972
X3838
X3703
X3569
X3399Y2922
X3339Y2769
X3282Y2783
X3213Y2794
X3108
Y2731
X3416Y2489
Y2426
X3848Y2413
Y2553
X3988Y2350
Y2243
Y2084
X4163Y2032
X4242
X4356Y2153
X4318Y2286
X4420Y2273
X4493Y2312
X4381Y2488
X4597Y2618
X4493Y2819
X4415Y2959
X3950Y2922
Y1766
Y1607
Y1448
X3747Y1842
X3385Y1994
X3175Y2171
X3213Y1092
X3213Y1029
X3043Y1130
X3478Y631
X3670Y673
Y787
X3396Y276
X3950
X4762Y470
Y629
Y788
Y947
Y1106
X4638Y1168
X4458
X4278
X4978Y1029
X5283Y826
Y691
Y557
X5791Y648
Y782
Y917
X5944Y219
X6020
X6097
X6173
X6883Y582
Y716
Y851
X6871Y1054
X6769Y1067
X6871Y1219
X6869Y1537
X6794Y2489
Y2718
X6629Y2629
X6223Y3625
X6160Y3810
Y4140
X6299Y4145
X5833Y1779
X5055Y1638
X4813Y1943
X4788Y2153
X2718Y2069
Y2249
Y2429
Y2609
Y2969
Y3150
X2311
Y2969
Y2789
Y2609
Y2429
Y2249
Y2069
Y1888
Y1708
Y1528
Y1348
Y1168
Y987
Y807
Y627
Y447
Y267
X1816
Y447
Y627
Y807
Y987
Y1168
Y1348
Y1528
Y1708
Y1888
Y2069
Y2249
Y2429
Y2609
Y2789
Y2969
Y3150
X1321
Y2969
Y2789
Y2609
Y2429
Y2249
Y2069
Y1888
Y1708
Y1528
Y1348
Y1168
Y987
Y807
Y627
Y447
Y267
X826
Y447
Y627
Y807
Y987
Y1168
Y1348
Y1528
Y1708
Y1888
Y2069
Y2249
Y2429
Y2609
Y2789
Y2969
Y3150
X445Y3177
Y2997
X63Y3000
Y2900
Y2800
Y2700
Y2600
Y2500
Y2400
Y2300
Y2200
Y2100
Y2000
Y1900
Y1800
Y1700
Y1600
Y1500
Y1400
Y1300
Y1200
Y1100
Y1000
Y900
Y800
Y700
Y600
Y500
Y400
Y300
X445Y837
Y1017
Y1197
Y1377
Y1557
Y1738
Y1918
Y2098
X63Y3100
Y3200
Y3300
Y3400
Y3500
Y3600
Y3700
Y3800
Y3900
X139Y3966
X224Y4018
X263Y4110
X546Y4080
X2718Y1765
Y1585
X2705Y1372
Y1304
X2807Y1168
X2847Y902
Y813
Y724
X2637Y813
X2553
X2807Y447
X546Y4260
Y4440
Y4620
Y4801
Y4981
Y5161
Y5341
Y5521
Y5702
Y5882
Y6062
Y6242
Y6422
Y6602
Y6783
Y6963
Y7143
Y7323
Y7503
Y7683
X256Y7710
X263Y7610
Y7510
Y7410
Y7310
Y7210
Y7110
Y7010
Y6910
Y6810
Y6710
Y6610
Y6510
Y6410
Y6310
Y6210
Y6110
Y6010
Y5910
Y5810
Y5710
Y5610
Y5510
Y5410
Y5310
Y5210
Y5110
Y5010
Y4910
Y4810
Y4710
Y4610
Y4510
Y4410
Y4310
Y4210
X198Y7791
X104Y7827
X63Y7918
Y8018
Y8118
X826Y7912
X1006
X1186
X1366
X1546
X1726
X1907
X2087
X2267
X2447
X2627
X2807
X2988
X3168
X3348
X3528
X3708
X3889
X4069
X4249
X4429
X4609
X4789
X4970
X5150
X5330
X5510
X5690
X5871
X6051
X6231
X6411
X6591
X6771
Y7732
X6591
X6411
X6231
X6051
X6236Y7366
X6223Y7225
X6299Y7275
Y7150
Y7025
X6223Y7075
X6134Y7049
X6160Y6820
X6185Y6680
X6223Y6505
Y6439
Y6355
X6134Y6337
X6299Y6305
Y6430
Y6555
X6466Y6722
X6516Y6820
X6616
X6666Y6871
X6566
X6466
X6718Y6820
Y6722
X6871Y6718
Y6820
X6852Y7125
X6909Y7175
X6894Y7455
X6718Y7442
X6466
Y6151
X6566
X6666
X6616Y6100
X6516
X6466Y6002
X6718
Y6100
X6871Y6071
Y5969
X6909Y5735
X6852Y5685
X6871Y5354
Y5220
X6718Y5282
Y5380
X6616
X6516
X6466Y5431
X6566
X6666
X6466Y5282
X6185Y5232
X6223Y5065
X6299Y5115
Y4990
Y4865
X6223Y4915
X6172Y4864
Y4508
X6223Y4345
X6299Y4395
Y4270
X6223Y4195
X6466Y4562
X6516Y4660
X6616
X6566Y4711
X6466
X6666
X6718Y4660
Y4562
X6871Y4618
Y4483
X6909Y4295
X6852Y4245
Y4965
X6909Y5015
X6299Y5585
Y5710
Y5835
X6223Y5785
Y5635
X6160Y5588
X6172Y5944
Y6096
X6852Y6405
X6909Y6455
X7010Y6266
X7252Y6340
X7442
X7569Y6452
X7582Y6651
X7607Y6776
X7531Y6820
X7544Y6901
X7455Y7061
X7252Y7060
X7087Y6972
X7010Y6984
X7125Y6794
Y6706
X7188Y6642
X7366Y6134
X7379Y5956
X7569Y5875
Y5740
Y5606
X7576Y5480
X7569Y5349
Y5214
Y5080
Y4946
X7582Y4824
Y4750
X7442Y4902
X7252Y4900
X7010Y4829
X7099Y4623
X7125Y4547
X7188Y4470
X7442Y4521
X7673Y4508
X7925
X8039Y4570
Y4751
Y4931
X7938Y4940
X8039Y5111
Y5291
X7938Y5359
X8039Y5471
Y5651
X8237Y5623
X8237Y5723
X8237Y5823
X8237Y5923
X8237Y6023
X8237Y6123
X8237Y6223
X8237Y6323
X8237Y6423
X8237Y6523
X8237Y6623
X8237Y6723
X8237Y6823
X8237Y6923
X8237Y7023
X8237Y7123
X8237Y7223
X8237Y7323
X8237Y7423
X8237Y7523
X8239Y7623
X8282Y7713
X8370Y7760
X8437Y7835
Y7935
Y8035
Y8135
X7672Y7912
X7492
X7312
X7132
X6952
Y7732
X7132
X7312
X7492
Y7552
X7672
Y7732
X7853
X7722Y7239
X7849Y7026
X7366Y7353
X7297Y7455
X7163
X7028
X7099Y6020
Y5918
X7252Y5620
X7442
X7366Y5258
Y5194
X7163Y5271
X7188Y5359
X7010Y5547
X7671Y5156
X8237Y5123
X8237Y5223
X8237Y5323
X8237Y5423
X8237Y5523
X8237Y5023
X8237Y4923
X8237Y4823
X8237Y4723
X8237Y4623
X8237Y4523
X8237Y4423
X8237Y4323
X8237Y4223
X8039Y4210
Y4390
X7442Y4178
X7252Y4180
X7950Y5791
X7979Y8437
X7879
X7779
X7679Y8434
X7623Y8351
X7594Y8255
X7522Y8185
X7426Y8157
X7326Y8157
X7226
X7126
X7026
X8079Y8437
X8179
X8279
X8379
X8437Y8335
Y8235
X6926Y8157
X6826
X6726
X6626
X6526
X6426
X6326
X6226
X6126
X6026
X5926
X5826
X5726
X5626
X5526
X5426
X5326
X5226
X5126
X5026
X4926
X4826
X4726
X4626
X4526
X4426
X4326
X4226
X4126
X4026
X3926
X3826
X3726
X3626
X3526
X3426
X3326
X3226
X3126
X3026
X2926
X2826
X2726
X2626
X2526
X2426
X2326
X2226
X2126
X2026
X1926
X1826
X1726
X1626
X1526
X1426
X1326
X1226
X1126
X1027Y8164
X939Y8213
X887Y8299
X867Y8397
X776Y8437
X676
X576
X476
X376Y8437
X276
X176
X78Y8417
X63Y8318
Y8218
T02
X198Y198
X360Y131
X522Y198
X7978
X8140Y131
X8302Y198
X8369Y360
X8302Y522
X8140Y589
X7978Y522
X7911Y360
X7978Y2398
X7911Y2560
X7978Y2722
X8140Y2789
X8302Y2722
X8369Y2560
X8302Y2398
X8140Y2331
Y3411
X8302Y3478
X8369Y3640
X8302Y3802
X8140Y3869
X7978Y3802
X7911Y3640
X7978Y3478
X5808Y3550
X5554
X5681Y3677
Y3423
Y4143
X4748
Y3677
X4621Y3550
X4748Y3423
X4875Y3550
X3941
X3687
X3814Y3677
Y3423
Y4143
X3008Y3550
X2754
X2881Y3677
Y3423
Y4143
X1947
Y3677
X1820Y3550
X1947Y3423
X2074Y3550
X1141
X887
X1014Y3677
Y3423
X522Y3478
X360Y3411
X198Y3478
X131Y3640
X198Y3802
X360Y3869
X522Y3802
X589Y3640
X1014Y4143
X522Y2722
X589Y2560
X522Y2398
X360Y2331
X198Y2398
X131Y2560
X198Y2722
X360Y2789
Y589
X522Y522
X589Y360
X131
X198Y522
X887Y4270
X1014Y4397
X1141Y4270
X1820
X1947Y4397
X2074Y4270
X2754
X2881Y4397
Y4863
X2754Y4990
X2881Y5117
Y5583
X2754Y5710
X2881Y5837
Y6303
X2754Y6430
X2881Y6557
Y7023
X2754Y7150
X2881Y7277
X1947
X1820Y7150
X1947Y7023
X2074Y7150
X1947Y6557
X1820Y6430
X1947Y6303
X2074Y6430
X1947Y5837
X1820Y5710
X1947Y5583
X2074Y5710
X1947Y5117
X1820Y4990
X1947Y4863
X2074Y4990
X1141
X887
X1014Y5117
Y4863
Y5583
X887Y5710
X1014Y5837
X1141Y5710
X1014Y6303
X887Y6430
X1014Y6557
X1141Y6430
X1014Y7023
X887Y7150
X1014Y7277
X1141Y7150
X522Y7978
X589Y8140
X360Y7911
X198Y7978
X131Y8140
X3008Y7150
X3687
X3814Y7277
Y7023
X3941Y7150
X4621
X4748Y7277
Y7023
X4875Y7150
X5554
X5681Y7277
Y7023
X5808Y7150
Y6430
X5681Y6303
Y6557
X5554Y6430
X4875
X4621
X4748Y6557
Y6303
Y5837
X4621Y5710
X4748Y5583
X4875Y5710
X5554
X5681Y5837
Y5583
X5808Y5710
X5681Y5117
X5554Y4990
X5681Y4863
X5808Y4990
X5681Y4397
X5554Y4270
X5808
X4875
X4621
X4748Y4397
Y4863
X4621Y4990
X4748Y5117
X4875Y4990
X3941
X3687
X3814Y5117
Y4863
Y4397
X3687Y4270
X3941
X3008
Y4990
Y5710
X3687
X3814Y5837
Y5583
X3941Y5710
X3814Y6303
X3687Y6430
X3814Y6557
X3941Y6430
X3008
X7978Y7978
X7911Y8140
X8140Y7911
X8302Y7978
X8369Y8140
X8302Y8302
X8140Y8369
X7978Y8302
X522
X360Y8369
X198Y8302
T03
X7373Y1138
X7627
Y1392
Y1646
Y1900
Y2154
Y2408
Y2662
X7373
Y2408
Y2154
Y1900
Y1646
Y1392
T04
X8140Y360
Y2560
Y3640
X360
Y2560
Y360
Y8140
X8140
M30
